<svg xmlns="http://www.w3.org/2000/svg" viewBox="0 0 24 24" width="24" height="24" fill="none" stroke="currentColor" stroke-width="1.5" stroke-linecap="round" stroke-linejoin="round"><path d="M12 3.5 C9.5 3.5 7.5 5.5 7.5 8.5 V11.5 C6 11.5 4.5 11.7 4.5 12.2 C4.5 13 6 13.5 7.5 13.5 C7.5 14.5 6.5 16 5 16.5 C5.5 17.3 7 17.8 8.5 17.8 C8.5 18.5 9 19 9.5 19 C10.2 19 10.5 18.5 11.5 18.5 C12.2 18.5 12.5 19 13.5 19 C14.5 19 15 18.5 15 17.8 C16.5 17.8 18 17.3 18.5 16.5 C17 16 16 14.5 16 13.5 C17.5 13.5 19 13 19 12.2 C19 11.7 17.5 11.5 16 11.5 V8.5 C16 5.5 14 3.5 12 3.5 Z" /></svg>
