<svg xmlns="http://www.w3.org/2000/svg" viewBox="0 0 24 24" width="24" height="24" fill="none" stroke="currentColor" stroke-width="1.5" stroke-linecap="round" stroke-linejoin="round"><path d="M14 3.5 H16.5 C16.7 5 17.5 6.5 19 7.2 V9.5 C17.7 9.5 16.5 9.1 15.5 8.5 V14.5 C15.5 17.3 13.3 19.5 10.5 19.5 C7.7 19.5 5.5 17.3 5.5 14.5 C5.5 11.7 7.7 9.5 10.5 9.5 C10.8 9.5 11.2 9.5 11.5 9.6 V12.1 C11.2 12 10.8 12 10.5 12 C9.1 12 8 13.1 8 14.5 C8 15.9 9.1 17 10.5 17 C11.9 17 13 15.9 13 14.5 V3.5 Z" /></svg>
