<svg width="24" height="24" viewBox="0 0 24 24" fill="none" xmlns="http://www.w3.org/2000/svg"><mask id="ko-actions-cloud-upload" maskUnits="userSpaceOnUse" x="0" y="0" width="24" height="24"><rect width="24" height="24" fill="white"/><path d="M9 14 L12 11 L15 14 M12 11 V18" stroke="black" stroke-width="1.5" fill="none" /></mask><g mask="url(#ko-actions-cloud-upload)" fill="currentColor"><path d="M7 18 H17 C19.2 18 21 16.2 21 14 C21 12.1 19.7 10.6 18 10.1 C18 9.4 17.7 8.7 17.3 8.1 C16.5 7 15.3 6.3 14 6.1 C13.6 4.9 12.4 4 11 4 C9.3 4 8 5.3 8 7 C8 7.3 8 7.6 8.1 7.9 C5.7 8.2 4 10.3 4 12.7 C4 15.4 6.1 18 7 18 Z" /></g></svg>
