<svg xmlns="http://www.w3.org/2000/svg" viewBox="0 0 24 24" width="24" height="24" fill="currentColor"><path d="M9.38442 21.5303C9.67727 21.8232 10.1521 21.823 10.445 21.5303L12.445 19.5303C12.7378 19.2374 12.7378 18.7626 12.445 18.4697L10.445 16.4697C10.1521 16.1769 9.67726 16.1769 9.38442 16.4697C9.09174 16.7626 9.09175 17.2374 9.38442 17.5303L10.0973 18.2442C9.18481 18.1111 8.30554 17.7771 7.527 17.2569C6.2663 16.4144 5.35498 15.1414 4.96255 13.6768C4.57032 12.2123 4.72365 10.6547 5.39419 9.29497C6.06484 7.9353 7.2074 6.86539 8.60805 6.28521C8.99046 6.12644 9.17276 5.68717 9.0143 5.30474C8.85558 4.92249 8.41629 4.74109 8.03384 4.89966C6.29684 5.61923 4.88009 6.94589 4.04848 8.63209C3.21701 10.3183 3.02776 12.2497 3.5143 14.0657C4.00096 15.8818 5.13072 17.4596 6.69399 18.5042C7.72107 19.1904 8.88916 19.6146 10.0983 19.7561L9.38442 20.4698C9.09174 20.7626 9.09175 21.2374 9.38442 21.5303Z M14.9877 18.6956C15.1464 19.0779 15.5857 19.2593 15.9682 19.1009C17.7051 18.3813 19.122 17.0547 19.9536 15.3685C20.785 13.6823 20.9743 11.7509 20.4877 9.93483C20.0011 8.11876 18.8713 6.54092 17.3081 5.49636C16.2805 4.80977 15.1115 4.38672 13.9018 4.24533L14.6166 3.53051C14.9095 3.23767 14.9095 2.76299 14.6166 2.47006C14.3237 2.17739 13.8489 2.1772 13.5561 2.47006L11.5561 4.47006C11.2632 4.76293 11.2632 5.23715 11.5561 5.53051L13.5561 7.53051C13.849 7.82323 14.3237 7.82334 14.6166 7.53051C14.9095 7.23767 14.9095 6.76282 14.6166 6.46998L13.9028 5.7571C14.8156 5.89004 15.6952 6.22316 16.4741 6.74347C17.7348 7.5859 18.6461 8.85896 19.0385 10.3235C19.4309 11.7881 19.2775 13.3456 18.6069 14.7054C17.9362 16.0651 16.7937 17.135 15.393 17.7152C15.0108 17.8739 14.8293 18.3132 14.9877 18.6956Z" fill-rule="evenodd" /></svg>
