<svg xmlns="http://www.w3.org/2000/svg" viewBox="0 0 24 24" width="24" height="24" fill="currentColor"><path d="M14.9877 5.30433C15.1464 4.92208 15.5857 4.74069 15.9682 4.89905C17.7051 5.61862 19.122 6.94528 19.9536 8.63148C20.785 10.3177 20.9743 12.2491 20.4877 14.0651C20.0011 15.8812 18.8713 17.459 17.3081 18.5036C16.2805 19.1902 15.1115 19.6132 13.9018 19.7546L14.6166 20.4694C14.9095 20.7623 14.9095 21.237 14.6166 21.5299C14.3237 21.8226 13.8489 21.8228 13.5561 21.5299L11.5561 19.5299C11.2632 19.237 11.2632 18.7628 11.5561 18.4694L13.5561 16.4694C13.849 16.1765 14.3237 16.1766 14.6166 16.4694C14.9095 16.7623 14.9095 17.237 14.6166 17.5299L13.9028 18.2428C14.8156 18.1099 15.6952 17.7768 16.4741 17.2565C17.7348 16.4141 18.6461 15.1411 19.0385 13.6764C19.4309 12.2119 19.2775 10.6544 18.6069 9.29456C17.9362 7.93489 16.7937 6.86498 15.393 6.2848C15.0108 6.12603 14.8293 5.68676 14.9877 5.30433Z M9.38442 2.4696C9.67727 2.17675 10.1521 2.17685 10.445 2.4696L12.445 4.4696C12.7378 4.76244 12.7378 5.23725 12.445 5.53014L10.445 7.53014C10.1521 7.82286 9.67726 7.82298 9.38442 7.53014C9.09174 7.2373 9.09175 6.76245 9.38442 6.4696L10.0973 5.75573C9.18481 5.88881 8.30554 6.22283 7.527 6.74303C6.2663 7.58545 5.35498 8.85852 4.96255 10.3231C4.57032 11.7876 4.72365 13.3452 5.39419 14.7049C6.06484 16.0646 7.2074 17.1345 8.60805 17.7147C8.99046 17.8734 9.17276 18.3126 9.0143 18.6952C8.85558 19.0774 8.41629 19.2588 8.03384 19.1005C6.29684 18.381 4.88009 17.0542 4.04848 15.368C3.21701 13.6818 3.02776 11.7504 3.5143 9.93444C4.00096 8.11837 5.13072 6.54053 6.69399 5.49596C7.72107 4.80972 8.88916 4.3855 10.0983 4.24401L9.38442 3.53014C9.09174 3.2373 9.09175 2.76245 9.38442 2.4696Z" fill-rule="evenodd" /></svg>
