<svg xmlns="http://www.w3.org/2000/svg" viewBox="0 0 24 24" width="24" height="24" fill="currentColor"><path d="M4.25 10.9999L4.263 10.5159C4.3328 9.24725 4.67806 8.00898 5.27479 6.88721C5.87152 5.76545 6.7054 4.7871 7.71846 4.02019C8.73152 3.25327 9.89945 2.71619 11.1411 2.44628C12.3827 2.17637 13.6682 2.18011 14.9082 2.45723C16.1482 2.73435 17.313 3.27821 18.3216 4.051C19.3302 4.82379 20.1583 5.80696 20.7485 6.93218C21.3387 8.05739 21.6768 9.29764 21.7392 10.5667C21.8016 11.8358 21.5869 13.1032 21.11 14.2809C21.0315 14.4594 20.8865 14.6003 20.7059 14.6737C20.5253 14.7471 20.3231 14.7473 20.1424 14.6742C19.9616 14.6011 19.8164 14.4605 19.7376 14.2822C19.6587 14.1039 19.6524 13.9018 19.72 13.7189C20.3247 12.2241 20.4139 10.5704 19.9735 9.01917C19.5331 7.46797 18.5882 6.10784 17.2882 5.15382C15.9882 4.1998 14.4072 3.70634 12.7953 3.75146C11.1835 3.79657 9.63261 4.37769 8.388 5.40293C7.56259 6.08346 6.89801 6.93821 6.44192 7.90588C5.98584 8.87355 5.74955 9.93017 5.75 10.9999V13.9999C5.75 14.1988 5.67098 14.3896 5.53033 14.5303C5.38968 14.6709 5.19891 14.7499 5 14.7499C4.80109 14.7499 4.61032 14.6709 4.46967 14.5303C4.32902 14.3896 4.25 14.1988 4.25 13.9999V10.9999Z M2.53015 10.4702L5.00015 12.9402L7.47015 10.4702C7.76299 10.1773 8.23719 10.1773 8.53015 10.4702C8.82299 10.763 8.82299 11.2374 8.53015 11.5302L5.53015 14.5302C5.23719 14.8231 4.76311 14.8231 4.47015 14.5302L1.47015 11.5302C1.17731 11.2374 1.17731 10.763 1.47015 10.4702C1.76287 10.1773 2.23731 10.1773 2.53015 10.4702Z M13.0002 14.0602L10.0602 17.0002L13.0002 19.9402L15.9402 17.0002L13.0002 14.0602ZM12.4702 12.4702C12.7631 12.1773 13.2373 12.1773 13.5302 12.4702L17.5302 16.4702C17.823 16.7631 17.823 17.2374 17.5302 17.5302L13.5302 21.5302C13.2373 21.8231 12.7631 21.8231 12.4702 21.5302L8.47015 17.5302C8.17731 17.2374 8.17731 16.7631 8.47015 16.4702L12.4702 12.4702Z" fill-rule="evenodd" /></svg>
