<svg xmlns="http://www.w3.org/2000/svg" viewBox="0 0 24 24" width="24" height="24" fill="currentColor"><path d="M9.0123 5.30433C8.85364 4.92208 8.41434 4.74069 8.03184 4.89905C6.29495 5.61862 4.87798 6.94528 4.04645 8.63148C3.21503 10.3177 3.02568 12.2491 3.51232 14.0651C3.99895 15.8812 5.12867 17.459 6.69189 18.5036C7.71955 19.1902 8.88846 19.6132 10.0982 19.7546L9.38338 20.4694C9.09054 20.7623 9.09054 21.237 9.38338 21.5299C9.67627 21.8226 10.1511 21.8228 10.4439 21.5299L12.4439 19.5299C12.7368 19.237 12.7368 18.7628 12.4439 18.4694L10.4439 16.4694C10.1511 16.1765 9.67637 16.1766 9.38338 16.4694C9.09054 16.7623 9.09054 17.237 9.38338 17.5299L10.0972 18.2428C9.18444 18.1099 8.30482 17.7768 7.5259 17.2565C6.2652 16.4141 5.35395 15.1411 4.96148 13.6764C4.5691 12.2119 4.72247 10.6544 5.39305 9.29456C6.06378 7.93489 7.20627 6.86498 8.607 6.2848C8.98916 6.12603 9.17066 5.68676 9.0123 5.30433Z M14.6156 2.4696C14.3227 2.17675 13.8479 2.17685 13.555 2.4696L11.555 4.4696C11.2622 4.76244 11.2622 5.23725 11.555 5.53014L13.555 7.53014C13.8479 7.82286 14.3227 7.82298 14.6156 7.53014C14.9082 7.2373 14.9082 6.76245 14.6156 6.4696L13.9027 5.75573C14.8152 5.88881 15.6945 6.22283 16.473 6.74303C17.7337 7.58545 18.645 8.85852 19.0374 10.3231C19.4297 11.7876 19.2763 13.3452 18.6058 14.7049C17.9352 16.0646 16.7926 17.1345 15.392 17.7147C15.0095 17.8734 14.8272 18.3126 14.9857 18.6952C15.1444 19.0774 15.5837 19.2588 15.9662 19.1005C17.7032 18.381 19.1199 17.0542 19.9515 15.368C20.783 13.6818 20.9722 11.7504 20.4857 9.93444C19.999 8.11837 18.8693 6.54053 17.306 5.49596C16.2789 4.80972 15.1108 4.3855 13.9017 4.24401L14.6156 3.53014C14.9082 3.2373 14.9082 2.76245 14.6156 2.4696Z" fill-rule="evenodd" /></svg>
