<svg xmlns="http://www.w3.org/2000/svg" viewBox="0 0 24 24" width="24" height="24" fill="currentColor"><path d="M19.7498 10.9999L19.7368 10.5159C19.667 9.24725 19.3217 8.00898 18.725 6.88721C18.1283 5.76545 17.2944 4.7871 16.2813 4.02019C15.2683 3.25327 14.1003 2.71619 12.8587 2.44628C11.6171 2.17637 10.3316 2.18011 9.09161 2.45723C7.85159 2.73435 6.6868 3.27821 5.67822 4.051C4.66963 4.82379 3.84145 5.80696 3.25125 6.93218C2.66105 8.05739 2.32299 9.29764 2.26057 10.5667C2.19814 11.8358 2.41286 13.1032 2.88979 14.2809C2.96831 14.4594 3.11325 14.6003 3.29389 14.6737C3.47452 14.7471 3.67665 14.7473 3.85742 14.6742C4.03819 14.6011 4.18339 14.4605 4.26224 14.2822C4.34108 14.1039 4.34738 13.9018 4.27979 13.7189C3.67604 12.2242 3.58753 10.5709 4.02824 9.02028C4.46896 7.46963 5.41378 6.11004 6.71343 5.15629C8.01308 4.20254 9.59347 3.70901 11.2049 3.75368C12.8163 3.79834 14.367 4.37866 15.6118 5.40293C16.4372 6.08346 17.1018 6.93821 17.5579 7.90588C18.014 8.87355 18.2502 9.93017 18.2498 10.9999V13.9999C18.2498 14.1988 18.3288 14.3896 18.4695 14.5303C18.6101 14.6709 18.8009 14.7499 18.9998 14.7499C19.1987 14.7499 19.3895 14.6709 19.5301 14.5303C19.6708 14.3896 19.7498 14.1988 19.7498 13.9999V10.9999Z M21.4698 10.4702L18.9998 12.9402L16.5298 10.4702C16.2369 10.1773 15.7627 10.1773 15.4698 10.4702C15.1769 10.763 15.1769 11.2374 15.4698 11.5302L18.4698 14.5302C18.7627 14.8231 19.2369 14.8231 19.5298 14.5302L22.5298 11.5302C22.8227 11.2374 22.8227 10.763 22.5298 10.4702C22.2369 10.1773 21.7627 10.1773 21.4698 10.4702Z M10.9998 14.0602L8.05983 17.0002L10.9998 19.9402L13.9398 17.0002L10.9998 14.0602ZM11.5298 12.4702C11.2369 12.1773 10.7627 12.1773 10.4698 12.4702L6.46983 16.4702C6.17699 16.7631 6.17699 17.2374 6.46983 17.5302L10.4698 21.5302C10.7627 21.8231 11.2369 21.8231 11.5298 21.5302L15.5298 17.5302C15.8227 17.2374 15.8227 16.7631 15.5298 16.4702L11.5298 12.4702Z" fill-rule="evenodd" /></svg>
