<svg width="24" height="24" viewBox="0 0 24 24" fill="none" xmlns="http://www.w3.org/2000/svg">
<path d="M3.585 14C3.14192 12.9059 2.94644 11.7274 3.01256 10.5489C3.07869 9.37037 3.40478 8.22109 3.96746 7.18346C4.53014 6.14584 5.31546 5.24558 6.2671 4.54726C7.21874 3.84894 8.31312 3.36986 9.47175 3.14437C10.6304 2.91888 11.8246 2.95258 12.9686 3.24304C14.1127 3.5335 15.1783 4.07354 16.0891 4.82441C16.9998 5.57528 17.7331 6.51839 18.2364 7.58609C18.7397 8.65379 19.0004 9.81963 19 11L19 14" stroke="currentColor" stroke-width="1.5" stroke-linecap="round" stroke-linejoin="round"></path>
<path d="M16 11L19 14L22 11" stroke="currentColor" stroke-width="1.5" stroke-linecap="round" stroke-linejoin="round"></path>
<path d="M7 17L11 13L15 17L11 21L7 17Z" stroke="currentColor" stroke-width="1.5" stroke-linecap="round" stroke-linejoin="round"></path>
</svg>
