<svg width="24" height="24" viewBox="0 0 24 24" fill="none" xmlns="http://www.w3.org/2000/svg">
<path d="M20.415 14C20.8581 12.9059 21.0536 11.7274 20.9874 10.5489C20.9213 9.37037 20.5952 8.22109 20.0325 7.18346C19.4699 6.14584 18.6845 5.24558 17.7329 4.54726C16.7813 3.84894 15.6869 3.36986 14.5283 3.14437C13.3696 2.91888 12.1754 2.95258 11.0314 3.24304C9.8873 3.5335 8.82168 4.07354 7.91093 4.82441C7.00018 5.57528 6.26688 6.51839 5.76361 7.58609C5.26033 8.65379 4.99956 9.81963 5 11L5 14" stroke="currentColor" stroke-width="1.5" stroke-linecap="round" stroke-linejoin="round"></path>
<path d="M8 11L5 14L2 11" stroke="currentColor" stroke-width="1.5" stroke-linecap="round" stroke-linejoin="round"></path>
<path d="M17 17L13 13L9 17L13 21L17 17Z" stroke="currentColor" stroke-width="1.5" stroke-linecap="round" stroke-linejoin="round"></path>
</svg>
