<svg width="24" height="24" viewBox="0 0 24 24" fill="none" xmlns="http://www.w3.org/2000/svg">
<path d="M6.39982 8.79965C7.72521 8.79965 8.79965 7.72521 8.79965 6.39982C8.79965 5.07444 7.72521 4 6.39982 4C5.07444 4 4 5.07444 4 6.39982C4 7.72521 5.07444 8.79965 6.39982 8.79965Z" stroke="currentColor" stroke-linecap="round" stroke-linejoin="round"></path>
<path d="M17.599 14.3993C18.9244 14.3993 19.9989 13.3248 19.9989 11.9994C19.9989 10.674 18.9244 9.59961 17.599 9.59961C16.2737 9.59961 15.1992 10.674 15.1992 11.9994C15.1992 13.3248 16.2737 14.3993 17.599 14.3993Z" stroke="currentColor" stroke-linecap="round" stroke-linejoin="round"></path>
<path d="M6.39982 19.999C7.72521 19.999 8.79965 18.9246 8.79965 17.5992C8.79965 16.2738 7.72521 15.1993 6.39982 15.1993C5.07444 15.1993 4 16.2738 4 17.5992C4 18.9246 5.07444 19.999 6.39982 19.999Z" stroke="currentColor" stroke-linecap="round" stroke-linejoin="round"></path>
<path d="M15.2017 11.9996H9.60211C7.84224 11.9996 6.40234 11.1996 6.40234 8.7998V15.1993" stroke="currentColor" stroke-linecap="round" stroke-linejoin="round"></path>
</svg>
