<svg width="24" height="24" viewBox="0 0 24 24" fill="none" xmlns="http://www.w3.org/2000/svg">
<path d="M11.9998 19.9995C16.4179 19.9995 19.9995 16.4179 19.9995 11.9998C19.9995 7.58161 16.4179 4 11.9998 4C7.58161 4 4 7.58161 4 11.9998C4 16.4179 7.58161 19.9995 11.9998 19.9995Z" stroke="currentColor" stroke-width="0.99997" stroke-linecap="round" stroke-linejoin="round"></path>
<path d="M11.9999 12C12.6962 13.2335 13.7451 14.2309 15.012 14.8643C16.279 15.4978 17.7062 15.7384 19.1108 15.5554M8 13.3333C8.72652 14.8152 9.78701 16.1083 11.098 17.1109C12.4091 18.1134 13.9348 18.798 15.5553 19.1109" stroke="currentColor" stroke-width="0.99997" stroke-linecap="round" stroke-linejoin="round"></path>
<path d="M12.0001 12.0001C10.5837 11.9865 9.19546 12.3961 8.01341 13.1766C6.83135 13.957 5.90932 15.0727 5.3655 16.3806M12.8453 7.86949C11.1987 7.75771 9.5486 8.02958 8.02486 8.66368C6.50112 9.29779 5.14531 10.2768 4.06412 11.5238" stroke="currentColor" stroke-width="0.99997" stroke-linecap="round" stroke-linejoin="round"></path>
<path d="M12.0001 11.9999C12.7201 10.7801 13.0594 9.37302 12.9746 7.95911C12.8897 6.54519 12.3845 5.18884 11.5237 4.06393M15.1547 14.7972C16.0748 13.4271 16.6644 11.8621 16.8771 10.2255C17.0898 8.58882 16.9199 6.92513 16.3806 5.36531" stroke="currentColor" stroke-width="0.99997" stroke-linecap="round" stroke-linejoin="round"></path>
</svg>
