<svg width="24" height="24" viewBox="0 0 24 24" fill="none" xmlns="http://www.w3.org/2000/svg">
<path fill-rule="evenodd" clip-rule="evenodd" d="M16.1929 13.8164C15.9646 13.7028 14.8452 13.1553 14.6368 13.079C14.4284 13.0036 14.2767 12.9662 14.1243 13.1934C13.9726 13.4191 13.5366 13.93 13.4041 14.081C13.2708 14.2327 13.1382 14.251 12.9107 14.1382C12.6831 14.0238 11.9491 13.7851 11.0795 13.0135C10.403 12.4126 9.94559 11.6707 9.81305 11.4435C9.6805 11.217 9.79849 11.0943 9.91265 10.9814C10.0153 10.88 10.1402 10.7168 10.2544 10.5849C10.3685 10.4522 10.4061 10.3577 10.4819 10.206C10.5585 10.055 10.5202 9.92307 10.4628 9.80945C10.4061 9.69584 9.95096 8.58031 9.76095 8.12662C9.5763 7.68513 9.38859 7.74537 9.24914 7.73775C9.11583 7.73165 8.96413 7.73012 8.81243 7.73012C8.66073 7.73012 8.41402 7.78655 8.20562 8.01377C7.99646 8.24023 7.40881 8.78847 7.40881 9.904C7.40881 11.0188 8.22401 12.0962 8.33817 12.2479C8.45233 12.3989 9.94329 14.6879 12.2272 15.6693C12.7712 15.9026 13.1949 16.0421 13.5251 16.1458C14.0706 16.3189 14.5671 16.2945 14.9594 16.2358C15.3961 16.171 16.3063 15.6876 16.4963 15.1584C16.6856 14.6292 16.6856 14.1755 16.6289 14.081C16.5722 13.9864 16.4205 13.93 16.1922 13.8164H16.1929ZM12.0388 19.4612H12.0357C10.6791 19.4614 9.3475 19.0985 8.18034 18.4104L7.90452 18.2473L5.03751 18.996L5.80291 16.2144L5.62286 15.9293C4.86446 14.7278 4.46311 13.3374 4.46518 11.9185C4.46672 7.76291 7.86391 4.38199 12.0418 4.38199C14.0645 4.38199 15.9662 5.16736 17.3958 6.59171C18.101 7.2906 18.6599 8.12171 19.0402 9.03696C19.4206 9.95222 19.6148 10.9334 19.6116 11.9239C19.6101 16.0795 16.2129 19.4612 12.0388 19.4612ZM18.4838 5.50972C17.6396 4.66405 16.6352 3.99352 15.5287 3.53699C14.4223 3.08045 13.2358 2.84699 12.038 2.85013C7.01653 2.85013 2.92825 6.91806 2.92671 11.9178C2.92595 13.516 3.34504 15.076 4.14263 16.4508L2.8501 21.1501L7.68003 19.8889C9.01613 20.6134 10.5134 20.993 12.0349 20.993H12.0388C17.0602 20.993 21.1485 16.9251 21.1501 11.9246C21.1538 10.733 20.92 9.55257 20.4624 8.45147C20.0047 7.35037 19.3322 6.35051 18.4838 5.50972Z" fill="currentColor"></path>
</svg>
