<svg width="24" height="24" viewBox="0 0 24 24" fill="none" xmlns="http://www.w3.org/2000/svg">
<g clip-path="url(#clip0_575_299123)">
<path d="M12.7006 14.7205H11.2338C11.2338 12.0271 12.0507 9.33835 13.858 7.37019C14.1412 6.98472 14.3084 6.5088 14.3084 5.9938C14.3084 4.70857 13.2666 3.66669 11.9813 3.66669C10.6961 3.66669 9.65422 4.70857 9.65422 5.9938C9.65422 6.62789 9.90785 7.20276 10.3192 7.62248C8.8655 8.6588 6.16356 11.4366 6.16356 14.9144C6.16356 18.4241 8.91529 19.845 10.3588 20.1367L5 21.0848V23.835L18.9627 23.835V21.0848L13.4767 20.1226C14.9366 19.8013 17.6052 18.3707 17.6052 14.9144C17.6052 12.6513 16.5509 10.6339 15.2675 9.16713C13.858 10.2672 12.7006 12.8341 12.7006 14.7205Z" fill="currentColor"/>
</g>
<defs>
<clipPath id="clip0_575_299123">
<rect width="24" height="24" fill="white"/>
</clipPath>
</defs>
</svg>
