<svg width="24" height="24" viewBox="0 0 24 24" fill="none" xmlns="http://www.w3.org/2000/svg">
<g clip-path="url(#clip0_575_299131)">
<path fill-rule="evenodd" clip-rule="evenodd" d="M10.7418 2.66669H12.9417L12.999 4.49995H15.1416V6.69986H13.0677L13.1685 9.19052C13.2087 9.14316 13.2501 9.09673 13.2928 9.05138C15.2958 6.92245 18.2657 5.78954 20.4581 7.61649C22.658 9.44975 22.658 13.6663 19.629 16.1049C17.9131 17.4863 16.3763 18.818 16.452 20.7658L19.5339 21.1826V23.9325H4.14958V21.1826L7.23151 20.7658C7.30724 18.818 5.77036 17.4863 4.05452 16.1049C1.02551 13.6663 1.02551 9.44975 3.22542 7.61649C5.41776 5.78954 8.38766 6.92245 10.3907 9.05138C10.4334 9.09673 10.4748 9.14316 10.515 9.19052L10.6158 6.69986H8.54188V4.49995H10.6845L10.7418 2.66669ZM8.66948 11.0898C10.0139 13.2919 10.1918 15.8662 10.1918 16.9856C9.51796 16.9868 6.97768 15.8693 5.63273 14.0346C4.66446 12.7138 4.41198 10.7541 5.24201 9.99331C6.07203 9.23252 7.82923 9.71353 8.66948 11.0898ZM15.014 11.0898C13.6696 13.2919 13.4917 15.8662 13.4917 16.9856C14.1655 16.9868 16.7058 15.8693 18.0508 14.0346C19.019 12.7138 19.2715 10.7541 18.4415 9.99331C17.6115 9.23252 15.8543 9.71353 15.014 11.0898Z" fill="currentColor"/>
</g>
<defs>
<clipPath id="clip0_575_299131">
<rect width="24" height="24" fill="white"/>
</clipPath>
</defs>
</svg>
