<svg width="24" height="24" viewBox="0 0 24 24" fill="none" xmlns="http://www.w3.org/2000/svg">
<g clip-path="url(#clip0_575_299117)">
<path d="M15.6683 8.63175C15.6683 9.68506 15.2198 10.6336 14.5035 11.297L16.3492 12.5998V14.9873H14.5423C14.6295 16.094 15.3395 17.2015 16.2583 18.1675C17.2334 19.1928 18.4065 20.0196 19.1856 20.4648L19.3 20.5302V24.0667H5V20.5302L5.11437 20.4648C5.89346 20.0196 7.0666 19.1928 8.04168 18.1675C8.96048 17.2015 9.67053 16.094 9.75766 14.9873H7.95079V12.5998L9.66975 11.3865C8.89525 10.7204 8.40476 9.73337 8.40476 8.63175C8.40476 6.62599 10.0308 5 12.0365 5C14.0423 5 15.6683 6.62599 15.6683 8.63175Z" fill="currentColor"/>
</g>
<defs>
<clipPath id="clip0_575_299117">
<rect width="24" height="24" fill="white"/>
</clipPath>
</defs>
</svg>
