<svg width="24" height="24" viewBox="0 0 24 24" fill="none" xmlns="http://www.w3.org/2000/svg">
<g clip-path="url(#clip0_575_299127)">
<path fill-rule="evenodd" clip-rule="evenodd" d="M14.1504 6.86372L10.8377 3C10.3582 3.91036 9.89333 5.51707 10.5617 6.67695C10.2373 6.70584 9.92728 6.76071 9.68748 6.85694C8.15757 7.4709 6.47889 9.05712 5.65382 12.3574C5.41492 13.313 4.98493 13.7706 4.47387 14.3145C3.9918 14.8276 3.43759 15.4174 2.9036 16.5744C1.80352 18.9579 4.7724 21.3414 6.93726 19.1766C8.15437 17.9595 9.21824 17.457 10.1114 17.0352C11.397 16.428 12.329 15.9878 12.8555 13.8242C13.106 14.8334 13.0058 17.2153 10.6012 18.6686C8.19665 20.1219 7.6957 23.1833 7.7458 24.0916H21.4217C21.4217 15.4681 20.28 8.01746 14.1504 6.86372Z" fill="currentColor"/>
</g>
<defs>
<clipPath id="clip0_575_299127">
<rect width="24" height="24" fill="white"/>
</clipPath>
</defs>
</svg>
