<svg width="24" height="24" viewBox="0 0 24 24" fill="none" xmlns="http://www.w3.org/2000/svg">
<g clip-path="url(#clip0_575_299135)">
<path d="M9.39151 6.54501C10.0789 6.28055 10.5667 5.61391 10.5667 4.83333C10.5667 3.82081 9.74594 3 8.73341 3C7.72089 3 6.90008 3.82081 6.90008 4.83333C6.90008 5.76901 7.60103 6.54098 8.50647 6.65276L7.68888 13.2667L3.74755 9.84349C4.10794 9.50871 4.33341 9.03069 4.33341 8.5C4.33341 7.48748 3.5126 6.66667 2.50008 6.66667C1.48756 6.66667 0.666748 7.48748 0.666748 8.5C0.666748 9.51253 1.48756 10.3333 2.50008 10.3333C2.67832 10.3333 2.85062 10.3079 3.01355 10.2605L5.06675 17.3L7.18998 20.7744L5.06675 21.15V23.9L19.0283 23.9V21.15L16.8778 20.7728L19.0001 17.3L21.0533 10.2605C21.2162 10.3079 21.3885 10.3333 21.5667 10.3333C22.5793 10.3333 23.4001 9.51253 23.4001 8.5C23.4001 7.48748 22.5793 6.66667 21.5667 6.66667C20.5542 6.66667 19.7334 7.48748 19.7334 8.5C19.7334 9.03069 19.9589 9.50871 20.3193 9.84349L16.3779 13.2667L15.5604 6.65276C16.4658 6.54098 17.1667 5.76901 17.1667 4.83333C17.1667 3.82081 16.3459 3 15.3334 3C14.3209 3 13.5001 3.82081 13.5001 4.83333C13.5001 5.61391 13.9879 6.28055 14.6753 6.54501L12.0334 12.5333L9.39151 6.54501Z" fill="currentColor"/>
</g>
<defs>
<clipPath id="clip0_575_299135">
<rect width="24" height="24" fill="white"/>
</clipPath>
</defs>
</svg>
