<svg width="24" height="24" viewBox="0 0 24 24" fill="none" xmlns="http://www.w3.org/2000/svg">
<path d="M18.2599 2.87884C18.3269 2.47011 18.7125 2.19284 19.1213 2.2597C19.53 2.32663 19.8073 2.7123 19.7404 3.12103L19.1574 6.68353C19.0981 7.04603 18.7845 7.31228 18.4172 7.31244H16.3361L17.3674 16.7656L18.6955 17.4413L18.8127 17.5058C19.0801 17.6664 19.3046 17.8909 19.467 18.1581C19.6524 18.4634 19.75 18.814 19.7502 19.1708V21.9999C19.7502 22.4142 19.4144 22.7499 19.0002 22.7499H5.00018C4.58597 22.7499 4.25018 22.4142 4.25018 21.9999V19.1708L4.25507 19.037C4.27648 18.7269 4.37123 18.4251 4.53339 18.1581C4.71895 17.8528 4.98579 17.6037 5.30487 17.4413L6.63202 16.7656L7.66424 7.31244H5.58319C5.21589 7.31228 4.90231 7.04603 4.84296 6.68353L4.25995 3.12103C4.19308 2.7123 4.47036 2.32663 4.87909 2.2597C5.28782 2.19284 5.67349 2.47011 5.74042 2.87884L6.22089 5.81244H8.91717V2.99994C8.91717 2.58572 9.25296 2.24994 9.66717 2.24994C10.0812 2.25011 10.4172 2.58583 10.4172 2.99994V5.81244H13.5832V2.99994C13.5832 2.58583 13.9191 2.25011 14.3332 2.24994C14.7474 2.24994 15.0832 2.58572 15.0832 2.99994V5.81244H17.7795L18.2599 2.87884ZM5.98553 18.7783C5.91735 18.8129 5.85785 18.8671 5.81561 18.9365C5.7733 19.0061 5.75023 19.0879 5.75018 19.1718V21.2499H18.2502V19.1718L18.2463 19.1093C18.2378 19.0477 18.2165 18.9887 18.1848 18.9365C18.1531 18.8844 18.112 18.8407 18.0646 18.8076L18.0148 18.7783L16.4875 17.9999H7.51288L5.98553 18.7783ZM8.1701 16.4999H15.8303L14.8283 7.31244H9.17206L8.1701 16.4999Z" fill="currentColor"/>
</svg>
