<svg width="24" height="24" viewBox="0 0 24 24" fill="none" xmlns="http://www.w3.org/2000/svg">
<path d="M18.25 19.3184L18.2451 19.251C18.2347 19.1844 18.2089 19.1209 18.1699 19.0664C18.118 18.9939 18.0448 18.9406 17.9629 18.9131L15.377 18.0439H8.62305L6.03711 18.9131C5.95512 18.9406 5.88198 18.9938 5.83008 19.0664C5.77816 19.139 5.75004 19.2274 5.75 19.3184V20.8232C5.75 20.9382 5.79536 21.0475 5.87402 21.127C5.95265 21.2062 6.05852 21.25 6.16699 21.25H17.833C17.9415 21.25 18.0473 21.2062 18.126 21.127C18.2046 21.0475 18.25 20.9382 18.25 20.8232V19.3184ZM9.42578 16.5439H14.5742L13.1426 9.80859H10.8574L9.42578 16.5439ZM14.75 5.5293C14.75 4.79018 14.4588 4.08226 13.9424 3.56152C13.4262 3.04105 12.7272 2.75 12 2.75C11.2728 2.75 10.5738 3.04105 10.0576 3.56152C9.54122 4.08226 9.25003 4.79018 9.25 5.5293C9.25 6.06108 9.3949 6.68198 9.6582 7.23438C9.88654 7.71331 10.1769 8.08387 10.4756 8.30859H13.5244C13.8231 8.08387 14.1135 7.71331 14.3418 7.23438C14.6051 6.68198 14.75 6.06108 14.75 5.5293ZM16.25 5.5293C16.25 6.30687 16.0445 7.14634 15.6953 7.87891C15.6261 8.02417 15.5484 8.1677 15.4648 8.30859H16.667C17.081 8.30877 17.4169 8.64459 17.417 9.05859C17.417 9.4727 17.0811 9.80842 16.667 9.80859H14.6758L16.1436 16.7188L18.4414 17.4912C18.8236 17.6197 19.1552 17.8658 19.3896 18.1934C19.6241 18.521 19.7497 18.9147 19.75 19.3174V20.8232C19.75 21.3322 19.5492 21.8218 19.1904 22.1836C18.8315 22.5454 18.3433 22.75 17.833 22.75H6.16699C5.65674 22.75 5.1685 22.5454 4.80957 22.1836C4.45083 21.8218 4.25 21.3322 4.25 20.8232V19.3184C4.25004 18.9156 4.37599 18.5222 4.61035 18.1943C4.84479 17.8665 5.17612 17.6198 5.55859 17.4912L7.85547 16.7188L9.32422 9.80859H7.33301C6.91894 9.80842 6.58301 9.4727 6.58301 9.05859C6.58313 8.64459 6.91902 8.30877 7.33301 8.30859H8.53516C8.4516 8.1677 8.37393 8.02417 8.30469 7.87891C7.95553 7.14634 7.75 6.30687 7.75 5.5293C7.75003 4.39653 8.19608 3.30882 8.99219 2.50586C9.78872 1.70263 10.8708 1.25 12 1.25C13.1292 1.25 14.2113 1.70263 15.0078 2.50586C15.8039 3.30882 16.25 4.39653 16.25 5.5293Z" fill="currentColor"/>
</svg>
