<svg width="24" height="24" viewBox="0 0 24 24" fill="none" xmlns="http://www.w3.org/2000/svg">
<path d="M18.25 5C18.25 4.30964 17.6904 3.75 17 3.75H7C6.30964 3.75 5.75 4.30964 5.75 5V19.7861L11.665 16.8291L11.7451 16.7949C11.937 16.7255 12.1502 16.7368 12.335 16.8291L18.25 19.7861V5ZM19.75 21C19.75 21.2598 19.6155 21.501 19.3945 21.6377C19.1735 21.7743 18.8974 21.7869 18.665 21.6709L12 18.3379L5.33496 21.6709C5.10255 21.7869 4.82646 21.7743 4.60547 21.6377C4.38453 21.501 4.25 21.2598 4.25 21V5C4.25 3.48122 5.48122 2.25 7 2.25H17C18.5188 2.25 19.75 3.48122 19.75 5V21Z" fill="currentColor"/>
</svg>
