<svg width="24" height="24" viewBox="0 0 24 24" fill="none" xmlns="http://www.w3.org/2000/svg">
<path d="M3.25 17V7C3.25 4.92893 4.92893 3.25 7 3.25H9.33301C9.74722 3.25 10.083 3.58579 10.083 4C10.083 4.41421 9.74722 4.75 9.33301 4.75H7C5.75736 4.75 4.75 5.75736 4.75 7V17C4.75 18.2426 5.75736 19.25 7 19.25H9.33301C9.74722 19.25 10.083 19.5858 10.083 20C10.083 20.4142 9.74722 20.75 9.33301 20.75H7C4.92893 20.75 3.25 19.0711 3.25 17ZM15.0254 7.02539C15.3183 6.7325 15.793 6.7325 16.0859 7.02539L20.5303 11.4697C20.6709 11.6104 20.75 11.8011 20.75 12C20.75 12.1989 20.6709 12.3896 20.5303 12.5303L16.0859 16.9746C15.793 17.2675 15.3183 17.2675 15.0254 16.9746C14.7325 16.6817 14.7325 16.207 15.0254 15.9141L18.1895 12.75H10.333C9.91894 12.7498 9.58301 12.4141 9.58301 12C9.58301 11.5859 9.91894 11.2502 10.333 11.25H18.1895L15.0254 8.08594C14.7325 7.79304 14.7325 7.31828 15.0254 7.02539Z" fill="currentColor"/>
</svg>
