<svg width="24" height="24" viewBox="0 0 24 24" fill="none" xmlns="http://www.w3.org/2000/svg">
<path d="M9.25 16C9.24999 15.3096 8.69035 14.75 8 14.75H6C5.30966 14.75 4.75001 15.3097 4.75 16V18C4.75 18.6903 5.30966 19.25 6 19.25H8C8.69036 19.25 9.25 18.6904 9.25 18V16ZM19.25 16C19.25 15.3096 18.6904 14.75 18 14.75H16C15.3097 14.75 14.75 15.3097 14.75 16V18C14.75 18.6903 15.3097 19.25 16 19.25H18C18.6904 19.25 19.25 18.6904 19.25 18V16ZM9.25 6C9.24999 5.30965 8.69035 4.75 8 4.75H6C5.30965 4.75 4.75001 5.30965 4.75 6V8C4.75 8.69036 5.30964 9.25 6 9.25H8C8.69036 9.25 9.25 8.69036 9.25 8V6ZM19.25 6C19.25 5.30964 18.6904 4.75 18 4.75H16C15.3097 4.75001 14.75 5.30965 14.75 6V8C14.75 8.69035 15.3097 9.24999 16 9.25H18C18.6904 9.25 19.25 8.69036 19.25 8V6ZM10.75 18C10.75 19.5188 9.51878 20.75 8 20.75H6C4.48123 20.75 3.25 19.5188 3.25 18V16C3.25001 14.4812 4.48123 13.25 6 13.25H8C9.51878 13.25 10.75 14.4812 10.75 16V18ZM20.75 18C20.75 19.5188 19.5188 20.75 18 20.75H16C14.4812 20.75 13.25 19.5188 13.25 18V16C13.25 14.4812 14.4812 13.25 16 13.25H18C19.5188 13.25 20.75 14.4812 20.75 16V18ZM10.75 8C10.75 9.51878 9.51878 10.75 8 10.75H6C4.48121 10.75 3.24999 9.51879 3.25 8V6C3.25001 4.48122 4.48122 3.25 6 3.25H8C9.51878 3.25 10.75 4.48122 10.75 6V8ZM20.75 8C20.75 9.51879 19.5188 10.75 18 10.75H16C14.4812 10.75 13.25 9.51878 13.25 8V6C13.25 4.48122 14.4812 3.25001 16 3.25H18C19.5188 3.25 20.75 4.48122 20.75 6V8Z" fill="currentColor"/>
</svg>
