<svg width="24" height="24" viewBox="0 0 24 24" fill="none" xmlns="http://www.w3.org/2000/svg">
<path d="M11.999 1.34961C12.4131 1.34961 12.7488 1.68558 12.749 2.09961V4.65039H18.4521C18.8664 4.65039 19.2021 4.98618 19.2021 5.40039C19.2021 5.8146 18.8664 6.15039 18.4521 6.15039H12.749V9H15.8975C16.3117 9 16.6475 9.33579 16.6475 9.75C16.6475 10.1642 16.3117 10.5 15.8975 10.5H12.749V13.3496H20.3975C20.8117 13.3496 21.1475 13.6854 21.1475 14.0996C21.1475 14.5138 20.8117 14.8496 20.3975 14.8496H12.749V17.7002H17.5459C17.9601 17.7002 18.2959 18.036 18.2959 18.4502C18.2959 18.8644 17.9601 19.2002 17.5459 19.2002H12.749V21.75C12.749 22.1642 12.4132 22.5 11.999 22.5C11.5848 22.5 11.249 22.1642 11.249 21.75V19.2002H6.44629C6.03208 19.2002 5.69629 18.8644 5.69629 18.4502C5.69629 18.036 6.03208 17.7002 6.44629 17.7002H11.249V14.8496H3.59766C3.18344 14.8496 2.84766 14.5138 2.84766 14.0996C2.84766 13.6854 3.18344 13.3496 3.59766 13.3496H11.249V10.5H8.09766C7.68344 10.5 7.34766 10.1642 7.34766 9.75C7.34766 9.33579 7.68344 9 8.09766 9H11.249V6.15039H5.55176C5.13772 6.15018 4.80176 5.81447 4.80176 5.40039C4.80176 4.98631 5.13772 4.6506 5.55176 4.65039H11.249V2.09961C11.2492 1.68558 11.5849 1.34961 11.999 1.34961Z" fill="currentColor"/>
</svg>
