<svg width="24" height="19" viewBox="0 0 24 19" fill="none" xmlns="http://www.w3.org/2000/svg">
<g clip-path="url(#clip0_528_251510)">
<path d="M2.31445 11.3867H8.61328C9.34896 11.3867 9.92187 11.1865 10.332 10.7861C10.7422 10.3857 10.9473 9.82093 10.9473 9.0918V2.79297C10.9473 2.0638 10.7422 1.49902 10.332 1.09863C9.92187 0.698241 9.34896 0.498047 8.61328 0.498047H2.31445C1.58528 0.498047 1.01725 0.698241 0.610352 1.09863C0.203451 1.49902 0 2.0638 0 2.79297V9.0918C0 9.82747 0.203451 10.3939 0.610352 10.791C1.01725 11.1881 1.58528 11.3867 2.31445 11.3867ZM15.0098 11.5137H21.4355C22.1972 11.5137 22.7864 11.3086 23.2031 10.8984C23.6198 10.4883 23.8281 9.91211 23.8281 9.16992V2.72461C23.8281 1.97591 23.6198 1.39648 23.2031 0.986328C22.7864 0.576172 22.1972 0.371094 21.4355 0.371094H15.0098C14.2546 0.371094 13.6687 0.576172 13.252 0.986328C12.8353 1.39648 12.627 1.97591 12.627 2.72461V9.16992C12.627 9.91211 12.8353 10.4883 13.252 10.8984C13.6687 11.3086 14.2546 11.5137 15.0098 11.5137ZM15.0293 9.9707C14.7428 9.9707 14.528 9.89909 14.3848 9.75586C14.2415 9.61263 14.1699 9.39453 14.1699 9.10156V2.7832C14.1699 2.49023 14.2415 2.27214 14.3848 2.12891C14.528 1.98568 14.7428 1.91406 15.0293 1.91406H21.416C21.7155 1.91406 21.9352 1.98568 22.0752 2.12891C22.2152 2.27214 22.2852 2.49023 22.2852 2.7832V9.10156C22.2852 9.39453 22.2152 9.61263 22.0752 9.75586C21.9352 9.89909 21.7155 9.9707 21.416 9.9707H15.0293ZM0.742188 15.0391C0.546875 15.0391 0.374349 15.1156 0.224609 15.2686C0.0748697 15.4215 0 15.6054 0 15.8203C0 16.0416 0.0748697 16.2288 0.224609 16.3818C0.374349 16.5348 0.546875 16.6113 0.742188 16.6113H3.89648V15.0391H0.742188ZM5.5957 18.1738C6.02539 18.1738 6.41764 18.068 6.77246 17.8564C7.12728 17.6449 7.41048 17.3617 7.62207 17.0068C7.83366 16.652 7.93945 16.2598 7.93945 15.8301C7.93945 15.4004 7.83366 15.0065 7.62207 14.6484C7.41048 14.2903 7.12728 14.0055 6.77246 13.7939C6.41764 13.5824 6.02539 13.4766 5.5957 13.4766C5.16601 13.4766 4.77376 13.5824 4.41895 13.7939C4.06413 14.0055 3.78093 14.2903 3.56934 14.6484C3.35775 15.0065 3.25195 15.4004 3.25195 15.8301C3.25195 16.2598 3.35775 16.652 3.56934 17.0068C3.78093 17.3617 4.06413 17.6449 4.41895 17.8564C4.77376 18.068 5.16601 18.1738 5.5957 18.1738ZM5.5957 16.9727C5.27018 16.9727 4.99837 16.8604 4.78027 16.6357C4.56217 16.4111 4.45312 16.1393 4.45312 15.8203C4.45312 15.5013 4.56217 15.2311 4.78027 15.0098C4.99837 14.7884 5.27018 14.6777 5.5957 14.6777C5.91471 14.6777 6.1849 14.7884 6.40625 15.0098C6.6276 15.2311 6.73828 15.5013 6.73828 15.8203C6.73828 16.1393 6.6276 16.4111 6.40625 16.6357C6.1849 16.8604 5.91471 16.9727 5.5957 16.9727ZM7.14844 15.0391V16.6113H23.0371C23.2584 16.6113 23.4456 16.5348 23.5986 16.3818C23.7516 16.2288 23.8281 16.0416 23.8281 15.8203C23.8281 15.6054 23.7516 15.4215 23.5986 15.2686C23.4456 15.1156 23.2584 15.0391 23.0371 15.0391H7.14844Z" fill="currentColor"/>
</g>
<defs>
<clipPath id="clip0_528_251510">
<rect width="23.8281" height="18.1738" fill="currentColor"/>
</clipPath>
</defs>
</svg>
