<svg width="16" height="16" viewBox="0 0 16 16" fill="none" xmlns="http://www.w3.org/2000/svg">
<path d="M10.583 6.66699C10.583 4.50399 8.82996 2.75018 6.66699 2.75C4.50388 2.75 2.75 4.50388 2.75 6.66699C2.75018 8.82996 4.50399 10.583 6.66699 10.583C8.82985 10.5828 10.5828 8.82985 10.583 6.66699ZM12.083 6.66699C12.0829 7.89213 11.6751 9.02127 10.9893 9.92871L14.5303 13.4697C14.8232 13.7626 14.8232 14.2374 14.5303 14.5303C14.2374 14.8232 13.7626 14.8232 13.4697 14.5303L9.92871 10.9893C9.02127 11.6751 7.89213 12.0829 6.66699 12.083C3.67556 12.083 1.25018 9.65839 1.25 6.66699C1.25 3.67545 3.67545 1.25 6.66699 1.25C9.65839 1.25018 12.083 3.67556 12.083 6.66699Z" fill="currentColor"/>
</svg>
