<svg width="24" height="24" viewBox="0 0 24 24" fill="none" xmlns="http://www.w3.org/2000/svg">
<path d="M21.5612 7.22396C21.3419 6.34896 20.6472 5.65625 19.8062 5.4375C18.234 5 12.0183 5 12.0183 5C12.0183 5 5.766 5 4.19378 5.4375C3.35283 5.65625 2.65814 6.34896 2.43876 7.22396C2 8.75521 2 12.0365 2 12.0365C2 12.0365 2 15.2812 2.43876 16.849C2.65814 17.724 3.35283 18.3802 4.19378 18.599C5.766 19 12.0183 19 12.0183 19C12.0183 19 18.234 19 19.8062 18.599C20.6472 18.3802 21.3419 17.724 21.5612 16.849C22 15.2812 22 12.0365 22 12.0365C22 12.0365 22 8.75521 21.5612 7.22396ZM9.97075 14.9896V9.08333L15.1627 12.0365L9.97075 14.9896Z" fill="currentColor"/>
</svg>
