<svg width="24" height="24" viewBox="0 0 24 24" fill="none" xmlns="http://www.w3.org/2000/svg">
<path d="M19.8571 2H4.14286C2.9375 2 2 2.98214 2 4.14286V19.8571C2 21.0625 2.9375 22 4.14286 22H10.2589V15.2143H7.44643V12H10.2589V9.58929C10.2589 6.82143 11.9107 5.25893 14.4107 5.25893C15.6607 5.25893 16.9107 5.48214 16.9107 5.48214V8.20536H15.5268C14.1429 8.20536 13.6964 9.05357 13.6964 9.94643V12H16.7768L16.2857 15.2143H13.6964V22H19.8571C21.0179 22 22 21.0625 22 19.8571V4.14286C22 2.98214 21.0179 2 19.8571 2Z" fill="currentColor"/>
</svg>
