<svg width="24" height="24" viewBox="0 0 24 24" fill="none" xmlns="http://www.w3.org/2000/svg">
<path d="M12.5243 2.1831C13.6153 2.1665 14.7 2.17634 15.7835 2.1665C15.8492 3.42094 16.3081 4.69872 17.2421 5.58561C18.1743 6.49463 19.4929 6.91073 20.7758 7.05147V10.3513C19.5735 10.3126 18.3656 10.0668 17.2746 9.55788C16.7995 9.34645 16.3568 9.07418 15.9236 8.79575C15.9179 11.1903 15.9336 13.5818 15.9079 15.9665C15.8429 17.1121 15.4584 18.2522 14.7807 19.1963C13.6903 20.7679 11.7978 21.7924 9.85404 21.8244C8.66177 21.8914 7.47076 21.5718 6.45479 20.983C4.77111 20.007 3.58635 18.2203 3.41379 16.3027C3.39205 15.8966 3.38872 15.4897 3.40378 15.0833C3.55383 13.524 4.33847 12.0323 5.55637 11.0176C6.93683 9.83568 8.87059 9.2727 10.6812 9.60582C10.6981 10.8197 10.6487 12.0323 10.6487 13.2462C9.82153 12.9831 8.85496 13.0569 8.13222 13.5504C7.60345 13.8929 7.20386 14.3967 6.99497 14.9843C6.82242 15.3998 6.87181 15.8614 6.88181 16.3027C7.08 17.6475 8.39544 18.7777 9.79965 18.6554C10.7306 18.6456 11.6228 18.1146 12.1079 17.3371C12.2648 17.0648 12.4405 16.7864 12.4499 16.4662C12.5318 15.0003 12.4993 13.5406 12.5093 12.0747C12.5162 8.77117 12.4993 5.47683 12.5249 2.18371L12.5243 2.1831Z" fill="currentColor"/>
</svg>
