<svg width="24" height="24" viewBox="0 0 24 24" fill="none" xmlns="http://www.w3.org/2000/svg">
<path fill-rule="evenodd" clip-rule="evenodd" d="M20.8836 7.33538H15.0576V5.63578H20.8836V7.33538ZM20.3703 8.76214C19.6693 8.44639 18.8815 8.28786 18.0058 8.28786C16.5325 8.28786 15.336 8.75694 14.4111 9.6886C13.4889 10.6229 13.0271 11.9651 13.0271 13.7154C13.0271 15.5813 13.5367 16.9301 14.5625 17.7578C15.583 18.5868 16.764 19 18.1028 19C19.7236 19 20.9848 18.5088 21.8851 17.5278C22.462 16.9093 22.7879 16.2999 22.8591 15.7022H20.175C20.0198 15.9984 19.8387 16.2297 19.633 16.3973C19.2592 16.7053 18.7716 16.8599 18.1753 16.8599C17.6087 16.8599 17.1262 16.7326 16.7252 16.4792C16.0629 16.0725 15.7163 15.3617 15.6723 14.3495H22.9975C23.0091 13.4776 22.9807 12.8071 22.9095 12.3445C22.7879 11.5532 22.5215 10.8568 22.1062 10.2564C21.6509 9.57556 21.0727 9.07659 20.3703 8.76214ZM7.56976 5C9.22804 5.02469 10.4013 5.50936 11.0933 6.45531C11.5085 7.03614 11.7168 7.73001 11.7168 8.53953C11.7168 9.37243 11.5085 10.0442 11.0881 10.551C10.8527 10.8342 10.5073 11.0941 10.0507 11.328C10.744 11.5827 11.2666 11.9842 11.6223 12.5338C11.9742 13.0822 12.1514 13.7501 12.1514 14.5349C12.1514 15.3444 11.9496 16.0708 11.5447 16.7127C11.2886 17.1376 10.9678 17.4962 10.5824 17.7873C10.149 18.1212 9.63809 18.3486 9.04695 18.4733C8.45581 18.5968 7.81682 18.6565 7.12608 18.6565H1V5H7.56976ZM3.70947 7.37094H6.66903C7.31966 7.37094 7.85518 7.4424 8.27687 7.58404C8.76323 7.78934 9.00641 8.20904 9.00641 8.84704C9.00641 9.41877 8.82143 9.81898 8.45408 10.0451C8.08413 10.2712 7.60424 10.3842 7.01569 10.3842H3.70947V7.37094ZM16.4376 11.0447C16.8089 10.6601 17.334 10.4678 18.0067 10.4678C18.6275 10.4678 19.1462 10.6484 19.5679 11.011C19.9844 11.3761 20.2199 11.9062 20.2677 12.6079H15.7365C15.8323 11.9504 16.0664 11.4294 16.4376 11.0447ZM7.05708 12.6443H3.70947V16.2865H7.01052C7.60036 16.2865 8.06085 16.206 8.38811 16.0461C8.98442 15.7473 9.28193 15.1807 9.28193 14.3413C9.28193 13.6293 8.99477 13.142 8.41656 12.8756C8.09319 12.7275 7.63916 12.6495 7.05708 12.6443Z" fill="currentColor"/>
</svg>
