<svg width="24" height="24" viewBox="0 0 24 24" fill="none" xmlns="http://www.w3.org/2000/svg">
<path d="M11.9961 1.99927C14.7101 1.99927 15.0519 2.01128 16.123 2.05493C17.1905 2.10256 17.9169 2.27371 18.5518 2.51978C19.2065 2.77776 19.7658 3.1194 20.3213 3.67505C20.8768 4.23065 21.2226 4.78583 21.4766 5.44458C21.7226 6.08362 21.8928 6.81053 21.9404 7.87427C21.988 8.94184 22 9.27955 22 11.9983C22 14.717 21.988 15.0546 21.9404 16.1223C21.8928 17.1898 21.7225 17.9161 21.4766 18.551C21.2186 19.2059 20.8768 19.7658 20.3213 20.3215C19.7658 20.877 19.2104 21.2228 18.5518 21.4768C17.9129 21.7228 17.1864 21.8931 16.123 21.9407C15.0558 21.9883 14.718 22.0002 12 22.0002C9.28204 22.0002 8.94437 21.9883 7.87695 21.9407C6.81 21.893 6.08394 21.7228 5.44922 21.4768C4.79446 21.2188 4.23427 20.8772 3.67871 20.3215C3.12317 19.7659 2.77838 19.2099 2.52441 18.551C2.27841 17.912 2.10721 17.1859 2.05957 16.1223C2.01195 15.0546 2 14.713 2 11.9983C2 9.28349 2.01196 8.9418 2.05957 7.87817C2.10719 6.81047 2.27838 6.08355 2.52441 5.44849C2.78229 4.79387 3.12343 4.23443 3.67871 3.67896C4.23427 3.12327 4.79049 2.77771 5.44922 2.52368C6.08399 2.2777 6.80993 2.10648 7.87305 2.05884C8.94047 2.01121 9.28205 1.99927 11.9961 1.99927ZM11.9961 6.86646C9.16293 6.86658 6.86143 9.1644 6.86133 12.0022C6.86156 14.8399 9.15905 17.1388 11.9961 17.1389C14.8332 17.1389 17.1306 14.84 17.1309 12.0022C17.1308 9.16433 14.8333 6.86646 11.9961 6.86646ZM11.9961 8.66431C13.8373 8.66431 15.33 10.1567 15.3301 11.9983C15.3298 13.8398 13.8372 15.3323 11.9961 15.3323C10.1551 15.3321 8.66332 13.8397 8.66309 11.9983C8.66315 10.1567 10.155 8.66443 11.9961 8.66431ZM17.334 5.46118C16.6721 5.46118 16.1357 5.99838 16.1357 6.6604C16.1362 7.322 16.6724 7.85864 17.334 7.85864C17.9954 7.85851 18.5317 7.32192 18.5322 6.6604C18.5322 5.99846 17.9957 5.46131 17.334 5.46118Z" fill="currentColor"/>
</svg>
