<svg width="24" height="24" viewBox="0 0 24 24" fill="none" xmlns="http://www.w3.org/2000/svg">
<path d="M15.5 17.2941L13.75 9.05882C14.8 8.44941 15.5 6.83882 15.5 5.52941C15.5 4.59335 15.1313 3.69563 14.4749 3.03374C13.8185 2.37185 12.9283 2 12 2C11.0717 2 10.1815 2.37185 9.52513 3.03374C8.86875 3.69563 8.5 4.59335 8.5 5.52941C8.5 6.83882 9.2 8.44941 10.25 9.05882L8.5 17.2941M15.5 17.2941H8.5M15.5 17.2941L18.202 18.2024C18.4342 18.2803 18.6362 18.43 18.7794 18.6302C18.9227 18.8303 18.9998 19.0708 19 19.3176V20.8235C19 21.1355 18.8771 21.4348 18.6583 21.6554C18.4395 21.8761 18.1428 22 17.8333 22H6.16667C5.85725 22 5.5605 21.8761 5.34171 21.6554C5.12292 21.4348 5 21.1355 5 20.8235V19.3188C4.99994 19.0718 5.07699 18.831 5.22022 18.6306C5.36345 18.4303 5.56559 18.2804 5.798 18.2024L8.5 17.2941M7.33333 9.05882H16.6667" stroke="colorCurrent" stroke-width="1.5" stroke-linecap="round" stroke-linejoin="round"/>
</svg>
