<svg width="24" height="24" viewBox="0 0 24 24" fill="none" xmlns="http://www.w3.org/2000/svg">
<g clip-path="url(#clip0_575_299129)">
<path fill-rule="evenodd" clip-rule="evenodd" d="M13.7188 7.03324C13.6047 7.15747 13.495 7.28486 13.3895 7.41519C12.3929 8.64703 11.7793 10.1416 11.5042 11.7148C11.3893 12.3722 11.3334 13.0433 11.3334 13.7148H12.6667C12.6667 12.6383 13.0814 11.3179 13.7071 10.2368C13.9976 9.73482 14.3336 9.28439 14.6947 8.93386C14.7478 8.88238 14.8014 8.83306 14.8554 8.78604C14.9033 8.74441 14.9515 8.70459 15.0001 8.66669C15.2319 8.93166 15.4556 9.2164 15.6651 9.51873C15.839 9.76976 16.0033 10.0329 16.1544 10.307C16.7371 11.3636 17.1251 12.5821 17.1251 13.891C17.1251 15.2837 16.6485 16.3145 16.0022 17.0561C15.1905 17.9876 14.1111 18.4628 13.3723 18.6254L18.3591 19.5V22L5.66675 22V19.5L10.538 18.6383C9.80467 18.4901 8.69987 18.0213 7.86788 17.0796C7.21118 16.3363 6.72444 15.2984 6.72444 13.891C6.72444 11.7314 7.87058 9.86879 9.0182 8.60486C9.55056 8.01856 10.0832 7.56109 10.502 7.26258C10.3479 7.10539 10.2182 6.92426 10.1189 6.7253C9.97723 6.44132 9.89752 6.121 9.89752 5.78207C9.89752 4.61377 10.8446 3.66669 12.0129 3.66669C13.1812 3.66669 14.1283 4.61377 14.1283 5.78207C14.1283 6.25021 13.9762 6.68284 13.7188 7.03324ZM8.01526 6.76193C7.93837 6.44773 7.89752 6.11949 7.89752 5.78207C7.89752 3.5092 9.74003 1.66669 12.0129 1.66669C14.2858 1.66669 16.1283 3.5092 16.1283 5.78207C16.1283 6.17484 16.0728 6.55575 15.9694 6.91676C16.1667 7.02603 16.3486 7.17065 16.5052 7.34968C17.8857 8.92737 19.1251 11.2105 19.1251 13.891C19.1251 15.3374 18.756 16.507 18.1955 17.4408L18.7045 17.5301C19.6612 17.6979 20.3591 18.5287 20.3591 19.5V22C20.3591 22.5305 20.1483 23.0392 19.7733 23.4142C19.3982 23.7893 18.8895 24 18.3591 24L5.66675 24C4.56218 24 3.66675 23.1046 3.66675 22V19.5C3.66675 18.5299 4.36301 17.6996 5.31834 17.5306L5.66989 17.4684C5.10021 16.5302 4.72444 15.3519 4.72444 13.891C4.72444 11.7875 5.53888 9.97811 6.4646 8.61878C6.95102 7.90451 7.49099 7.28008 8.01526 6.76193Z" fill="currentColor"/>
</g>
<defs>
<clipPath id="clip0_575_299129">
<rect width="24" height="24" fill="white"/>
</clipPath>
</defs>
</svg>
