<svg width="24" height="24" viewBox="0 0 24 24" fill="none" xmlns="http://www.w3.org/2000/svg">
<path fill-rule="evenodd" clip-rule="evenodd" d="M9.99992 4.33331V6.33331H8.66659V4.33331H5.33325V7.33331L7.99992 9.33331L7.33325 15.3333H16.3333L15.6666 9.33331L18.3333 7.33331V4.33331H14.9999V6.33331H13.6666V4.33331H9.99992ZM14.3333 2.44712C14.5418 2.37342 14.7662 2.33331 14.9999 2.33331H18.3333C19.4378 2.33331 20.3333 3.22874 20.3333 4.33331V7.33331C20.3333 7.96283 20.0369 8.5556 19.5333 8.93331L17.7805 10.2479L18.321 15.1125C18.3505 15.3776 18.3263 15.6428 18.2533 15.8933L19.9333 18.1333C20.1929 18.4795 20.3333 18.9006 20.3333 19.3333V22C20.3333 23.1046 19.4378 24 18.3333 24H5.33325C4.22868 24 3.33325 23.1046 3.33325 22V19.3333C3.33325 18.9006 3.47361 18.4795 3.73325 18.1333L5.41325 15.8933C5.34017 15.6428 5.31602 15.3776 5.34548 15.1125L5.88599 10.2479L4.13325 8.93331C3.62964 8.5556 3.33325 7.96283 3.33325 7.33331V4.33331C3.33325 3.22874 4.22868 2.33331 5.33325 2.33331H8.66659C8.90034 2.33331 9.12473 2.37342 9.33325 2.44712C9.54177 2.37342 9.76616 2.33331 9.99992 2.33331H13.6666C13.9003 2.33331 14.1247 2.37342 14.3333 2.44712ZM5.33325 19.3333V22H18.3333V19.3333L16.3333 16.6666H7.33325L5.33325 19.3333Z" fill="currentColor"/>
</svg>
