<svg width="24" height="24" viewBox="0 0 24 24" fill="none" xmlns="http://www.w3.org/2000/svg">
<g clip-path="url(#clip0_575_299137)">
<path d="M10.8333 15.6497L10.8333 15.6844H10.8313C10.4992 15.6838 9.67511 15.3879 8.79477 14.8539C8.04337 14.3981 7.25098 13.7688 6.68853 13.0016C5.80826 11.8008 5.57872 10.0192 6.33332 9.32751C7.08792 8.63586 8.68544 9.07316 9.44933 10.3244C10.1004 11.3909 10.4506 12.5533 10.6356 13.5608C10.7941 14.4233 10.8316 15.1721 10.8333 15.6497Z" fill="currentColor"/>
<path d="M17.9781 13.0016C17.4157 13.7688 16.6233 14.3981 15.8719 14.8539C14.9915 15.3879 14.1674 15.6838 13.8353 15.6844H13.8333L13.8334 15.6497C13.8351 15.1721 13.8725 14.4233 14.031 13.5608C14.2161 12.5533 14.5662 11.3909 15.2173 10.3244C15.9812 9.07316 17.5787 8.63586 18.3333 9.32751C19.0879 10.0192 18.8584 11.8008 17.9781 13.0016Z" fill="currentColor"/>
<path fill-rule="evenodd" clip-rule="evenodd" d="M11.3333 0.666687C10.3452 0.666687 9.52033 1.3845 9.36107 2.33335H9.33332C8.22875 2.33335 7.33332 3.22878 7.33332 4.33335V4.36188C5.9421 4.23241 4.48551 4.57533 3.21962 5.63024C0.0705323 8.25448 0.452297 13.5857 3.99952 16.4416C4.4976 16.8426 4.90442 17.1821 5.23105 17.4966L5.07211 17.5181C4.08017 17.6522 3.34017 18.499 3.34017 19.5V22C3.34017 23.1046 4.2356 24 5.34017 24H19.3265C20.431 24 21.3265 23.1046 21.3265 22V19.5C21.3265 18.499 20.5865 17.6522 19.5945 17.5181L19.4356 17.4966C19.7622 17.1821 20.169 16.8426 20.6671 16.4416C24.2143 13.5857 24.5961 8.25448 21.447 5.63024C20.1811 4.57533 18.7245 4.23241 17.3333 4.36188V4.33335C17.3333 3.22878 16.4379 2.33335 15.3333 2.33335H15.3056C15.1463 1.3845 14.3215 0.666687 13.3333 0.666687H11.3333ZM17.3329 6.3743C18.3241 6.23633 19.3106 6.4533 20.1667 7.16669C22.1667 8.83335 22.1667 12.6667 19.4129 14.8837C18.4941 15.6235 17.6317 16.3475 17.0921 17.1796C16.9114 17.4584 16.7668 17.7492 16.6685 18.0569C16.5621 18.39 16.5099 18.7427 16.5246 19.1211L19.3265 19.5V22H5.34017V19.5L8.14203 19.1211C8.15674 18.7427 8.10453 18.39 7.9981 18.0569C7.89981 17.7492 7.75528 17.4584 7.57452 17.1796C7.03494 16.3475 6.17257 15.6235 5.25375 14.8837C2.49999 12.6667 2.49999 8.83335 4.49999 7.16669C5.35605 6.4533 6.34251 6.23633 7.33373 6.3743C7.96088 6.46159 8.58993 6.69097 9.18906 7.02662C9.23735 7.05367 9.28544 7.08141 9.33332 7.10982C9.88604 7.43781 10.4106 7.85527 10.8815 8.33335C10.9262 8.37876 10.9704 8.42471 11.0142 8.47118C11.053 8.51241 11.0906 8.55463 11.1271 8.59768L11.2187 6.33335H9.33332V4.33335H11.2812L11.3333 2.66669H13.3333L13.3854 4.33335H15.3333V6.33335H13.4479L13.5395 8.59768C13.576 8.55463 13.6137 8.51241 13.6525 8.47118C13.6962 8.42471 13.7404 8.37876 13.7851 8.33335C14.256 7.85527 14.7806 7.43781 15.3333 7.10982C15.3812 7.08141 15.4293 7.05367 15.4776 7.02662C16.0767 6.69098 16.7058 6.46159 17.3329 6.3743Z" fill="currentColor"/>
</g>
<defs>
<clipPath id="clip0_575_299137">
<rect width="24" height="24" fill="white"/>
</clipPath>
</defs>
</svg>
