<svg width="24" height="24" viewBox="0 0 24 24" fill="none" xmlns="http://www.w3.org/2000/svg">
<path fill-rule="evenodd" clip-rule="evenodd" d="M12.2821 1.36492C11.8509 0.86198 11.1986 0.605205 10.5403 0.679233C9.88191 0.75326 9.30295 1.14848 8.99421 1.73462C8.68794 2.31606 8.38789 3.1084 8.26636 3.97512C8.23559 4.19451 8.21459 4.432 8.21062 4.68159C6.43176 5.67747 4.87954 7.61422 4.11117 10.6877C4.05732 10.9031 3.99762 11.0125 3.94386 11.0932C3.86817 11.2067 3.77075 11.3169 3.52132 11.5823C3.03603 12.0988 2.35678 12.8219 1.73554 14.168C0.78747 16.2221 1.62375 18.309 3.11184 19.3685C3.98754 19.992 5.07498 20.2643 6.1585 20.092C5.98883 20.8178 5.93002 21.4761 5.95613 21.9495C6.0146 23.0097 6.89132 23.8394 7.9531 23.8394H20.3848C21.4894 23.8394 22.3848 22.944 22.3848 21.8394C22.3848 17.8901 22.1318 13.9543 21.0624 10.8175C20.0371 7.80987 18.15 5.27392 14.8662 4.37891L12.2821 1.36492ZM3.55146 15.0061C4.03686 13.9544 4.54065 13.4182 4.97886 12.9518C5.44342 12.4574 5.83429 12.0414 6.05146 11.1727C6.6124 8.92898 7.60739 7.5568 8.65522 6.77408C9.00839 6.51027 9.36755 6.31342 9.71812 6.17274C9.93611 6.08526 10.2179 6.03538 10.5128 6.00913C10.3537 5.73302 10.2653 5.42907 10.2292 5.11592C10.1875 4.75381 10.2158 4.37942 10.2859 4.02158C10.3867 3.50715 10.574 3.02695 10.7637 2.66671L13.775 6.1789C18.8667 7.13729 20.1722 12.8756 20.3594 19.8394C20.3771 20.4962 20.3848 21.1638 20.3848 21.8394H7.9531C7.94923 21.7692 7.94898 21.6849 7.9531 21.5885C7.97087 21.1732 8.06991 20.5341 8.31069 19.8394C8.46691 19.3887 8.68278 18.9147 8.97482 18.4631C9.35682 17.8725 9.86913 17.3205 10.5487 16.9097C10.6164 16.8688 10.682 16.8272 10.7457 16.7847C12.7399 15.4558 12.8185 13.3951 12.5979 12.5061C12.1193 14.4729 11.2721 14.873 10.1035 15.4249C9.98955 15.4788 9.87252 15.534 9.75249 15.5923C9.07786 15.92 8.30806 16.3437 7.45089 17.1462C7.374 17.2182 7.29641 17.2932 7.21813 17.3715C5.25023 19.3394 2.55146 17.1727 3.55146 15.0061Z" fill="currentColor"/>
</svg>
