<svg width="24" height="24" viewBox="0 0 24 24" fill="none" xmlns="http://www.w3.org/2000/svg">
<g clip-path="url(#clip0_575_299139)">
<path fill-rule="evenodd" clip-rule="evenodd" d="M10.5699 5.86958C10.6553 5.67262 10.7027 5.45537 10.7027 5.22707C10.7027 4.33328 9.97668 3.60872 9.08108 3.60872C8.18548 3.60872 7.45946 4.33328 7.45946 5.22707C7.45946 5.59583 7.58304 5.93578 7.79113 6.20792C8.04902 6.54521 8.43673 6.77836 8.87984 6.83309L8.88035 6.83315L8.15717 12.6715L4.67098 9.64974C4.75621 9.57073 4.8329 9.48268 4.89954 9.38712C5.08211 9.1253 5.18915 8.80711 5.18919 8.46397C5.18919 7.57017 4.46316 6.84544 3.56757 6.84544C2.67197 6.84544 1.94595 7.57 1.94595 8.46379C1.94595 9.05412 2.26265 9.57062 2.73575 9.8533C2.97895 9.99862 3.26349 10.0822 3.56757 10.0822C3.72522 10.0822 3.87763 10.0597 4.02174 10.0178L5.83784 16.2319L7.71588 19.2989L5.83784 19.6305V22.058L18.1871 22.058V19.6305L16.285 19.2975L18.1622 16.2319L19.9783 10.0178C20.1224 10.0597 20.2748 10.0822 20.4324 10.0822C20.7365 10.0822 21.021 9.99862 21.2642 9.8533C21.7373 9.57062 22.0541 9.05412 22.0541 8.46379C22.0541 7.57 21.328 6.84544 20.4324 6.84544C19.5368 6.84544 18.8108 7.57 18.8108 8.46379C18.8108 8.80694 18.9179 9.1253 19.1005 9.38712C19.1671 9.48268 19.2438 9.57073 19.329 9.64974L15.8428 12.6715L15.1197 6.83315L15.1202 6.83309C15.5633 6.77836 15.951 6.54521 16.2089 6.20792C16.417 5.93578 16.5405 5.59583 16.5405 5.22707C16.5405 4.33328 15.8145 3.60872 14.9189 3.60872C14.0233 3.60872 13.2973 4.33328 13.2973 5.22707C13.2973 5.45537 13.3447 5.67262 13.4301 5.86958C13.582 6.21961 13.8542 6.50555 14.1947 6.67544C14.2408 6.69849 14.2883 6.7194 14.3368 6.73804L12 12.0242L9.66318 6.73804C9.71174 6.7194 9.75917 6.69849 9.80535 6.67544C10.1458 6.50555 10.418 6.21961 10.5699 5.86958ZM12 3.17948C11.3544 2.26448 10.2877 1.66669 9.08108 1.66669C7.11077 1.66669 5.51351 3.26073 5.51351 5.22707C5.51351 5.31389 5.51662 5.39997 5.52274 5.48522C4.96122 5.11737 4.28943 4.90341 3.56757 4.90341C1.59725 4.90341 0 6.49745 0 8.46379C0 10.0725 1.06914 11.4321 2.53701 11.8734L3.96973 16.7757C4.01789 16.9405 4.08772 17.0981 4.1774 17.2446L4.6817 18.0681C4.19829 18.4248 3.89189 18.9969 3.89189 19.6305V22.058C3.89189 23.1305 4.76312 24 5.83784 24L18.1871 24C18.7032 24 19.1982 23.7954 19.5631 23.4312C19.928 23.067 20.1331 22.5731 20.1331 22.058V19.6305C20.1331 18.9894 19.8193 18.4112 19.326 18.0556L19.8226 17.2446C19.9123 17.0981 19.9821 16.9405 20.0303 16.7757L21.463 11.8734C22.9309 11.4321 24 10.0725 24 8.46379C24 6.49745 22.4027 4.90341 20.4324 4.90341C19.7106 4.90341 19.0388 5.11737 18.4773 5.48522C18.4834 5.39997 18.4865 5.31389 18.4865 5.22707C18.4865 3.26073 16.8892 1.66669 14.9189 1.66669C13.7123 1.66669 12.6456 2.26448 12 3.17948Z" fill="currentColor"/>
</g>
<defs>
<clipPath id="clip0_575_299139">
<rect width="24" height="24" fill="white"/>
</clipPath>
</defs>
</svg>
