<svg width="24" height="24" viewBox="0 0 24 24" fill="none" xmlns="http://www.w3.org/2000/svg">
<g clip-path="url(#clip0_575_299121)">
<path fill-rule="evenodd" clip-rule="evenodd" d="M19.3255 17.0486L19.2216 16.9891C18.6486 16.6617 17.7454 16.0243 17.0173 15.2589L16.9907 15.2308C17.396 14.8648 17.6507 14.3352 17.6507 13.7461V11.5756C17.6507 10.9258 17.335 10.3165 16.8041 9.9417L16.6847 9.85742C16.9087 9.27049 17.0317 8.63346 17.0317 7.96827C17.0317 5.04029 14.6581 2.66669 11.7301 2.66669C8.80209 2.66669 6.42849 5.04029 6.42849 7.96827C6.42849 8.67714 6.56809 9.35382 6.8207 9.97196C6.31502 10.3488 6.01579 10.943 6.01579 11.5756V13.7461C6.01579 14.3352 6.27049 14.8648 6.67577 15.2308L6.6492 15.2589C5.92115 16.0243 5.01791 16.6617 4.44494 16.9891L4.34097 17.0486C3.71782 17.4046 3.33325 18.0673 3.33325 18.785V22C3.33325 23.1046 4.22868 24 5.33325 24H18.3333C19.4378 24 20.3333 23.1046 20.3333 22V18.785C20.3333 18.0673 19.9487 17.4046 19.3255 17.0486ZM9.57848 10.4726C9.16828 10.1198 8.84571 9.668 8.6479 9.15425C8.50618 8.78617 8.42849 8.38629 8.42849 7.96827C8.42849 6.14486 9.90666 4.66669 11.7301 4.66669C13.5535 4.66669 15.0317 6.14486 15.0317 7.96827C15.0317 8.42932 14.9372 8.86829 14.7665 9.26687C14.5827 9.69612 14.3105 10.0785 13.9728 10.3912L15.6507 11.5756V13.7461H14.0081C14.0616 14.4257 14.3735 15.1056 14.8278 15.7461C15.046 16.0537 15.2971 16.3522 15.5681 16.6372C16.4545 17.5692 17.521 18.3209 18.2293 18.7256L18.3333 18.785V22H5.33325V18.785L5.43722 18.7256C6.14549 18.3209 7.21198 17.5692 8.09841 16.6372C8.36945 16.3522 8.6205 16.0537 8.83871 15.7461C9.29297 15.1056 9.60489 14.4257 9.6584 13.7461H8.01579V11.5756L9.57848 10.4726Z" fill="currentColor"/>
</g>
<defs>
<clipPath id="clip0_575_299121">
<rect width="24" height="24" fill="white"/>
</clipPath>
</defs>
</svg>
