<svg width="24" height="24" viewBox="0 0 24 24" fill="none" xmlns="http://www.w3.org/2000/svg"><mask id="ko-brand-linkedin" maskUnits="userSpaceOnUse" x="0" y="0" width="24" height="24"><rect width="24" height="24" fill="white"/><path d="M7.5 9.5 H6 V17 H7.5 Z M6.75 7.5 A1 1 0 1 1 6.75 5.5 A1 1 0 0 1 6.75 7.5 Z" fill="black" stroke="black" /><path d="M10 9.5 H11.4 V10.7 C11.7 10.1 12.4 9.3 13.7 9.3 C16 9.3 16.5 10.8 16.5 12.7 V17 H15 V13 C15 11.8 14.8 11 13.7 11 C12.5 11 12 11.8 12 13 V17 H10 Z" fill="black" stroke="black" /></mask><g mask="url(#ko-brand-linkedin)" fill="currentColor"><path d="M4 4 H20 C20.6 4 21 4.4 21 5 V19 C21 19.6 20.6 20 20 20 H4 C3.4 20 3 19.6 3 19 V5 C3 4.4 3.4 4 4 4 Z" /></g></svg>
