<svg width="1080" height="1350" viewBox="0 0 1080 1350" fill="none" xmlns="http://www.w3.org/2000/svg">
<rect width="1080" height="1350" fill="#1B1B1E"/>
<path d="M416.694 1183.14C430.915 1183.14 439.231 1191.39 439.231 1211.33V1215.9L427.17 1218.31V1213.29C427.17 1197.42 423.614 1192.73 416.948 1192.73C409.711 1192.73 406.22 1198.44 406.22 1210.63V1246.87C406.22 1259 409.711 1264.71 417.012 1264.71C423.614 1264.71 427.487 1259.95 427.487 1243.45V1237.8L439.676 1240.65V1245.86C439.676 1266.23 430.851 1274.49 416.758 1274.49C401.268 1274.49 393.65 1264.58 393.649 1245.22V1212.34C393.649 1193.04 401.331 1183.14 416.694 1183.14ZM696.774 1183.08C712.709 1183.08 720.771 1193.04 720.771 1212.47V1245.16C720.771 1264.52 712.709 1274.49 696.774 1274.49C680.903 1274.49 672.841 1264.52 672.841 1245.16V1212.47C672.841 1193.04 680.903 1183.08 696.774 1183.08ZM472.114 1184.35C485.954 1184.35 493.064 1191.08 493.064 1204.09V1210.06C493.064 1219.89 488.366 1225.73 479.542 1227.07V1228.15C485.763 1229.8 488.304 1232.78 489.891 1243.64L491.414 1254.55C493.001 1265.47 494.335 1269.72 496.811 1271.82L496.557 1273.22H482.717C481.13 1269.6 480.24 1265.03 479.034 1254.87L477.765 1244.65C476.558 1234.43 474.527 1232.15 468.56 1232.15H463.29V1273.22H450.848V1184.35H472.114ZM540.104 1194.5H517.694V1221.55H538.01V1230.88H517.694V1263.06H541.12V1273.22H505.251V1184.35H540.104V1194.5ZM597.174 1273.22H584.16L581.239 1256.65H562.512L559.527 1273.22H547.466L564.479 1184.35H579.97L597.174 1273.22ZM640.278 1194.5H624.725V1273.22H612.281V1194.5H596.728V1184.35H640.278V1194.5ZM661.353 1273.22H648.91V1184.35H661.353V1273.22ZM763.367 1236.02C764.954 1241.16 766.16 1246.62 767.557 1253.98L768.89 1253.86C768.064 1244.65 767.43 1234.75 767.43 1226.56V1184.35H779.429V1273.22H764.51L748.702 1221.86C747.052 1216.4 745.845 1211.39 744.258 1203.07L742.988 1203.26C743.75 1211.96 744.321 1222.94 744.321 1230.94L744.385 1273.22H732.323V1184.35H747.623L763.367 1236.02ZM696.774 1192.85C689.156 1192.85 685.41 1198.76 685.41 1210.94V1246.94C685.41 1258.93 689.156 1264.71 696.838 1264.71C704.519 1264.71 708.201 1258.93 708.201 1246.94V1210.94C708.201 1198.76 704.519 1192.85 696.774 1192.85ZM571.209 1199.71C570.384 1209.23 569.495 1215.83 568.226 1223.32L564.162 1247.51H579.589L575.525 1223.32C574.256 1215.83 573.367 1209.23 572.479 1199.71H571.209ZM463.29 1222.56H470.781C477.511 1222.56 480.622 1219.39 480.622 1212.28V1204.47C480.622 1197.3 477.511 1194.25 470.781 1194.25H463.29V1222.56ZM531.853 1073.34C547.787 1073.34 555.85 1083.31 555.85 1102.73V1135.43C555.85 1154.79 547.787 1164.75 531.853 1164.75C515.981 1164.75 507.919 1154.79 507.919 1135.43V1102.73C507.919 1083.31 515.981 1073.34 531.853 1073.34ZM440.565 1163.48H427.552L424.631 1146.91H405.903L402.92 1163.48H390.857L407.871 1074.61H423.361L440.565 1163.48ZM480.368 1126.28C481.955 1131.43 483.161 1136.89 484.558 1144.25L485.891 1144.12C485.065 1134.92 484.431 1125.01 484.431 1116.83V1074.61H496.43V1163.48H481.511L465.703 1112.13C464.053 1106.67 462.846 1101.65 461.259 1093.34L459.989 1093.53C460.751 1102.23 461.322 1113.21 461.322 1121.21L461.386 1163.48H449.324V1074.61H464.624L480.368 1126.28ZM605.682 1084.77H590.128V1163.48H577.685V1084.77H562.131V1074.61H605.682V1084.77ZM626.756 1111.18H646.182V1074.61H658.562V1163.48H646.182V1121.21H626.756V1163.48H614.312V1074.61H626.756V1111.18ZM706.236 1084.77H683.826V1111.81H704.142V1121.14H683.826V1153.33H707.252V1163.48H671.383V1074.61H706.236V1084.77ZM738.927 1074.61C752.766 1074.61 759.877 1081.34 759.877 1094.35V1100.32C759.877 1110.16 755.179 1116 746.354 1117.33V1118.41C752.576 1120.06 755.116 1123.05 756.703 1133.9L758.227 1144.82C759.814 1155.74 761.147 1159.99 763.623 1162.09L763.369 1163.48H749.529C747.942 1159.86 747.053 1155.29 745.847 1145.14L744.577 1134.92C743.371 1124.7 741.34 1122.41 735.372 1122.41H730.103V1163.48H717.66V1074.61H738.927ZM531.853 1083.12C524.234 1083.12 520.488 1089.02 520.488 1101.21V1137.2C520.488 1149.2 524.234 1154.98 531.916 1154.98C539.598 1154.98 543.279 1149.2 543.279 1137.2V1101.21C543.279 1089.02 539.598 1083.12 531.853 1083.12ZM414.601 1089.97C413.775 1099.5 412.887 1106.1 411.617 1113.59L407.554 1137.77H422.98L418.918 1113.59C417.648 1106.1 416.759 1099.5 415.87 1089.97H414.601ZM730.103 1112.83H737.594C744.323 1112.83 747.435 1109.65 747.435 1102.54V1094.74C747.435 1087.56 744.323 1084.52 737.594 1084.52H730.103V1112.83Z" fill="#F6F3EC"/>
<path d="M827.428 1089.26V1258.57" stroke="#F6F3EC" stroke-width="4.57143"/>
<path d="M964.877 1066.7L957.153 1087.26C947.041 1071.12 933.839 1061.83 917.688 1061.83C891.003 1061.83 866.285 1087.26 866.285 1131.58C866.285 1164.02 879.347 1199.35 907.857 1218.38L882.436 1286H972.181C975.27 1263.77 980.326 1234.83 980.326 1197.82C980.326 1162.8 975.832 1131.73 967.125 1108.13L972.883 1092.59C979.484 1074.47 988.332 1070.36 1016 1070.36V1066.7H964.877ZM882.015 1139.19C882.015 1093.81 899.009 1065.48 920.918 1065.48C933.98 1065.48 945.777 1075.54 955.187 1092.44L909.823 1213.05C888.195 1193.86 882.015 1166.15 882.015 1139.19ZM902.941 1282.35L964.737 1114.52C972.883 1138.28 977.518 1169.04 976.675 1201.94C975.692 1240.16 967.405 1282.35 937.069 1282.35H902.941Z" fill="#F6F3EC"/>
</svg>
