<svg width="1080" height="1920" viewBox="0 0 1080 1920" fill="none" xmlns="http://www.w3.org/2000/svg">
<rect width="1080" height="1920" fill="#1B1B1E"/>
<path d="M371.753 1758.81C385.327 1758.81 393.266 1766.68 393.266 1785.71V1790.07L381.752 1792.38V1787.59C381.752 1772.44 378.358 1767.96 371.995 1767.96C365.087 1767.96 361.754 1773.41 361.754 1785.04V1819.64C361.754 1831.22 365.087 1836.67 372.056 1836.67C378.358 1836.67 382.055 1832.12 382.055 1816.37V1810.98L393.689 1813.7V1818.67C393.689 1838.12 385.266 1846 371.813 1846C357.027 1846 349.755 1836.55 349.755 1818.07V1786.68C349.755 1768.26 357.088 1758.81 371.753 1758.81ZM639.102 1758.75C654.312 1758.75 662.008 1768.26 662.008 1786.8V1818.01C662.008 1836.49 654.312 1846 639.102 1846C623.952 1846 616.256 1836.49 616.256 1818.01V1786.8C616.256 1768.26 623.952 1758.75 639.102 1758.75ZM424.653 1759.96C437.864 1759.96 444.651 1766.38 444.651 1778.8V1784.5C444.651 1793.89 440.167 1799.46 431.744 1800.74V1801.77C437.683 1803.34 440.106 1806.19 441.621 1816.55L443.076 1826.97C444.591 1837.4 445.863 1841.46 448.227 1843.46L447.984 1844.79H434.773C433.259 1841.33 432.41 1836.97 431.259 1827.28L430.047 1817.52C428.895 1807.77 426.956 1805.58 421.26 1805.58H416.23V1844.79H404.354V1759.96H424.653ZM489.553 1769.65H468.162V1795.47H487.554V1804.37H468.162V1835.09H490.522V1844.79H456.284V1759.96H489.553V1769.65ZM544.028 1844.79H531.606L528.818 1828.97H510.941L508.094 1844.79H496.58L512.82 1759.96H527.606L544.028 1844.79ZM585.174 1769.65H570.327V1844.79H558.449V1769.65H543.603V1759.96H585.174V1769.65ZM605.29 1844.79H593.413V1759.96H605.29V1844.79ZM702.667 1809.28C704.182 1814.19 705.334 1819.4 706.667 1826.43L707.939 1826.31C707.152 1817.52 706.546 1808.07 706.546 1800.25V1759.96H717.999V1844.79H703.758L688.669 1795.77C687.093 1790.56 685.942 1785.77 684.427 1777.83L683.215 1778.01C683.942 1786.32 684.487 1796.8 684.487 1804.43L684.548 1844.79H673.034V1759.96H687.639L702.667 1809.28ZM639.102 1768.08C631.83 1768.08 628.255 1773.71 628.255 1785.35V1819.7C628.255 1831.15 631.83 1836.67 639.162 1836.67C646.495 1836.67 650.01 1831.16 650.01 1819.7V1785.35C650.01 1773.71 646.495 1768.08 639.102 1768.08ZM519.244 1774.62C518.456 1783.71 517.607 1790.01 516.396 1797.16L512.518 1820.25H527.243L523.364 1797.16C522.152 1790.01 521.304 1783.71 520.456 1774.62H519.244ZM416.23 1796.44H423.381C429.804 1796.44 432.774 1793.41 432.774 1786.62V1779.17C432.774 1772.32 429.804 1769.41 423.381 1769.41H416.23V1796.44ZM481.676 1654C496.886 1654 504.583 1663.51 504.583 1682.05V1713.26C504.583 1731.74 496.886 1741.25 481.676 1741.25C466.526 1741.25 458.83 1731.74 458.83 1713.26V1682.05C458.83 1663.51 466.526 1654 481.676 1654ZM394.539 1740.04H382.116L379.328 1724.23H361.452L358.604 1740.04H347.09L363.33 1655.21H378.116L394.539 1740.04ZM432.532 1704.54C434.047 1709.44 435.198 1714.65 436.531 1721.68L437.804 1721.56C437.016 1712.78 436.41 1703.32 436.41 1695.51V1655.21H447.863V1740.04H433.622L418.533 1691.02C416.958 1685.81 415.806 1681.02 414.291 1673.09L413.079 1673.27C413.806 1681.57 414.353 1692.05 414.353 1699.69L414.413 1740.04H402.898V1655.21H417.503L432.532 1704.54ZM552.149 1664.91H537.303V1740.04H525.425V1664.91H510.578V1655.21H552.149V1664.91ZM572.266 1690.11H590.81V1655.21H602.626V1740.04H590.81V1699.69H572.266V1740.04H560.389V1655.21H572.266V1690.11ZM648.134 1664.91H626.742V1690.72H646.134V1699.63H626.742V1730.35H649.104V1740.04H614.864V1655.21H648.134V1664.91ZM679.339 1655.21C692.549 1655.21 699.336 1661.64 699.336 1674.06V1679.75C699.336 1689.14 694.852 1694.72 686.429 1695.99V1697.02C692.367 1698.6 694.792 1701.44 696.307 1711.81L697.761 1722.23C699.276 1732.65 700.549 1736.71 702.912 1738.71L702.669 1740.04H689.459C687.944 1736.59 687.096 1732.23 685.944 1722.53L684.732 1712.78C683.581 1703.02 681.641 1700.84 675.945 1700.84H670.915V1740.04H659.038V1655.21H679.339ZM481.676 1663.33C474.404 1663.33 470.829 1668.97 470.829 1680.6V1714.96C470.829 1726.41 474.405 1731.92 481.737 1731.92C489.069 1731.92 492.584 1726.41 492.584 1714.96V1680.6C492.584 1668.97 489.069 1663.33 481.676 1663.33ZM369.754 1669.88C368.966 1678.96 368.117 1685.27 366.905 1692.42L363.027 1715.5H377.753L373.875 1692.42C372.663 1685.27 371.814 1678.96 370.966 1669.88H369.754ZM670.915 1691.69H678.066C684.49 1691.69 687.459 1688.66 687.459 1681.87V1674.42C687.459 1667.57 684.49 1664.67 678.066 1664.67H670.915V1691.69Z" fill="#F6F3EC"/>
<path d="M777 1671.43V1828.57" stroke="#F6F3EC" stroke-width="6"/>
<path d="M820.059 1660.06L999.947 1839.94" stroke="white" stroke-width="8"/>
<path d="M999.941 1660.06L820.053 1839.94" stroke="white" stroke-width="8"/>
<path d="M939.151 1660.89L850.039 1750L939.151 1839.11" stroke="white" stroke-width="8"/>
<path d="M880.923 1660.89L970.036 1750L880.923 1839.11" stroke="white" stroke-width="8"/>
</svg>
