<svg width="1080" height="1350" viewBox="0 0 1080 1350" fill="none" xmlns="http://www.w3.org/2000/svg">
<rect width="1080" height="1350" fill="#1B1B1E"/>
<path d="M371.753 1188.81C385.327 1188.81 393.266 1196.68 393.266 1215.71V1220.07L381.752 1222.38V1217.59C381.752 1202.44 378.358 1197.96 371.995 1197.96C365.087 1197.96 361.754 1203.41 361.754 1215.04V1249.64C361.754 1261.22 365.087 1266.67 372.056 1266.67C378.358 1266.67 382.055 1262.12 382.055 1246.37V1240.98L393.689 1243.7V1248.67C393.689 1268.12 385.266 1276 371.813 1276C357.027 1276 349.755 1266.55 349.755 1248.07V1216.68C349.755 1198.26 357.088 1188.81 371.753 1188.81ZM639.102 1188.75C654.312 1188.75 662.008 1198.26 662.008 1216.8V1248.01C662.008 1266.49 654.312 1276 639.102 1276C623.952 1276 616.256 1266.49 616.256 1248.01V1216.8C616.256 1198.26 623.952 1188.75 639.102 1188.75ZM424.653 1189.96C437.864 1189.96 444.651 1196.38 444.651 1208.8V1214.5C444.651 1223.89 440.167 1229.46 431.744 1230.74V1231.77C437.683 1233.34 440.106 1236.19 441.621 1246.55L443.076 1256.97C444.591 1267.4 445.863 1271.46 448.227 1273.46L447.984 1274.79H434.773C433.259 1271.33 432.41 1266.97 431.259 1257.28L430.047 1247.52C428.895 1237.77 426.956 1235.58 421.26 1235.58H416.23V1274.79H404.354V1189.96H424.653ZM489.553 1199.65H468.162V1225.47H487.554V1234.37H468.162V1265.09H490.522V1274.79H456.284V1189.96H489.553V1199.65ZM544.028 1274.79H531.606L528.818 1258.97H510.941L508.094 1274.79H496.58L512.82 1189.96H527.606L544.028 1274.79ZM585.174 1199.65H570.327V1274.79H558.449V1199.65H543.603V1189.96H585.174V1199.65ZM605.29 1274.79H593.413V1189.96H605.29V1274.79ZM702.667 1239.28C704.182 1244.19 705.334 1249.4 706.667 1256.43L707.939 1256.31C707.152 1247.52 706.546 1238.07 706.546 1230.25V1189.96H717.999V1274.79H703.758L688.669 1225.77C687.093 1220.56 685.942 1215.77 684.427 1207.83L683.215 1208.01C683.942 1216.32 684.487 1226.8 684.487 1234.43L684.548 1274.79H673.034V1189.96H687.639L702.667 1239.28ZM639.102 1198.08C631.83 1198.08 628.255 1203.71 628.255 1215.35V1249.7C628.255 1261.15 631.83 1266.67 639.162 1266.67C646.495 1266.67 650.01 1261.16 650.01 1249.7V1215.35C650.01 1203.71 646.495 1198.08 639.102 1198.08ZM519.244 1204.62C518.456 1213.71 517.607 1220.01 516.396 1227.16L512.518 1250.25H527.243L523.364 1227.16C522.152 1220.01 521.304 1213.71 520.456 1204.62H519.244ZM416.23 1226.44H423.381C429.804 1226.44 432.774 1223.41 432.774 1216.62V1209.17C432.774 1202.32 429.804 1199.41 423.381 1199.41H416.23V1226.44ZM481.676 1084C496.886 1084 504.583 1093.51 504.583 1112.05V1143.26C504.583 1161.74 496.886 1171.25 481.676 1171.25C466.526 1171.25 458.83 1161.74 458.83 1143.26V1112.05C458.83 1093.51 466.526 1084 481.676 1084ZM394.539 1170.04H382.116L379.328 1154.23H361.452L358.604 1170.04H347.09L363.33 1085.21H378.116L394.539 1170.04ZM432.532 1134.54C434.047 1139.44 435.198 1144.65 436.531 1151.68L437.804 1151.56C437.016 1142.78 436.41 1133.32 436.41 1125.51V1085.21H447.863V1170.04H433.622L418.533 1121.02C416.958 1115.81 415.806 1111.02 414.291 1103.09L413.079 1103.27C413.806 1111.57 414.353 1122.05 414.353 1129.69L414.413 1170.04H402.898V1085.21H417.503L432.532 1134.54ZM552.149 1094.91H537.303V1170.04H525.425V1094.91H510.578V1085.21H552.149V1094.91ZM572.266 1120.11H590.81V1085.21H602.626V1170.04H590.81V1129.69H572.266V1170.04H560.389V1085.21H572.266V1120.11ZM648.134 1094.91H626.742V1120.72H646.134V1129.63H626.742V1160.35H649.104V1170.04H614.864V1085.21H648.134V1094.91ZM679.339 1085.21C692.549 1085.21 699.336 1091.64 699.336 1104.06V1109.75C699.336 1119.14 694.852 1124.72 686.429 1125.99V1127.02C692.367 1128.6 694.792 1131.44 696.307 1141.81L697.761 1152.23C699.276 1162.65 700.549 1166.71 702.912 1168.71L702.669 1170.04H689.459C687.944 1166.59 687.096 1162.23 685.944 1152.53L684.732 1142.78C683.581 1133.02 681.641 1130.84 675.945 1130.84H670.915V1170.04H659.038V1085.21H679.339ZM481.676 1093.33C474.404 1093.33 470.829 1098.97 470.829 1110.6V1144.96C470.829 1156.41 474.405 1161.92 481.737 1161.92C489.069 1161.92 492.584 1156.41 492.584 1144.96V1110.6C492.584 1098.97 489.069 1093.33 481.676 1093.33ZM369.754 1099.88C368.966 1108.96 368.117 1115.27 366.905 1122.42L363.027 1145.5H377.753L373.875 1122.42C372.663 1115.27 371.814 1108.96 370.966 1099.88H369.754ZM670.915 1121.69H678.066C684.49 1121.69 687.459 1118.66 687.459 1111.87V1104.42C687.459 1097.57 684.49 1094.67 678.066 1094.67H670.915V1121.69Z" fill="#F6F3EC"/>
<path d="M777 1101.43V1258.57" stroke="#F6F3EC" stroke-width="6"/>
<path d="M820.059 1090.06L999.947 1269.94" stroke="white" stroke-width="8"/>
<path d="M999.941 1090.06L820.053 1269.94" stroke="white" stroke-width="8"/>
<path d="M939.151 1090.89L850.039 1180L939.151 1269.11" stroke="white" stroke-width="8"/>
<path d="M880.923 1090.89L970.036 1180L880.923 1269.11" stroke="white" stroke-width="8"/>
</svg>
