<svg width="1080" height="1080" viewBox="0 0 1080 1080" fill="none" xmlns="http://www.w3.org/2000/svg">
<rect width="1080" height="1080" fill="#1B1B1E"/>
<path d="M416.694 913.141C430.915 913.141 439.231 921.393 439.231 941.325V945.896L427.17 948.308V943.293C427.17 927.424 423.614 922.726 416.948 922.726C409.711 922.726 406.22 928.44 406.22 940.627V976.873C406.22 988.997 409.711 994.71 417.012 994.71C423.614 994.71 427.487 989.95 427.487 973.446V967.795L439.676 970.652V975.858C439.676 996.234 430.851 1004.49 416.758 1004.49C401.268 1004.49 393.65 994.583 393.649 975.223V942.341C393.649 923.044 401.331 913.141 416.694 913.141ZM696.774 913.077C712.709 913.077 720.771 923.044 720.771 942.468V975.159C720.771 994.52 712.709 1004.49 696.774 1004.49C680.903 1004.49 672.841 994.52 672.841 975.159V942.468C672.841 923.044 680.903 913.077 696.774 913.077ZM472.114 914.347C485.954 914.347 493.064 921.076 493.064 934.089V940.056C493.064 949.895 488.366 955.735 479.542 957.068V958.147C485.763 959.797 488.304 962.781 489.891 973.636L491.414 984.554C493.001 995.472 494.335 999.725 496.811 1001.82L496.557 1003.22H482.717C481.13 999.598 480.24 995.028 479.034 984.871L477.765 974.652C476.558 964.432 474.527 962.146 468.56 962.146H463.29V1003.22H450.848V914.347H472.114ZM540.104 924.503H517.694V951.545H538.01V960.876H517.694V993.06H541.12V1003.22H505.251V914.347H540.104V924.503ZM597.174 1003.22H584.16L581.239 986.649H562.512L559.527 1003.22H547.466L564.479 914.347H579.97L597.174 1003.22ZM640.278 924.503H624.725V1003.22H612.281V924.503H596.728V914.347H640.278V924.503ZM661.353 1003.22H648.91V914.347H661.353V1003.22ZM763.367 966.018C764.954 971.16 766.16 976.619 767.557 983.983L768.89 983.856C768.064 974.651 767.43 964.749 767.43 956.56V914.347H779.429V1003.22H764.51L748.702 951.863C747.052 946.404 745.845 941.389 744.258 933.073L742.988 933.264C743.75 941.96 744.321 952.942 744.321 960.94L744.385 1003.22H732.323V914.347H747.623L763.367 966.018ZM696.774 922.853C689.156 922.853 685.41 928.757 685.41 940.945V976.937C685.41 988.934 689.156 994.71 696.838 994.71C704.519 994.71 708.201 988.934 708.201 976.937V940.945C708.201 928.757 704.519 922.853 696.774 922.853ZM571.209 929.708C570.384 939.23 569.495 945.832 568.226 953.323L564.162 977.508H579.589L575.525 953.323C574.256 945.832 573.367 939.23 572.479 929.708H571.209ZM463.29 952.561H470.781C477.511 952.561 480.622 949.387 480.622 942.278V934.47C480.622 927.297 477.511 924.249 470.781 924.249H463.29V952.561ZM531.853 803.343C547.787 803.343 555.85 813.309 555.85 832.734V865.425C555.85 884.786 547.787 894.752 531.853 894.752C515.981 894.752 507.919 884.786 507.919 865.425V832.734C507.919 813.309 515.981 803.343 531.853 803.343ZM440.565 893.483H427.552L424.631 876.914H405.903L402.92 893.483H390.857L407.871 804.613H423.361L440.565 893.483ZM480.368 856.284C481.955 861.426 483.161 866.885 484.558 874.248L485.891 874.121C485.065 864.917 484.431 855.014 484.431 846.825V804.613H496.43V893.483H481.511L465.703 842.128C464.053 836.669 462.846 831.655 461.259 823.339L459.989 823.53C460.751 832.226 461.322 843.208 461.322 851.206L461.386 893.483H449.324V804.613H464.624L480.368 856.284ZM605.682 814.77H590.128V893.483H577.685V814.77H562.131V804.613H605.682V814.77ZM626.756 841.176H646.182V804.613H658.562V893.483H646.182V851.206H626.756V893.483H614.312V804.613H626.756V841.176ZM706.236 814.77H683.826V841.811H704.142V851.143H683.826V883.325H707.252V893.483H671.383V804.613H706.236V814.77ZM738.927 804.613C752.766 804.613 759.877 811.342 759.877 824.355V830.322C759.877 840.161 755.179 846 746.354 847.333V848.412C752.576 850.063 755.116 853.047 756.703 863.902L758.227 874.82C759.814 885.738 761.147 889.991 763.623 892.086L763.369 893.483H749.529C747.942 889.864 747.053 885.293 745.847 875.137L744.577 864.917C743.371 854.697 741.34 852.412 735.372 852.412H730.103V893.483H717.66V804.613H738.927ZM531.853 813.118C524.234 813.118 520.488 819.022 520.488 831.21V867.202C520.488 879.2 524.234 884.976 531.916 884.976C539.598 884.976 543.279 879.2 543.279 867.202V831.21C543.279 819.022 539.598 813.118 531.853 813.118ZM414.601 819.975C413.775 829.496 412.887 836.098 411.617 843.588L407.554 867.774H422.98L418.918 843.588C417.648 836.098 416.759 829.496 415.87 819.975H414.601ZM730.103 842.826H737.594C744.323 842.826 747.435 839.653 747.435 832.543V824.736C747.435 817.563 744.323 814.516 737.594 814.516H730.103V842.826Z" fill="#F6F3EC"/>
<path d="M827.428 819.257V988.571" stroke="#F6F3EC" stroke-width="4.57143"/>
<path d="M964.877 796.702L957.153 817.261C947.041 801.119 933.839 791.829 917.688 791.829C891.003 791.829 866.285 817.261 866.285 861.578C866.285 894.016 879.347 929.347 907.857 948.383L882.436 1016H972.181C975.27 993.766 980.326 964.831 980.326 927.824C980.326 892.797 975.832 861.73 967.125 838.125L972.883 822.592C979.484 804.469 988.332 800.357 1016 800.357V796.702H964.877ZM882.015 869.192C882.015 823.81 899.009 795.484 920.918 795.484C933.98 795.484 945.777 805.535 955.187 822.439L909.823 943.053C888.195 923.864 882.015 896.148 882.015 869.192ZM902.941 1012.35L964.737 844.521C972.883 868.279 977.518 899.041 976.675 931.936C975.692 970.161 967.405 1012.35 937.069 1012.35H902.941Z" fill="#F6F3EC"/>
</svg>
