<svg width="1080" height="1080" viewBox="0 0 1080 1080" fill="none" xmlns="http://www.w3.org/2000/svg">
<rect width="1080" height="1080" fill="#1B1B1E"/>
<path d="M371.753 918.807C385.327 918.807 393.266 926.684 393.266 945.71V950.073L381.752 952.376V947.589C381.752 932.441 378.358 927.957 371.995 927.957C365.087 927.957 361.754 933.41 361.754 945.044V979.643C361.754 991.216 365.087 996.669 372.056 996.669C378.358 996.669 382.055 992.124 382.055 976.37V970.978L393.689 973.704V978.673C393.689 998.123 385.266 1006 371.813 1006C357.027 1006 349.755 996.548 349.755 978.067V946.68C349.755 928.26 357.088 918.807 371.753 918.807ZM639.102 918.746C654.312 918.746 662.008 928.259 662.008 946.801V978.007C662.008 996.487 654.312 1006 639.102 1006C623.952 1006 616.256 996.487 616.256 978.007V946.801C616.256 928.26 623.952 918.746 639.102 918.746ZM424.653 919.958C437.864 919.958 444.651 926.381 444.651 938.803V944.499C444.651 953.891 440.167 959.465 431.744 960.737V961.768C437.683 963.343 440.106 966.192 441.621 976.553L443.076 986.975C444.591 997.396 445.863 1001.46 448.227 1003.46L447.984 1004.79H434.773C433.259 1001.33 432.41 996.972 431.259 987.277L430.047 977.521C428.895 967.766 426.956 965.585 421.26 965.585H416.23V1004.79H404.354V919.958H424.653ZM489.553 929.653H468.162V955.466H487.554V964.373H468.162V995.094H490.522V1004.79H456.284V919.958H489.553V929.653ZM544.028 1004.79H531.606L528.818 988.974H510.941L508.094 1004.79H496.58L512.82 919.958H527.606L544.028 1004.79ZM585.174 929.653H570.327V1004.79H558.449V929.653H543.603V919.958H585.174V929.653ZM605.29 1004.79H593.413V919.958H605.29V1004.79ZM702.667 969.281C704.182 974.189 705.334 979.4 706.667 986.429L707.939 986.308C707.152 977.522 706.546 968.069 706.546 960.253V919.958H717.999V1004.79H703.758L688.669 955.769C687.093 950.558 685.942 945.771 684.427 937.833L683.215 938.015C683.942 946.316 684.487 956.799 684.487 964.434L684.548 1004.79H673.034V919.958H687.639L702.667 969.281ZM639.102 928.078C631.83 928.078 628.255 933.713 628.255 945.347V979.703C628.255 991.155 631.83 996.669 639.162 996.669C646.495 996.669 650.01 991.155 650.01 979.703V945.347C650.01 933.713 646.495 928.078 639.102 928.078ZM519.244 934.622C518.456 943.711 517.607 950.012 516.396 957.162L512.518 980.248H527.243L523.364 957.162C522.152 950.012 521.304 943.711 520.456 934.622H519.244ZM416.23 956.436H423.381C429.804 956.436 432.774 953.406 432.774 946.619V939.166C432.774 932.319 429.804 929.411 423.381 929.411H416.23V956.436ZM481.676 814C496.886 814 504.583 823.513 504.583 842.055V873.26C504.583 891.741 496.886 901.254 481.676 901.254C466.526 901.254 458.83 891.74 458.83 873.26V842.055C458.83 823.513 466.526 814 481.676 814ZM394.539 900.042H382.116L379.328 884.228H361.452L358.604 900.042H347.09L363.33 815.212H378.116L394.539 900.042ZM432.532 864.535C434.047 869.443 435.198 874.654 436.531 881.683L437.804 881.562C437.016 872.776 436.41 863.323 436.41 855.507V815.212H447.863V900.042H433.622L418.533 851.022C416.958 845.812 415.806 841.025 414.291 833.087L413.079 833.269C413.806 841.57 414.353 852.053 414.353 859.688L414.413 900.042H402.898V815.212H417.503L432.532 864.535ZM552.149 824.907H537.303V900.042H525.425V824.907H510.578V815.212H552.149V824.907ZM572.266 850.113H590.81V815.212H602.626V900.042H590.81V859.688H572.266V900.042H560.389V815.212H572.266V850.113ZM648.134 824.907H626.742V850.72H646.134V859.627H626.742V890.348H649.104V900.042H614.864V815.212H648.134V824.907ZM679.339 815.212C692.549 815.212 699.336 821.635 699.336 834.057V839.752C699.336 849.144 694.852 854.719 686.429 855.991V857.021C692.367 858.597 694.792 861.444 696.307 871.806L697.761 882.228C699.276 892.65 700.549 896.709 702.912 898.709L702.669 900.042H689.459C687.944 896.588 687.096 892.226 685.944 882.531L684.732 872.775C683.581 863.02 681.641 860.839 675.945 860.839H670.915V900.042H659.038V815.212H679.339ZM481.676 823.331C474.404 823.331 470.829 828.967 470.829 840.601V874.957C470.829 886.409 474.405 891.923 481.737 891.923C489.069 891.923 492.584 886.409 492.584 874.957V840.601C492.584 828.967 489.069 823.331 481.676 823.331ZM369.754 829.876C368.966 838.965 368.117 845.266 366.905 852.416L363.027 875.502H377.753L373.875 852.416C372.663 845.266 371.814 838.965 370.966 829.876H369.754ZM670.915 851.689H678.066C684.49 851.689 687.459 848.659 687.459 841.873V834.42C687.459 827.573 684.49 824.665 678.066 824.665H670.915V851.689Z" fill="#F6F3EC"/>
<path d="M777 831.429V988.572" stroke="#F6F3EC" stroke-width="6"/>
<path d="M820.059 820.056L999.947 999.944" stroke="white" stroke-width="8"/>
<path d="M999.941 820.056L820.053 999.944" stroke="white" stroke-width="8"/>
<path d="M939.151 820.887L850.039 910L939.151 999.113" stroke="white" stroke-width="8"/>
<path d="M880.923 820.887L970.036 910L880.923 999.113" stroke="white" stroke-width="8"/>
</svg>
