<svg width="1080" height="1920" viewBox="0 0 1080 1920" fill="none" xmlns="http://www.w3.org/2000/svg">
<rect width="1080" height="1920" fill="#1B1B1E"/>
<path d="M416.694 1753.14C430.915 1753.14 439.231 1761.39 439.231 1781.33V1785.9L427.17 1788.31V1783.29C427.17 1767.42 423.614 1762.73 416.948 1762.73C409.711 1762.73 406.22 1768.44 406.22 1780.63V1816.87C406.22 1829 409.711 1834.71 417.012 1834.71C423.614 1834.71 427.487 1829.95 427.487 1813.45V1807.8L439.676 1810.65V1815.86C439.676 1836.23 430.851 1844.49 416.758 1844.49C401.268 1844.49 393.65 1834.58 393.649 1815.22V1782.34C393.649 1763.04 401.331 1753.14 416.694 1753.14ZM696.774 1753.08C712.709 1753.08 720.771 1763.04 720.771 1782.47V1815.16C720.771 1834.52 712.709 1844.49 696.774 1844.49C680.903 1844.49 672.841 1834.52 672.841 1815.16V1782.47C672.841 1763.04 680.903 1753.08 696.774 1753.08ZM472.114 1754.35C485.954 1754.35 493.064 1761.08 493.064 1774.09V1780.06C493.064 1789.9 488.366 1795.73 479.542 1797.07V1798.15C485.763 1799.8 488.304 1802.78 489.891 1813.64L491.414 1824.55C493.001 1835.47 494.335 1839.73 496.811 1841.82L496.557 1843.22H482.717C481.13 1839.6 480.24 1835.03 479.034 1824.87L477.765 1814.65C476.558 1804.43 474.527 1802.15 468.56 1802.15H463.29V1843.22H450.848V1754.35H472.114ZM540.104 1764.5H517.694V1791.55H538.01V1800.88H517.694V1833.06H541.12V1843.22H505.251V1754.35H540.104V1764.5ZM597.174 1843.22H584.16L581.239 1826.65H562.512L559.527 1843.22H547.466L564.479 1754.35H579.97L597.174 1843.22ZM640.278 1764.5H624.725V1843.22H612.281V1764.5H596.728V1754.35H640.278V1764.5ZM661.353 1843.22H648.91V1754.35H661.353V1843.22ZM763.367 1806.02C764.954 1811.16 766.16 1816.62 767.557 1823.98L768.89 1823.86C768.064 1814.65 767.43 1804.75 767.43 1796.56V1754.35H779.429V1843.22H764.51L748.702 1791.86C747.052 1786.4 745.845 1781.39 744.258 1773.07L742.988 1773.26C743.75 1781.96 744.321 1792.94 744.321 1800.94L744.385 1843.22H732.323V1754.35H747.623L763.367 1806.02ZM696.774 1762.85C689.156 1762.85 685.41 1768.76 685.41 1780.94V1816.94C685.41 1828.93 689.156 1834.71 696.838 1834.71C704.519 1834.71 708.201 1828.93 708.201 1816.94V1780.94C708.201 1768.76 704.519 1762.85 696.774 1762.85ZM571.209 1769.71C570.384 1779.23 569.495 1785.83 568.226 1793.32L564.162 1817.51H579.589L575.525 1793.32C574.256 1785.83 573.367 1779.23 572.479 1769.71H571.209ZM463.29 1792.56H470.781C477.511 1792.56 480.622 1789.39 480.622 1782.28V1774.47C480.622 1767.3 477.511 1764.25 470.781 1764.25H463.29V1792.56ZM531.853 1643.34C547.787 1643.34 555.85 1653.31 555.85 1672.73V1705.43C555.85 1724.79 547.787 1734.75 531.853 1734.75C515.981 1734.75 507.919 1724.79 507.919 1705.43V1672.73C507.919 1653.31 515.981 1643.34 531.853 1643.34ZM440.565 1733.48H427.552L424.631 1716.91H405.903L402.92 1733.48H390.857L407.871 1644.61H423.361L440.565 1733.48ZM480.368 1696.28C481.955 1701.43 483.161 1706.89 484.558 1714.25L485.891 1714.12C485.065 1704.92 484.431 1695.01 484.431 1686.83V1644.61H496.43V1733.48H481.511L465.703 1682.13C464.053 1676.67 462.846 1671.65 461.259 1663.34L459.989 1663.53C460.751 1672.23 461.322 1683.21 461.322 1691.21L461.386 1733.48H449.324V1644.61H464.624L480.368 1696.28ZM605.682 1654.77H590.128V1733.48H577.685V1654.77H562.131V1644.61H605.682V1654.77ZM626.756 1681.18H646.182V1644.61H658.562V1733.48H646.182V1691.21H626.756V1733.48H614.312V1644.61H626.756V1681.18ZM706.236 1654.77H683.826V1681.81H704.142V1691.14H683.826V1723.33H707.252V1733.48H671.383V1644.61H706.236V1654.77ZM738.927 1644.61C752.766 1644.61 759.877 1651.34 759.877 1664.35V1670.32C759.877 1680.16 755.179 1686 746.354 1687.33V1688.41C752.576 1690.06 755.116 1693.05 756.703 1703.9L758.227 1714.82C759.814 1725.74 761.147 1729.99 763.623 1732.09L763.369 1733.48H749.529C747.942 1729.86 747.053 1725.29 745.847 1715.14L744.577 1704.92C743.371 1694.7 741.34 1692.41 735.372 1692.41H730.103V1733.48H717.66V1644.61H738.927ZM531.853 1653.12C524.234 1653.12 520.488 1659.02 520.488 1671.21V1707.2C520.488 1719.2 524.234 1724.98 531.916 1724.98C539.598 1724.98 543.279 1719.2 543.279 1707.2V1671.21C543.279 1659.02 539.598 1653.12 531.853 1653.12ZM414.601 1659.98C413.775 1669.5 412.887 1676.1 411.617 1683.59L407.554 1707.77H422.98L418.918 1683.59C417.648 1676.1 416.759 1669.5 415.87 1659.98H414.601ZM730.103 1682.83H737.594C744.323 1682.83 747.435 1679.65 747.435 1672.54V1664.74C747.435 1657.56 744.323 1654.52 737.594 1654.52H730.103V1682.83Z" fill="#F6F3EC"/>
<path d="M827.428 1659.26V1828.57" stroke="#F6F3EC" stroke-width="4.57143"/>
<path d="M964.877 1636.7L957.153 1657.26C947.041 1641.12 933.839 1631.83 917.688 1631.83C891.003 1631.83 866.285 1657.26 866.285 1701.58C866.285 1734.02 879.347 1769.35 907.857 1788.38L882.436 1856H972.181C975.27 1833.77 980.326 1804.83 980.326 1767.82C980.326 1732.8 975.832 1701.73 967.125 1678.13L972.883 1662.59C979.484 1644.47 988.332 1640.36 1016 1640.36V1636.7H964.877ZM882.015 1709.19C882.015 1663.81 899.009 1635.48 920.918 1635.48C933.98 1635.48 945.777 1645.54 955.187 1662.44L909.823 1783.05C888.195 1763.86 882.015 1736.15 882.015 1709.19ZM902.941 1852.35L964.737 1684.52C972.883 1708.28 977.518 1739.04 976.675 1771.94C975.692 1810.16 967.405 1852.35 937.069 1852.35H902.941Z" fill="#F6F3EC"/>
</svg>
