<svg width="24" height="24" viewBox="0 0 24 24" fill="none" xmlns="http://www.w3.org/2000/svg">
<path d="M11 6.5L8.5 11M13 6.5L18 8.5M11.5 17.5L17 16.5M6 13.5L8.5 16.5M19.5 11L18 14.5" stroke="currentColor" stroke-width="1.5" stroke-linecap="round" stroke-linejoin="round"/>
<path d="M10 5A2 2 0 1 1 14 5A2 2 0 1 1 10 5Z M17 7A2 2 0 1 1 21 7A2 2 0 1 1 17 7Z M17 17A2 2 0 1 1 21 17A2 2 0 1 1 17 17Z M3 13A2 2 0 1 1 7 13A2 2 0 1 1 3 13Z M9 18A2 2 0 1 1 13 18A2 2 0 1 1 9 18Z" stroke="currentColor" stroke-width="1.5" stroke-linejoin="round"/>
</svg>
