<svg width="24" height="24" viewBox="0 0 24 24" fill="none" xmlns="http://www.w3.org/2000/svg">
<path d="M14.8696 12.208C17.1362 12.208 18.9736 10.3706 18.9736 8.104C18.9736 5.83743 17.1362 4 14.8696 4C12.6031 4 10.7656 5.83743 10.7656 8.104C10.7656 10.3706 12.6031 12.208 14.8696 12.208Z" stroke="currentColor" stroke-miterlimit="10"></path>
<path d="M7.48743 17.9524C8.84826 17.9524 9.95144 16.8492 9.95144 15.4884C9.95144 14.1276 8.84826 13.0244 7.48743 13.0244C6.1266 13.0244 5.02344 14.1276 5.02344 15.4884C5.02344 16.8492 6.1266 17.9524 7.48743 17.9524Z" stroke="currentColor" stroke-miterlimit="10"></path>
<path d="M15.6964 20.0003C16.8275 20.0003 17.7444 19.0834 17.7444 17.9523C17.7444 16.8212 16.8275 15.9043 15.6964 15.9043C14.5654 15.9043 13.6484 16.8212 13.6484 17.9523C13.6484 19.0834 14.5654 20.0003 15.6964 20.0003Z" stroke="currentColor" stroke-miterlimit="10"></path>
</svg>
