<svg width="24" height="24" viewBox="0 0 24 24" fill="none" xmlns="http://www.w3.org/2000/svg">
<path d="M11.9983 20.0024C16.4178 20.0024 20.0004 16.4197 20.0004 12.0002C20.0004 7.58074 16.4178 3.99805 11.9983 3.99805C7.57879 3.99805 3.99609 7.58074 3.99609 12.0002C3.99609 16.4197 7.57879 20.0024 11.9983 20.0024Z" stroke="currentColor" stroke-linecap="round" stroke-linejoin="round"></path>
<path d="M16.0011 12.0001C16.0011 14.2087 14.2086 16.0012 12 16.0012V7.99902C14.2086 7.99902 16.0011 9.79151 16.0011 12.0001Z" stroke="currentColor" stroke-linecap="round" stroke-linejoin="round"></path>
<path d="M11.9972 7.99902V16.0012C9.78858 16.0012 7.99609 14.2087 7.99609 12.0001C7.99609 9.79151 9.78858 7.99902 11.9972 7.99902Z" stroke="currentColor" stroke-linecap="round" stroke-linejoin="round"></path>
<path d="M12 20.0021V16.001" stroke="currentColor" stroke-linecap="round" stroke-linejoin="round"></path>
<path d="M12 7.99914V3.99805" stroke="currentColor" stroke-linecap="round" stroke-linejoin="round"></path>
</svg>
