<svg width="24" height="24" viewBox="0 0 24 24" fill="none" xmlns="http://www.w3.org/2000/svg">
<path d="M15 2C15.5523 2 16 2.44772 16 3V4H18C19.6569 4 21 5.34315 21 7V18C21 19.6569 19.6569 21 18 21H6C4.34315 21 3 19.6569 3 18V7C3 5.34315 4.34315 4 6 4H8V3C8 2.44772 8.44772 2 9 2C9.55228 2 10 2.44772 10 3V4H14V3C14 2.44772 14.4477 2 15 2ZM5 11V18C5 18.5523 5.44772 19 6 19H18C18.5523 19 19 18.5523 19 18V11H5ZM6 6C5.44772 6 5 6.44772 5 7V9H19V7C19 6.44772 18.5523 6 18 6H6Z" fill="currentColor"></path>
</svg>
