<svg width="24" height="24" viewBox="0 0 24 24" fill="none" xmlns="http://www.w3.org/2000/svg">
<path d="M12.0039 3.5C16.6983 3.5 20.5039 7.30558 20.5039 12C20.5039 16.6944 16.6983 20.5 12.0039 20.5C7.30949 20.5 3.50391 16.6944 3.50391 12C3.50391 7.30558 7.30949 3.5 12.0039 3.5ZM12.0039 4.5C7.86177 4.5 4.50391 7.85786 4.50391 12C4.50391 16.1421 7.86177 19.5 12.0039 19.5C16.146 19.5 19.5039 16.1421 19.5039 12C19.5039 7.85786 16.146 4.5 12.0039 4.5ZM12.0029 9.5C12.2791 9.5 12.5029 9.72386 12.5029 10V15.5H14.0039C14.28 15.5 14.5039 15.7239 14.5039 16C14.5039 16.2761 14.28 16.5 14.0039 16.5H10.0039C9.72776 16.5 9.50391 16.2761 9.50391 16C9.50391 15.7239 9.72776 15.5 10.0039 15.5H11.5029V10.5H10C9.72386 10.5 9.5 10.2761 9.5 10C9.5 9.72386 9.72386 9.5 10 9.5H12.0029ZM12 7.40039C12.2761 7.40039 12.5 7.62425 12.5 7.90039V8C12.5 8.27614 12.2761 8.5 12 8.5C11.7239 8.5 11.5 8.27614 11.5 8V7.90039C11.5 7.62425 11.7239 7.40039 12 7.40039Z" fill="currentColor"></path>
</svg>
