<svg width="24" height="24" viewBox="0 0 24 24" fill="none" xmlns="http://www.w3.org/2000/svg">
<path d="M12.0039 8.5C12.28 8.5 12.5039 8.72386 12.5039 9V18.5H16.0049C16.281 18.5 16.5049 18.7239 16.5049 19C16.5048 19.2761 16.281 19.5 16.0049 19.5H8.00781C7.73171 19.5 7.50788 19.2761 7.50781 19C7.50781 18.7239 7.73167 18.5 8.00781 18.5H11.5039V9.5H9C8.72386 9.5 8.5 9.27614 8.5 9C8.5 8.72386 8.72386 8.5 9 8.5H12.0039ZM12 4.5C12.2761 4.5 12.5 4.72386 12.5 5V5.09961C12.5 5.37575 12.2761 5.59961 12 5.59961C11.7239 5.59961 11.5 5.37575 11.5 5.09961V5C11.5 4.72386 11.7239 4.5 12 4.5Z" fill="currentColor"></path>
</svg>
