<svg width="24" height="24" viewBox="0 0 24 24" fill="none" xmlns="http://www.w3.org/2000/svg">
<path d="M12.0039 2.5C17.2506 2.5 21.5039 6.75329 21.5039 12C21.5039 17.2467 17.2506 21.5 12.0039 21.5C6.7572 21.5 2.50391 17.2467 2.50391 12C2.50391 6.75329 6.7572 2.5 12.0039 2.5ZM12.0039 3.5C7.30949 3.5 3.50391 7.30558 3.50391 12C3.50391 16.6944 7.30949 20.5 12.0039 20.5C16.6983 20.5 20.5039 16.6944 20.5039 12C20.5039 7.30558 16.6983 3.5 12.0039 3.5ZM12 11.5C12.2761 11.5 12.5 11.7239 12.5 12V16C12.5 16.2761 12.2761 16.5 12 16.5C11.7239 16.5 11.5 16.2761 11.5 16V12C11.5 11.7239 11.7239 11.5 12 11.5ZM12 7.5C12.2761 7.5 12.5 7.72386 12.5 8V9C12.5 9.27614 12.2761 9.5 12 9.5C11.7239 9.5 11.5 9.27614 11.5 9V8C11.5 7.72386 11.7239 7.5 12 7.5Z" fill="currentColor"></path>
</svg>
