<svg width="24" height="24" viewBox="0 0 24 24" fill="none" xmlns="http://www.w3.org/2000/svg">
<path d="M11.3 2.7A1 1 0 0 1 12.7 2.7L15.5 5.5A1 1 0 0 1 15.5 6.9L12.7 9.7A1 1 0 0 1 11.3 9.7L8.5 6.9A1 1 0 0 1 8.5 5.5L11.3 2.7Z M17.1 8.5A1 1 0 0 1 18.5 8.5L21.3 11.3A1 1 0 0 1 21.3 12.7L18.5 15.5A1 1 0 0 1 17.1 15.5L14.3 12.7A1 1 0 0 1 14.3 11.3L17.1 8.5Z M5.5 8.5A1 1 0 0 1 6.9 8.5L9.7 11.3A1 1 0 0 1 9.7 12.7L6.9 15.5A1 1 0 0 1 5.5 15.5L2.7 12.7A1 1 0 0 1 2.7 11.3L5.5 8.5Z M11.3 14.3A1 1 0 0 1 12.7 14.3L15.5 17.1A1 1 0 0 1 15.5 18.5L12.7 21.3A1 1 0 0 1 11.3 21.3L8.5 18.5A1 1 0 0 1 8.5 17.1L11.3 14.3Z" fill="currentColor"/>
</svg>
