<svg width="24" height="24" viewBox="0 0 24 24" fill="none" xmlns="http://www.w3.org/2000/svg">
<path d="M17.2745 6.62251C17.3768 6.21614 17.1962 5.79145 16.8319 5.58211L15.1672 4.62546C14.8033 4.41638 14.3445 4.47278 14.0426 4.7637L12.6543 6.1014C12.2895 6.45298 11.7105 6.45298 11.3457 6.1014L9.95746 4.7637C9.65555 4.47278 9.19669 4.41637 8.83285 4.62545L7.16814 5.58211C6.80386 5.79144 6.62318 6.21613 6.72552 6.6225L7.19458 8.48507C7.31822 8.97605 7.02839 9.47617 6.53976 9.61497L4.68311 10.1424C4.27881 10.2572 4 10.6252 4 11.0441L4 12.9559C4 13.3747 4.27881 13.7427 4.68311 13.8576L6.53976 14.385C7.02839 14.5238 7.31822 15.0239 7.19458 15.5149L6.7255 17.3775C6.62316 17.7839 6.80383 18.2086 7.16811 18.4179L8.83278 19.3745C9.19662 19.5836 9.65548 19.5272 9.95739 19.2363L11.3457 17.8985C11.7105 17.547 12.2895 17.547 12.6543 17.8985L14.0426 19.2363C14.3445 19.5272 14.8034 19.5836 15.1672 19.3745L16.8319 18.4179C17.1962 18.2086 17.3769 17.7839 17.2745 17.3775L16.8054 15.5149C16.6818 15.0239 16.9716 14.5238 17.4602 14.385L19.3169 13.8576C19.7212 13.7427 20 13.3747 20 12.9559V11.0441C20 10.6252 19.7212 10.2572 19.3169 10.1424L17.4602 9.61497C16.9716 9.47617 16.6818 8.97605 16.8054 8.48507L17.2745 6.62251Z M9.5 12C9.5 13.3807 10.6193 14.5 12 14.5C13.3807 14.5 14.5 13.3807 14.5 12C14.5 10.6193 13.3807 9.5 12 9.5C10.6193 9.5 9.5 10.6193 9.5 12Z" fill="currentColor" fill-rule="evenodd" clip-rule="evenodd"></path>
</svg>
