<svg width="24" height="24" viewBox="0 0 24 24" fill="none" xmlns="http://www.w3.org/2000/svg">
<path d="M6.62251 6.72551C6.21614 6.62317 5.79145 6.80385 5.58211 7.16813L4.62546 8.83285C4.41638 9.19668 4.47278 9.65554 4.7637 9.95745L6.1014 11.3457C6.45298 11.7105 6.45298 12.2895 6.1014 12.6543L4.7637 14.0425C4.47278 14.3445 4.41637 14.8033 4.62545 15.1671L5.58211 16.8319C5.79144 17.1961 6.21613 17.3768 6.6225 17.2745L8.48507 16.8054C8.97605 16.6818 9.47617 16.9716 9.61497 17.4602L10.1424 19.3169C10.2572 19.7212 10.6252 20 11.0441 20H12.9559C13.3747 20 13.7427 19.7212 13.8576 19.3169L14.385 17.4602C14.5238 16.9716 15.0239 16.6818 15.5149 16.8054L17.3775 17.2745C17.7839 17.3768 18.2086 17.1962 18.4179 16.8319L19.3745 15.1672C19.5836 14.8034 19.5272 14.3445 19.2363 14.0426L17.8985 12.6543C17.547 12.2895 17.547 11.7105 17.8985 11.3457L19.2363 9.95738C19.5272 9.65547 19.5836 9.19661 19.3745 8.83278L18.4179 7.1681C18.2086 6.80383 17.7839 6.62315 17.3775 6.72549L15.5149 7.19457C15.0239 7.31821 14.5238 7.02838 14.385 6.53975L13.8576 4.68311C13.7427 4.27881 13.3747 4 12.9559 4H11.0441C10.6252 4 10.2572 4.27881 10.1424 4.68311L9.61497 6.53975C9.47617 7.02838 8.97605 7.31821 8.48507 7.19457L6.62251 6.72551Z M12 14.5C13.3807 14.5 14.5 13.3807 14.5 12C14.5 10.6193 13.3807 9.5 12 9.5C10.6193 9.5 9.5 10.6193 9.5 12C9.5 13.3807 10.6193 14.5 12 14.5Z" fill="currentColor" fill-rule="evenodd" clip-rule="evenodd"></path>
</svg>
