<svg width="24" height="24" viewBox="0 0 24 24" fill="none" xmlns="http://www.w3.org/2000/svg">
<path d="M11.8887 2C17.35 2.00012 21.7772 6.42736 21.7773 11.8887C21.7772 17.35 17.35 21.7772 11.8887 21.7773C6.42736 21.7772 2.00012 17.35 2 11.8887C2.00012 6.42736 6.42736 2.00012 11.8887 2ZM11.8887 4C7.53193 4.00012 4.00012 7.53193 4 11.8887C4.00012 16.2454 7.53193 19.7772 11.8887 19.7773C16.2454 19.7772 19.7772 16.2454 19.7773 11.8887C19.7772 7.53193 16.2454 4.00012 11.8887 4ZM11.8896 8.66602C12.4419 8.66607 12.8896 9.11377 12.8896 9.66602V15.333H14.1123C14.6646 15.333 15.1123 15.7807 15.1123 16.333C15.1123 16.8853 14.6646 17.333 14.1123 17.333H9.66797C9.11568 17.333 8.66797 16.8853 8.66797 16.333C8.66797 15.7807 9.11568 15.333 9.66797 15.333H10.8896V10.666H9.66406C9.11178 10.666 8.66406 10.2183 8.66406 9.66602C8.66406 9.11373 9.11178 8.66602 9.66406 8.66602H11.8896ZM11.8867 5.33301C12.4389 5.33301 12.8866 5.78082 12.8867 6.33301V6.44434C12.8867 6.99662 12.439 7.44434 11.8867 7.44434C11.3344 7.44434 10.8867 6.99662 10.8867 6.44434V6.33301C10.8868 5.78082 11.3345 5.33301 11.8867 5.33301Z" fill="currentColor"></path>
</svg>
