<svg width="24" height="24" viewBox="0 0 24 24" fill="none" xmlns="http://www.w3.org/2000/svg">
<path d="M3.43916 16.2225L5.70665 3.36291C5.74119 3.16703 5.85213 2.99289 6.01506 2.8788C6.178 2.76471 6.37958 2.72002 6.57546 2.75456L11.7455 3.66619C11.9414 3.70073 12.1156 3.81167 12.2297 3.9746C12.3438 4.13754 12.3884 4.33912 12.3539 4.535L10.0748 17.4602C9.92138 18.3305 9.43272 19.1058 8.71383 19.6197C7.99494 20.1336 7.10317 20.345 6.23008 20.2086C4.36051 19.9157 3.11055 18.0861 3.43916 16.2225Z M6.74997 17.8124C7.26772 17.8124 7.68744 17.3927 7.68744 16.875C7.68744 16.3572 7.26772 15.9375 6.74997 15.9375C6.23222 15.9375 5.8125 16.3572 5.8125 16.875C5.8125 17.3927 6.23222 17.8124 6.74997 17.8124Z" fill="currentColor" fill-rule="evenodd" clip-rule="evenodd"/>
</svg>
