<svg width="24" height="24" viewBox="0 0 24 24" fill="none" xmlns="http://www.w3.org/2000/svg">
<path d="M18.4044 5.60284C19.3061 6.50422 19.4119 7.31608 19.3368 7.87704C19.2976 8.16956 19.2065 8.41192 19.1247 8.58057C19.0841 8.6644 19.0468 8.7289 19.0211 8.76974C19.0135 8.7819 19.0063 8.79158 19.0011 8.79943L11.3002 16.4975C11.239 16.5586 11.1627 16.6029 11.0792 16.6259L6.82062 17.7982C6.4465 17.9012 6.10222 17.557 6.20524 17.1831L7.37798 12.926C7.40096 12.8426 7.44527 12.7663 7.50644 12.7051L15.2094 5.00495C15.2168 4.99999 15.2261 4.99387 15.237 4.98699C15.2779 4.96132 15.3417 4.92336 15.4255 4.88274C15.5942 4.80104 15.8367 4.71 16.1293 4.67079C16.6904 4.59567 17.5027 4.70161 18.4044 5.60284Z" fill="currentColor" fill-rule="evenodd" clip-rule="evenodd"></path>
</svg>
