<svg width="24" height="24" viewBox="0 0 24 24" fill="none" xmlns="http://www.w3.org/2000/svg">
<path d="M16.0357 4.68084C16.0357 4.68084 16.5078 4.29376 16.7898 4.17694C17.0718 4.06013 17.3741 4 17.6794 4C17.9846 4 18.2869 4.06013 18.5689 4.17694C18.851 4.29376 19.1072 4.46499 19.3231 4.68084C19.5389 4.89669 19.7101 5.15295 19.827 5.43497C19.9438 5.717 20.0039 6.01927 20.0039 6.32453C20.0039 6.6298 19.9438 6.93207 19.827 7.21409C19.7101 7.49612 19.3231 7.96823 19.3231 7.96823C19.3231 7.96823 11.8559 17.6 8.22814 19.0632C7.33294 19.4242 6.12426 19.7474 5.182 19.9722C4.47977 20.1397 3.86417 19.5241 4.03171 18.8219C4.25651 17.8796 4.57971 16.671 4.94075 15.7758C6.4039 12.148 16.0357 4.68084 16.0357 4.68084Z" fill="currentColor" fill-rule="evenodd" clip-rule="evenodd"></path>
</svg>
