<svg width="24" height="24" viewBox="0 0 24 24" fill="none" xmlns="http://www.w3.org/2000/svg">
<path d="M16.813 4.419C16.7207 4.28935 16.5988 4.18367 16.4574 4.11077C16.3159 4.03788 16.1591 3.9999 16 4H2.99997C2.81634 4.00017 2.6363 4.05089 2.47958 4.14662C2.32287 4.24235 2.19555 4.37938 2.11157 4.54269C2.02759 4.706 1.9902 4.88928 2.0035 5.07243C2.01681 5.25558 2.08028 5.43154 2.18697 5.581L6.77097 12L2.18597 18.419C2.07923 18.5685 2.01575 18.7446 2.00249 18.9278C1.98923 19.1111 2.0267 19.2944 2.1108 19.4578C2.1949 19.6211 2.32237 19.7581 2.47923 19.8538C2.63608 19.9494 2.81625 20 2.99997 20H16C16.1591 20.0001 16.3159 19.9621 16.4574 19.8892C16.5988 19.8163 16.7207 19.7106 16.813 19.581L21.813 12.581C21.9344 12.4116 21.9998 12.2084 21.9998 12C21.9998 11.7916 21.9344 11.5884 21.813 11.419L16.813 4.419ZM15.485 18H4.94297L8.81297 12.581C8.93444 12.4116 8.99976 12.2084 8.99976 12C8.99976 11.7916 8.93444 11.5884 8.81297 11.419L4.94297 6H15.485L19.771 12L15.485 18Z" fill="currentColor"></path>
</svg>
