<svg width="24" height="24" viewBox="0 0 24 24" fill="none" xmlns="http://www.w3.org/2000/svg">
<path d="M9.74984 13.4996C9.74984 14.0963 9.98689 14.6686 10.4088 15.0906C10.8308 15.5125 11.4031 15.7495 11.9998 15.7495C12.5965 15.7495 13.1688 15.5125 13.5907 15.0906C14.0127 14.6686 14.2497 14.0963 14.2497 13.4996V5.24986C14.2497 5.05095 14.3287 4.86019 14.4694 4.71954C14.61 4.57889 14.8008 4.49988 14.9997 4.49988H18.7496C18.9485 4.49988 19.1392 4.57889 19.2799 4.71954C19.4205 4.86019 19.4996 5.05095 19.4996 5.24986V13.4055C19.4996 17.5408 16.1919 20.9685 12.0566 20.9992C11.067 21.0067 10.0857 20.8182 9.16919 20.4447C8.25271 20.0712 7.41923 19.52 6.71678 18.8228C6.01433 18.1257 5.4568 17.2964 5.07634 16.3828C4.69588 15.4692 4.5 14.4893 4.5 13.4996V5.24986C4.5 5.05095 4.57902 4.86019 4.71966 4.71954C4.86031 4.57889 5.05107 4.49988 5.24998 4.49988H8.99987C9.19877 4.49988 9.38953 4.57889 9.53018 4.71954C9.67083 4.86019 9.74984 5.05095 9.74984 5.24986V13.4996Z" fill="currentColor" fill-rule="evenodd" clip-rule="evenodd"/>
</svg>
