<svg width="24" height="24" viewBox="0 0 24 24" fill="none" xmlns="http://www.w3.org/2000/svg">
<path d="M20.0039 2.5C20.8323 2.5 21.5039 3.17157 21.5039 4V20C21.5039 20.8284 20.8323 21.5 20.0039 21.5H4.00391C3.17548 21.5 2.50391 20.8284 2.50391 20V4C2.50391 3.17157 3.17548 2.5 4.00391 2.5H20.0039ZM4.00391 3.5C3.72776 3.5 3.50391 3.72386 3.50391 4V20C3.50391 20.2761 3.72776 20.5 4.00391 20.5H20.0039C20.28 20.5 20.5039 20.2761 20.5039 20V4C20.5039 3.72386 20.28 3.5 20.0039 3.5H4.00391ZM17.333 13.9658C17.5283 13.7707 17.8448 13.7706 18.04 13.9658C18.2351 14.161 18.2351 14.4776 18.04 14.6729L16.7119 16L18.04 17.3281C18.235 17.5234 18.2352 17.84 18.04 18.0352C17.8449 18.2303 17.5283 18.2301 17.333 18.0352L16.0049 16.707L14.6777 18.0352C14.4825 18.2302 14.1659 18.2302 13.9707 18.0352C13.7755 17.8399 13.7756 17.5234 13.9707 17.3281L15.2979 16L13.9707 14.6729C13.7754 14.4776 13.7754 14.1611 13.9707 13.9658C14.166 13.7706 14.4825 13.7706 14.6777 13.9658L16.0049 15.293L17.333 13.9658ZM10.0039 16.5C10.28 16.5 10.5039 16.7239 10.5039 17C10.5039 17.2761 10.28 17.5 10.0039 17.5H6.00391C5.72776 17.5 5.50391 17.2761 5.50391 17C5.50391 16.7239 5.72776 16.5 6.00391 16.5H10.0039ZM10.0039 14.5C10.28 14.5 10.5039 14.7239 10.5039 15C10.5039 15.2761 10.28 15.5 10.0039 15.5H6.00391C5.72776 15.5 5.50391 15.2761 5.50391 15C5.50391 14.7239 5.72776 14.5 6.00391 14.5H10.0039ZM8.00391 5.5C8.28005 5.5 8.50391 5.72386 8.50391 6V7.5H10.0039C10.28 7.5 10.5039 7.7239 10.5039 8C10.5039 8.27614 10.28 8.5 10.0039 8.5H8.50391V10C8.50391 10.2761 8.28005 10.5 8.00391 10.5C7.72776 10.5 7.50391 10.2761 7.50391 10V8.5H6.00391C5.72776 8.5 5.50391 8.27614 5.50391 8C5.50395 7.7239 5.72779 7.5 6.00391 7.5H7.50391V6C7.50391 5.72386 7.72776 5.5 8.00391 5.5ZM17.6611 7.5C17.9371 7.50015 18.1611 7.72395 18.1611 8C18.1611 8.27605 17.9371 8.49985 17.6611 8.5H14.3477C14.0715 8.5 13.8477 8.27614 13.8477 8C13.8477 7.72386 14.0715 7.5 14.3477 7.5H17.6611Z" fill="currentColor"></path>
</svg>
