<svg width="24" height="24" viewBox="0 0 24 24" fill="none" xmlns="http://www.w3.org/2000/svg">
<path d="M8.99984 20.2495H4.49998C4.30107 20.2495 4.11031 20.1705 3.96966 20.0298C3.82902 19.8892 3.75 19.6984 3.75 19.4995V15.3103C3.75 15.2118 3.7694 15.1143 3.80709 15.0233C3.84478 14.9323 3.90002 14.8496 3.96966 14.78L15.2193 3.53033C15.36 3.38968 15.5507 3.31067 15.7496 3.31067C15.9485 3.31067 16.1393 3.38968 16.28 3.53033L20.4692 7.71955C20.6098 7.86019 20.6888 8.05095 20.6888 8.24986C20.6888 8.44877 20.6098 8.63953 20.4692 8.78017L8.99984 20.2495Z" fill="currentColor" fill-rule="evenodd" clip-rule="evenodd"/>
</svg>
