<svg width="24" height="24" viewBox="0 0 24 24" fill="none" xmlns="http://www.w3.org/2000/svg">
<path d="M11.9999 14.2499C13.0354 14.2499 13.8749 13.4104 13.8749 12.3749C13.8749 11.3394 13.0354 10.5 11.9999 10.5C10.9644 10.5 10.125 11.3394 10.125 12.3749C10.125 13.4104 10.9644 14.2499 11.9999 14.2499Z M6.75048 6.75L4.18306 11.9465C4.12214 12.0698 4.09629 12.2075 4.10836 12.3445C4.12043 12.4815 4.16994 12.6125 4.25147 12.7233L12.0003 23.2495L19.7491 12.7233C19.8307 12.6125 19.8802 12.4814 19.8922 12.3444C19.9043 12.2074 19.8785 12.0697 19.8175 11.9464L17.2502 6.75H6.75048Z" fill="currentColor" fill-rule="evenodd" clip-rule="evenodd"/>
</svg>
