<svg width="24" height="24" viewBox="0 0 24 24" fill="none" xmlns="http://www.w3.org/2000/svg">
<path d="M10.8749 14.9999C11.9104 14.9999 12.7499 14.1604 12.7499 13.1249C12.7499 12.0894 11.9104 11.25 10.8749 11.25C9.83944 11.25 9 12.0894 9 13.1249C9 14.1604 9.83944 14.9999 10.8749 14.9999Z M3 20.9998L16.0726 18.821C16.2025 18.7994 16.3243 18.7439 16.4259 18.6603C16.5275 18.5767 16.6054 18.4678 16.6516 18.3446L18.7495 12.75L11.2498 5.25024L5.65521 7.3482C5.53199 7.39441 5.42309 7.47223 5.33946 7.57386C5.25583 7.67548 5.20041 7.79731 5.17878 7.92713L3 20.9998Z" fill="currentColor" fill-rule="evenodd" clip-rule="evenodd"/>
</svg>
