<svg width="24" height="24" viewBox="0 0 24 24" fill="none" xmlns="http://www.w3.org/2000/svg">
<path d="M14.4705 2.78033L8.62599 8.62483C8.62599 8.62483 6.02507 7.32437 3.24502 9.56703C3.16293 9.63312 3.09565 9.71574 3.04758 9.80952C2.9995 9.90331 2.97169 10.0062 2.96596 10.1114C2.96022 10.2166 2.9767 10.3219 3.0143 10.4203C3.05191 10.5188 3.10981 10.6082 3.18424 10.6828L13.2992 20.7978C13.375 20.8738 13.4662 20.9326 13.5666 20.9702C13.667 21.0079 13.7744 21.0236 13.8814 21.0162C13.9884 21.0088 14.0926 20.9785 14.1869 20.9274C14.2812 20.8763 14.3634 20.8055 14.428 20.7199C15.2148 19.674 16.4506 17.5243 15.3758 15.3746L21.2203 9.53013C21.3609 9.38948 21.4399 9.19872 21.4399 8.99982C21.4399 8.80091 21.3609 8.61015 21.2203 8.4695L15.5311 2.78033C15.3905 2.63968 15.1997 2.56067 15.0008 2.56067C14.8019 2.56067 14.6111 2.63968 14.4705 2.78033V2.78033Z" fill="currentColor" fill-rule="evenodd" clip-rule="evenodd"/>
</svg>
