<svg width="24" height="24" viewBox="0 0 24 24" fill="none" xmlns="http://www.w3.org/2000/svg">
<g clip-path="url(#clip0_1_7312)">
<path d="M14.7832 10.6029C14.6716 10.4387 14.6297 10.237 14.6666 10.0419C14.7035 9.84688 14.8162 9.6744 14.9801 9.56233L21.3268 5.22183C21.4909 5.11024 21.6927 5.0683 21.8877 5.1052C22.0828 5.14211 22.2553 5.25484 22.3674 5.4187C22.4238 5.49958 22.4636 5.59094 22.4843 5.6874C22.505 5.78386 22.5062 5.88348 22.4879 5.98042C22.4695 6.07735 22.432 6.16965 22.3775 6.25188C22.323 6.33412 22.2526 6.40464 22.1705 6.45929L15.8332 10.7998C15.7068 10.8879 15.5559 10.9338 15.4019 10.931C15.2799 10.9308 15.1597 10.9008 15.0519 10.8436C14.9441 10.7865 14.8519 10.7038 14.7832 10.6029ZM22.3674 18.5808C22.2993 18.6823 22.2072 18.7654 22.0992 18.8226C21.9913 18.8799 21.8708 18.9095 21.7486 18.9089C21.5982 18.9074 21.4515 18.8618 21.3268 18.7777L12.7489 12.9091L8.76463 15.6371C8.91886 16.0315 8.99834 16.4512 8.999 16.8746C9.00145 17.6523 8.73597 18.4071 8.24724 19.012C7.75851 19.617 7.07635 20.0351 6.3155 20.1962C5.55466 20.3572 4.76157 20.2513 4.06966 19.8962C3.37774 19.5412 2.82922 18.9587 2.51638 18.2467C2.20353 17.5347 2.14545 16.7366 2.3519 15.9868C2.55835 15.2371 3.01673 14.5812 3.64994 14.1297C4.28315 13.6782 5.05255 13.4586 5.82869 13.5077C6.60483 13.5569 7.34036 13.8719 7.91153 14.3997L11.4177 11.9998L7.91153 9.59983C7.29184 10.1807 6.47349 10.5027 5.6241 10.4998C4.90259 10.4997 4.20011 10.2683 3.61974 9.83962C3.03936 9.41097 2.61164 8.8076 2.39932 8.11803C2.187 7.42846 2.20126 6.689 2.44001 6.00814C2.67877 5.32727 3.12944 4.74084 3.72591 4.33488C4.32238 3.92892 5.03326 3.72481 5.75424 3.75248C6.47522 3.78016 7.16836 4.03817 7.73195 4.48865C8.29555 4.93914 8.69994 5.55839 8.8858 6.25556C9.07165 6.95272 9.02919 7.6911 8.76463 8.36236L22.1705 17.5402C22.2526 17.5949 22.323 17.6654 22.3775 17.7476C22.432 17.8299 22.4695 17.9222 22.4879 18.0191C22.5062 18.116 22.505 18.2156 22.4843 18.3121C22.4636 18.4086 22.4238 18.4999 22.3674 18.5808ZM7.49905 16.8746C7.49956 16.6285 7.4509 16.3849 7.35591 16.1579C7.26093 15.9309 7.12154 15.7251 6.94594 15.5528C6.77324 15.3776 6.56746 15.2385 6.34053 15.1436C6.11361 15.0486 5.87008 14.9997 5.6241 14.9997C5.37812 14.9997 5.13459 15.0486 4.90767 15.1436C4.68075 15.2385 4.47496 15.3776 4.30227 15.5528C4.1271 15.7255 3.988 15.9313 3.89306 16.1582C3.79812 16.3851 3.74923 16.6286 3.74923 16.8746C3.74923 17.1206 3.79812 17.3641 3.89306 17.591C3.988 17.818 4.1271 18.0237 4.30227 18.1964C4.4756 18.3705 4.68159 18.5086 4.90843 18.6028C5.13526 18.697 5.37847 18.7455 5.6241 18.7455C5.86973 18.7455 6.11294 18.697 6.33978 18.6028C6.56661 18.5086 6.77261 18.3705 6.94594 18.1964C7.12154 18.0241 7.26093 17.8183 7.35591 17.5914C7.4509 17.3644 7.49956 17.1207 7.49905 16.8746ZM6.94594 8.44673C7.12111 8.27404 7.2602 8.06825 7.35515 7.84133C7.45009 7.61441 7.49898 7.37088 7.49898 7.1249C7.49898 6.87892 7.45009 6.63539 7.35515 6.40847C7.2602 6.18155 7.12111 5.97576 6.94594 5.80306C6.77324 5.6279 6.56746 5.4888 6.34053 5.39386C6.11361 5.29892 5.87008 5.25002 5.6241 5.25002C5.37812 5.25002 5.13459 5.29892 4.90767 5.39386C4.68075 5.4888 4.47496 5.6279 4.30227 5.80306C4.1271 5.97576 3.988 6.18155 3.89306 6.40847C3.79812 6.63539 3.74923 6.87892 3.74923 7.1249C3.74923 7.37088 3.79812 7.61441 3.89306 7.84133C3.988 8.06825 4.1271 8.27404 4.30227 8.44673C4.4756 8.62077 4.68159 8.75887 4.90843 8.8531C5.13526 8.94733 5.37847 8.99583 5.6241 8.99583C5.86973 8.99583 6.11294 8.94733 6.33978 8.8531C6.56661 8.75887 6.77261 8.62077 6.94594 8.44673Z" fill="currentColor"></path>
</g>
<defs>
<clipPath id="clip0_1_7312">
<rect width="23.9993" height="23.9993" fill="currentColor"></rect>
</clipPath>
</defs>
</svg>
