<svg width="24" height="24" viewBox="0 0 24 24" fill="none" xmlns="http://www.w3.org/2000/svg">
<path d="M14.5752 3.5C15.7623 3.5 16.751 3.90156 17.4443 4.58398C18.1359 5.26485 18.5039 6.19658 18.5039 7.2002V16.7998C18.5039 17.8034 18.1359 18.7351 17.4443 19.416C16.751 20.0984 15.7623 20.5 14.5752 20.5H9.43262C8.24552 20.5 7.25683 20.0984 6.56348 19.416C5.87192 18.7351 5.50391 17.8034 5.50391 16.7998V7.2002C5.50391 6.19658 5.87191 5.26485 6.56348 4.58398C7.25683 3.90156 8.24552 3.5 9.43262 3.5H14.5752ZM6.50391 16.7998C6.50391 17.556 6.77886 18.225 7.26562 18.7041C7.75085 19.1815 8.4771 19.5 9.43262 19.5H14.5752C15.5307 19.5 16.257 19.1815 16.7422 18.7041C17.229 18.225 17.5039 17.556 17.5039 16.7998V15.5H6.50391V16.7998ZM4.00391 5.5C4.28005 5.5 4.50391 5.72386 4.50391 6V18C4.50391 18.2761 4.28005 18.5 4.00391 18.5C3.72776 18.5 3.50391 18.2761 3.50391 18V6C3.50391 5.72386 3.72776 5.5 4.00391 5.5ZM20.0039 5.5C20.28 5.5 20.5039 5.72386 20.5039 6V18C20.5039 18.2761 20.28 18.5 20.0039 18.5C19.7278 18.5 19.5039 18.2761 19.5039 18V6C19.5039 5.72386 19.7278 5.5 20.0039 5.5ZM9.43262 4.5C8.4771 4.5 7.75085 4.81852 7.26562 5.2959C6.77886 5.775 6.50391 6.44399 6.50391 7.2002V14.5H17.5039V7.2002C17.5039 6.44399 17.229 5.775 16.7422 5.2959C16.257 4.81852 15.5307 4.5 14.5752 4.5H9.43262Z" fill="currentColor"></path>
</svg>
