<svg xmlns="http://www.w3.org/2000/svg" viewBox="0 0 24 24" width="24" height="24" fill="currentColor"><path d="M12 9.5 L13.5 10.4 V12.6 L12 13.5 L10.5 12.6 V10.4 Z" /><path d="M19 10.5 L20.3 11.25 L20.3 12.75 L19 13.5 L17.7 12.75 L17.7 11.25 Z" /><path d="M15.5 16.56217782649107 L16.8 17.31217782649107 L16.8 18.81217782649107 L15.5 19.56217782649107 L14.2 18.81217782649107 L14.2 17.31217782649107 Z" /><path d="M8.500000000000002 16.562177826491073 L9.800000000000002 17.312177826491073 L9.800000000000002 18.812177826491073 L8.500000000000002 19.562177826491073 L7.200000000000002 18.812177826491073 L7.200000000000002 17.312177826491073 Z" /><path d="M5 10.5 L6.3 11.25 L6.3 12.75 L5 13.5 L3.7 12.75 L3.7 11.25 Z" /><path d="M8.499999999999996 4.4378221735089305 L9.799999999999997 5.1878221735089305 L9.799999999999997 6.6878221735089305 L8.499999999999996 7.4378221735089305 L7.199999999999997 6.6878221735089305 L7.199999999999997 5.1878221735089305 Z" /><path d="M15.5 4.43782217350893 L16.8 5.18782217350893 L16.8 6.68782217350893 L15.5 7.43782217350893 L14.2 6.68782217350893 L14.2 5.18782217350893 Z" /></svg>
