<svg width="24" height="24" viewBox="0 0 24 24" fill="none" xmlns="http://www.w3.org/2000/svg">
<path d="M6.87304 7.24219C9.70356 4.41167 14.2964 4.41168 17.127 7.24219C19.9575 10.0727 19.9575 14.6656 17.127 17.4961C14.2964 20.3266 9.70356 20.3266 6.87304 17.4961C4.04252 14.6656 4.04252 10.0727 6.87304 7.24219ZM15.7129 8.65625C13.6634 6.60679 10.3366 6.60678 8.28711 8.65625C6.23763 10.7057 6.23763 14.0326 8.28711 16.082C10.3366 18.1315 13.6634 18.1315 15.7129 16.082C17.7624 14.0326 17.7624 10.7057 15.7129 8.65625Z" fill="currentColor"></path>
<path d="M2.21875 10.1367C2.76641 10.2075 3.15363 10.7092 3.08301 11.2568C2.83983 13.1392 3.18127 15.1069 4.20605 16.8779L4.20703 16.8789C5.25116 18.6881 6.82372 19.9905 8.62207 20.71C9.13485 20.9151 9.3848 21.498 9.17968 22.0107C8.9745 22.5232 8.3925 22.7723 7.87988 22.5674C5.67841 21.6868 3.75039 20.0895 2.47461 17.8789C1.22032 15.7105 0.802907 13.2979 1.09961 11.001C1.17035 10.4534 1.67117 10.0662 2.21875 10.1367Z" fill="currentColor"></path>
<path d="M12.002 1.35938C14.5023 1.35946 16.8028 2.20883 18.6475 3.61426C19.0867 3.94898 19.1716 4.57634 18.8369 5.01562C18.5022 5.45472 17.8748 5.53961 17.4355 5.20508C15.9204 4.05066 14.0412 3.35946 12.002 3.35938C9.91381 3.35938 7.99857 4.06904 6.46777 5.2666C6.03279 5.60691 5.40378 5.53068 5.06347 5.0957C4.72329 4.66073 4.80042 4.03168 5.23535 3.69141C7.10449 2.22913 9.45025 1.35938 12.002 1.35938Z" fill="currentColor"></path>
<path d="M21.7822 10.1367C22.3298 10.0662 22.8306 10.4534 22.9014 11.001C23.1981 13.298 22.7799 15.7094 21.5254 17.8779C20.2496 20.0886 18.3226 21.6868 16.1211 22.5674C15.6085 22.7723 15.0265 22.5232 14.8213 22.0107C14.6162 21.498 14.8661 20.9151 15.3789 20.71C17.1773 19.9905 18.7498 18.6881 19.7939 16.8789L19.7949 16.8779C20.8197 15.1069 21.1611 13.1392 20.918 11.2568C20.8473 10.7092 21.2346 10.2075 21.7822 10.1367Z" fill="currentColor"></path>
</svg>
