<svg width="24" height="24" viewBox="0 0 24 24" fill="none" xmlns="http://www.w3.org/2000/svg">
<path d="M8.74022 2.34304C10.4761 0.607146 13.282 0.55599 15.0908 2.178L15.2627 2.34108L21.6553 8.73268L21.6572 8.73561C23.4429 10.5341 23.4469 13.4652 21.6553 15.2571L15.2646 21.6477C13.4727 23.4393 10.5416 23.4354 8.74315 21.6497L8.74022 21.6477L2.35057 15.2571C0.55886 13.4652 0.562893 10.5341 2.34862 8.73561L2.35057 8.73268L8.74022 2.34304ZM13.6543 3.58132C12.6257 2.75002 11.1003 2.81238 10.1553 3.7571L3.76464 10.1477C2.75331 11.1694 2.75767 12.8359 3.76464 13.843L10.1553 20.2327C11.1769 21.2449 12.8431 21.2401 13.8506 20.2327L20.2402 13.843C21.2477 12.8356 21.2525 11.1684 20.2402 10.1467L13.8535 3.76003L13.6543 3.58132Z" fill="currentColor"></path>
<path d="M5.54296 5.54323C5.93348 5.15271 6.56649 5.15271 6.95702 5.54323L18.457 17.0432C18.8475 17.4338 18.8475 18.0668 18.457 18.4573C18.0665 18.8478 17.4335 18.8478 17.043 18.4573L5.54296 6.95729C5.15243 6.56677 5.15243 5.93375 5.54296 5.54323Z" fill="currentColor"></path>
<path d="M17.043 5.54323C17.4335 5.15271 18.0665 5.15271 18.457 5.54323C18.8475 5.93375 18.8475 6.56677 18.457 6.95729L6.95702 18.4573C6.56649 18.8478 5.93348 18.8478 5.54296 18.4573C5.15243 18.0668 5.15243 17.4338 5.54296 17.0432L17.043 5.54323Z" fill="currentColor"></path>
</svg>
