<svg width="24" height="24" viewBox="0 0 24 24" fill="none" xmlns="http://www.w3.org/2000/svg">
<path d="M10.7032 3.74854L2.45569 17.9974C2.32372 18.2254 2.25412 18.4841 2.25391 18.7476C2.25369 19.011 2.32286 19.2699 2.45445 19.4981C2.58604 19.7263 2.77542 19.9158 3.00353 20.0476C3.23164 20.1794 3.49043 20.2488 3.75387 20.2488H20.2489C20.5124 20.2488 20.7711 20.1794 20.9993 20.0476C21.2274 19.9158 21.4167 19.7263 21.5483 19.4981C21.6799 19.2699 21.7491 19.011 21.7489 18.7476C21.7487 18.4841 21.6791 18.2254 21.5471 17.9974L13.2996 3.74854C13.1678 3.52091 12.9785 3.33192 12.7507 3.20054C12.5228 3.06916 12.2644 3 12.0014 3C11.7384 3 11.48 3.06916 11.2521 3.20054C11.0243 3.33192 10.835 3.52091 10.7032 3.74854V3.74854Z" fill="currentColor" fill-rule="evenodd" clip-rule="evenodd"></path>
</svg>
