<svg width="24" height="24" viewBox="0 0 24 24" fill="none" xmlns="http://www.w3.org/2000/svg">
<g clip-path="url(#clip0_1_7968)">
<path fill-rule="evenodd" clip-rule="evenodd" d="M10.0594 19.2439C11.3304 19.5866 12.67 19.5868 13.9413 19.2448C14.2077 19.1733 14.4816 19.3311 14.5536 19.5974C14.6253 19.864 14.4676 20.1389 14.201 20.2107C12.7595 20.5984 11.2409 20.5973 9.79967 20.2087C9.53319 20.1368 9.37537 19.8629 9.44713 19.5964C9.51907 19.33 9.79298 19.1722 10.0594 19.2439ZM4.14439 13.5866C4.4111 13.5156 4.68547 13.6745 4.7567 13.9411C5.09539 15.2131 5.76451 16.3735 6.69615 17.3034C6.8914 17.4984 6.89193 17.815 6.69713 18.0105C6.50219 18.2058 6.18558 18.2061 5.9901 18.0114C4.93365 16.957 4.17399 15.6413 3.7899 14.1989C3.71903 13.9322 3.87775 13.6578 4.14439 13.5866ZM19.8573 13.5866C20.1238 13.658 20.2819 13.9323 20.2108 14.1989C19.8258 15.6412 19.0658 16.9566 18.0087 18.0105C17.813 18.205 17.4964 18.2039 17.3016 18.0085C17.1072 17.8129 17.1082 17.4963 17.3036 17.3015C18.2356 16.3722 18.9055 15.2128 19.245 13.9411C19.3163 13.6745 19.5906 13.5155 19.8573 13.5866ZM5.98814 5.98801C6.18366 5.7935 6.50032 5.79475 6.69518 5.98996C6.88989 6.18548 6.88952 6.50208 6.6942 6.69699C5.76209 7.62623 5.09231 8.78572 4.75279 10.0573C4.68159 10.3241 4.40724 10.483 4.14049 10.4118C3.87385 10.3406 3.71492 10.0662 3.786 9.79953C4.17102 8.35738 4.93101 7.04182 5.98814 5.98801ZM17.3026 5.98801C17.4977 5.79303 17.8143 5.79323 18.0096 5.98801C19.0659 7.04235 19.8247 8.35742 20.2088 9.79953C20.2799 10.0664 20.1212 10.3408 19.8544 10.4118C19.5875 10.4829 19.3131 10.3242 19.2421 10.0573C18.9033 8.78539 18.2342 7.62491 17.3026 6.69504C17.1076 6.49992 17.1077 6.18329 17.3026 5.98801ZM9.79967 3.78781C11.2412 3.40011 12.7598 3.40118 14.201 3.78977C14.4674 3.86161 14.6251 4.13565 14.5536 4.40207C14.4817 4.66869 14.2069 4.82748 13.9403 4.75559C12.6694 4.41299 11.3305 4.41177 10.0594 4.75363C9.79286 4.82532 9.51896 4.6676 9.44713 4.40109C9.37557 4.13451 9.53309 3.85952 9.79967 3.78781Z" fill="currentColor"></path>
</g>
<defs>
<clipPath id="clip0_1_7968">
<rect width="23.9993" height="23.9993" fill="currentColor"></rect>
</clipPath>
</defs>
</svg>
