<svg width="24" height="24" viewBox="0 0 24 24" fill="none" xmlns="http://www.w3.org/2000/svg">
<path d="M15.4169 3H8.58257C8.48408 3 8.38656 3.0194 8.29557 3.05709C8.20458 3.09478 8.1219 3.15002 8.05226 3.21966L3.21966 8.05226C3.15002 8.1219 3.09478 8.20458 3.05709 8.29557C3.0194 8.38656 3 8.48408 3 8.58257V15.4169C3 15.5154 3.0194 15.6129 3.05709 15.7039C3.09478 15.7949 3.15002 15.8776 3.21966 15.9472L8.05226 20.7798C8.1219 20.8494 8.20458 20.9047 8.29557 20.9424C8.38656 20.9801 8.48408 20.9995 8.58257 20.9995H15.4169C15.5154 20.9995 15.6129 20.9801 15.7039 20.9424C15.7949 20.9047 15.8776 20.8494 15.9472 20.7798L20.7798 15.9472C20.8494 15.8776 20.9047 15.7949 20.9424 15.7039C20.9801 15.6129 20.9995 15.5154 20.9995 15.4169V8.58257C20.9995 8.48408 20.9801 8.38656 20.9424 8.29557C20.9047 8.20458 20.8494 8.1219 20.7798 8.05226L15.9472 3.21966C15.8776 3.15002 15.7949 3.09478 15.7039 3.05709C15.6129 3.0194 15.5154 3 15.4169 3Z" fill="currentColor" fill-rule="evenodd" clip-rule="evenodd"></path>
</svg>
