<svg width="24" height="24" viewBox="0 0 24 24" fill="none" xmlns="http://www.w3.org/2000/svg">
<path d="M16.96 6.17A8.5 8.5 0 0 1 20.62 12.32M3.49 12.37A8.5 8.5 0 0 1 7.09 6.22M8.19 20.94A8.5 8.5 0 0 0 15.79 21.01" stroke="currentColor" stroke-width="1.5" stroke-linecap="round" stroke-linejoin="round"/>
<path d="M12.06 7.7A2.78 2.78 0 1 0 12.06 2.14A2.78 2.78 0 1 0 12.06 7.7Z M4.83 19.92A2.78 2.78 0 1 0 4.83 14.36A2.78 2.78 0 1 0 4.83 19.92Z M19.17 19.92A2.78 2.78 0 1 0 19.17 14.36A2.78 2.78 0 1 0 19.17 19.92Z" fill="currentColor"/>
</svg>
