<svg width="24" height="24" viewBox="0 0 24 24" fill="none" xmlns="http://www.w3.org/2000/svg">
<path d="M4.5 3.75H7.5A0.75 0.75 0 0 1 8.25 4.5V7.5A0.75 0.75 0 0 1 7.5 8.25H4.5A0.75 0.75 0 0 1 3.75 7.5V4.5A0.75 0.75 0 0 1 4.5 3.75Z M16.5 3.75H19.5A0.75 0.75 0 0 1 20.25 4.5V7.5A0.75 0.75 0 0 1 19.5 8.25H16.5A0.75 0.75 0 0 1 15.75 7.5V4.5A0.75 0.75 0 0 1 16.5 3.75Z M4.5 15.75H7.5A0.75 0.75 0 0 1 8.25 16.5V19.5A0.75 0.75 0 0 1 7.5 20.25H4.5A0.75 0.75 0 0 1 3.75 19.5V16.5A0.75 0.75 0 0 1 4.5 15.75Z M16.5 15.75H19.5A0.75 0.75 0 0 1 20.25 16.5V19.5A0.75 0.75 0 0 1 19.5 20.25H16.5A0.75 0.75 0 0 1 15.75 19.5V16.5A0.75 0.75 0 0 1 16.5 15.75Z" fill="currentColor"/>
<path d="M6 8.25V15.75M18 8.25V15.75M8.25 6H15.75M8.25 18H15.75" stroke="currentColor" stroke-width="1.5" stroke-linecap="round"/>
</svg>
