<svg width="553" height="193" viewBox="0 0 553 193" fill="none" xmlns="http://www.w3.org/2000/svg">
<g opacity="0.6">
<g clip-path="url(#clip0_140_30425)">
<rect opacity="0.1" width="32" height="32" transform="matrix(-1 0 0 1 552.375 0.375)" fill="currentColor"/>
</g>
<rect width="32" height="32" transform="matrix(-1 0 0 1 552.375 0.375)" stroke="currentColor" stroke-width="0.75" stroke-linecap="square" stroke-dasharray="4 4"/>
<path d="M552.375 32.375V160.375" stroke="currentColor" stroke-width="0.75" stroke-linecap="square" stroke-dasharray="4 4"/>
<path d="M520.375 32.375V160.375" stroke="currentColor" stroke-width="0.75" stroke-linecap="square" stroke-dasharray="4 4"/>
<g clip-path="url(#clip1_140_30425)">
<rect opacity="0.1" width="32" height="32" transform="matrix(-1 0 0 1 552.375 160.375)" fill="currentColor"/>
</g>
<rect width="32" height="32" transform="matrix(-1 0 0 1 552.375 160.375)" stroke="currentColor" stroke-width="0.75" stroke-linecap="square" stroke-dasharray="4 4"/>
<path d="M392.375 0.375014L520.375 0.375" stroke="currentColor" stroke-width="0.75" stroke-dasharray="4 4"/>
<path d="M392.375 32.375L520.375 32.375" stroke="currentColor" stroke-width="0.75" stroke-dasharray="4 4"/>
<path d="M520.375 32.375V160.375" stroke="currentColor" stroke-width="0.75" stroke-linecap="square" stroke-dasharray="4 4"/>
<path d="M392.375 32.375V160.375" stroke="currentColor" stroke-width="0.75" stroke-linecap="square" stroke-dasharray="4 4"/>
<path d="M392.375 160.375L520.375 160.375" stroke="currentColor" stroke-width="0.75" stroke-dasharray="4 4"/>
<path d="M392.375 192.375L520.375 192.375" stroke="currentColor" stroke-width="0.75" stroke-dasharray="4 4"/>
<g clip-path="url(#clip2_140_30425)">
<rect opacity="0.1" width="32" height="32" transform="matrix(-1 0 0 1 392.375 0.375)" fill="currentColor"/>
</g>
<rect width="24" height="32" transform="matrix(-1 0 0 1 392.375 0.375)" stroke="currentColor" stroke-width="0.75" stroke-linecap="square" stroke-dasharray="4 4"/>
<path d="M392.375 32.375V160.375" stroke="currentColor" stroke-width="0.75" stroke-linecap="square" stroke-dasharray="4 4"/>
<path d="M368.375 32.375V160.375" stroke="currentColor" stroke-width="0.75" stroke-linecap="square" stroke-dasharray="4 4"/>
<g clip-path="url(#clip3_140_30425)">
<rect opacity="0.1" width="32" height="32" transform="matrix(-1 0 0 1 392.375 160.375)" fill="currentColor"/>
</g>
<rect width="24" height="32" transform="matrix(-1 0 0 1 392.375 160.375)" stroke="currentColor" stroke-width="0.75" stroke-linecap="square" stroke-dasharray="4 4"/>
<path d="M32.375 0.375014L368.375 0.375" stroke="currentColor" stroke-width="0.75" stroke-dasharray="4 4"/>
<path d="M32.375 32.375L368.375 32.375" stroke="currentColor" stroke-width="0.75" stroke-dasharray="4 4"/>
<path d="M368.375 32.375V160.375" stroke="currentColor" stroke-width="0.75" stroke-linecap="square" stroke-dasharray="4 4"/>
<path d="M32.375 32.375V160.375" stroke="currentColor" stroke-width="0.75" stroke-linecap="square" stroke-dasharray="4 4"/>
<path d="M32.375 160.375L368.375 160.375" stroke="currentColor" stroke-width="0.75" stroke-dasharray="4 4"/>
<path d="M32.375 192.375L368.375 192.375" stroke="currentColor" stroke-width="0.75" stroke-dasharray="4 4"/>
<g clip-path="url(#clip4_140_30425)">
<rect opacity="0.1" width="32" height="32" transform="matrix(-1 0 0 1 32.375 0.375)" fill="currentColor"/>
</g>
<rect width="32" height="32" transform="matrix(-1 0 0 1 32.375 0.375)" stroke="currentColor" stroke-width="0.75" stroke-linecap="square" stroke-dasharray="4 4"/>
<path d="M32.375 32.375V160.375" stroke="currentColor" stroke-width="0.75" stroke-linecap="square" stroke-dasharray="4 4"/>
<path d="M0.375 32.375V160.375" stroke="currentColor" stroke-width="0.75" stroke-linecap="square" stroke-dasharray="4 4"/>
<g clip-path="url(#clip5_140_30425)">
<rect opacity="0.1" width="32" height="32" transform="matrix(-1 0 0 1 32.375 160.375)" fill="currentColor"/>
</g>
<rect width="32" height="32" transform="matrix(-1 0 0 1 32.375 160.375)" stroke="currentColor" stroke-width="0.75" stroke-linecap="square" stroke-dasharray="4 4"/>
<path d="M552.375 96.375H0.374981" stroke="currentColor" stroke-width="0.75" stroke-linecap="square" stroke-dasharray="4 4"/>
<path d="M552.375 140.375H0.374981" stroke="currentColor" stroke-width="0.75" stroke-linecap="square" stroke-dasharray="4 4"/>
<path d="M552.375 52.375H0.374981" stroke="currentColor" stroke-width="0.75" stroke-linecap="square" stroke-dasharray="4 4"/>
</g>
<path d="M51.9844 104.375C62.4922 104.375 68.625 110.547 68.8594 124.688L60.5 126.367C60.4609 114.922 57.5703 111.172 52.1016 111.172C46.0859 111.172 43.1953 115.859 43.1953 125.938V139.18C43.1953 149.258 46.125 153.945 52.1797 153.945C57.5703 153.945 60.6562 150.117 60.8125 138.203L69.2891 140.273C68.9375 154.648 62.4531 160.781 52.0625 160.781C40.2656 160.781 34.4062 152.93 34.4062 137.695V127.461C34.4062 112.227 40.3438 104.375 51.9844 104.375Z" fill="currentColor"/>
<path fill-rule="evenodd" clip-rule="evenodd" d="M269.974 104.375C282.044 104.375 288.255 112.266 288.255 127.539V137.656C288.255 152.93 282.044 160.781 269.974 160.781C257.864 160.781 251.653 152.93 251.653 137.656V127.539C251.653 112.266 257.864 104.375 269.974 104.375ZM269.935 111.172C263.567 111.172 260.481 116.055 260.481 126.172V139.258C260.481 149.18 263.567 153.945 269.974 153.945C276.341 153.945 279.427 149.18 279.427 139.258V126.172C279.427 116.055 276.341 111.172 269.935 111.172Z" fill="currentColor"/>
<path fill-rule="evenodd" clip-rule="evenodd" d="M95.0674 105.234C105.106 105.234 110.419 109.883 110.419 118.555V120.469C110.419 127.031 106.864 131.094 100.458 131.914V132.656C104.716 133.828 106.356 135.781 107.685 142.266L109.013 148.789C110.341 155.273 111.474 157.695 113.231 159.023L113.114 159.922H103.271C102.06 157.773 101.396 155 100.341 148.984L99.2471 142.969C98.1924 136.953 96.7469 135.313 92.4111 135.312H87.6846V159.922H79.0127V105.234H95.0674ZM87.6846 128.711H94.1689C99.286 128.711 101.708 126.445 101.708 121.641V119.18C101.708 114.336 99.286 112.109 94.1689 112.109H87.6846V128.711Z" fill="currentColor"/>
<path d="M147.408 112.305H129.479V128.047H145.885V134.375H129.479V152.852H148.111V159.922H120.807V105.234H147.408V112.305Z" fill="currentColor"/>
<path fill-rule="evenodd" clip-rule="evenodd" d="M191.701 159.922H182.561L180.139 149.453H165.061L162.639 159.922H154.162L167.521 105.234H178.225L191.701 159.922ZM172.17 114.336C171.506 119.531 170.803 123.477 169.787 128.125L166.428 143.086H178.771L175.451 128.125C174.436 123.477 173.693 119.531 172.99 114.336H172.17Z" fill="currentColor"/>
<path d="M225.214 112.305H213.339V159.922H204.667V112.305H192.792V105.234H225.214V112.305Z" fill="currentColor"/>
<path d="M241.734 159.922H233.062V105.234H241.734V159.922Z" fill="currentColor"/>
<path d="M320.791 137.148C322.002 140.352 322.9 143.242 323.916 147.305L324.697 147.227C324.229 142.266 323.916 137.578 323.916 133.32V105.234H332.275V159.922H322.314L309.893 128.281C308.564 124.961 307.666 121.992 306.572 117.617L305.752 117.695C306.221 122.578 306.494 127.5 306.494 131.797L306.533 159.922H298.135V105.234H308.291L320.791 137.148Z" fill="currentColor"/>
<path fill-rule="evenodd" clip-rule="evenodd" d="M140.143 32.375C152.213 32.3752 158.424 40.2658 158.424 55.5391V65.6562C158.424 80.9295 152.213 88.7811 140.143 88.7812C128.033 88.7812 121.822 80.9297 121.822 65.6562V55.5391C121.822 40.2656 128.033 32.375 140.143 32.375ZM140.104 39.1719C133.736 39.1719 130.65 44.0547 130.65 54.1719V67.2578C130.65 77.1797 133.736 81.9453 140.143 81.9453C146.51 81.9451 149.596 77.1795 149.596 67.2578V54.1719C149.596 44.0549 146.51 39.1721 140.104 39.1719Z" fill="currentColor"/>
<path fill-rule="evenodd" clip-rule="evenodd" d="M69.9141 87.9219H60.7734L58.3516 77.4531H43.2734L40.8516 87.9219H32.375L45.7344 33.2344H56.4375L69.9141 87.9219ZM50.3828 42.3359C49.7188 47.5312 49.0156 51.4766 48 56.125L44.6406 71.0859H56.9844L53.6641 56.125C52.6484 51.4766 51.9062 47.5312 51.2031 42.3359H50.3828Z" fill="currentColor"/>
<path d="M100.419 65.1484C101.63 68.3515 102.528 71.2422 103.544 75.3047L104.325 75.2266C103.856 70.2656 103.544 65.5781 103.544 61.3203V33.2344H111.903V87.9219H101.942L89.5205 56.2812C88.1924 52.961 87.2939 49.9922 86.2002 45.6172L85.3799 45.6953C85.8486 50.5781 86.1221 55.5 86.1221 59.7969L86.1611 87.9219H77.7627V33.2344H87.9189L100.419 65.1484Z" fill="currentColor"/>
<path d="M196.779 40.3047H184.904V87.9219H176.232V40.3047H164.357V33.2344H196.779V40.3047Z" fill="currentColor"/>
<path d="M213.3 55.4609H229.159V33.2344H237.831V87.9219H229.159V62.4922H213.3V87.9219H204.628V33.2344H213.3V55.4609Z" fill="currentColor"/>
<path d="M275.523 40.3047H257.594V56.0469H274V62.375H257.594V80.8516H276.227V87.9219H248.922V33.2344H275.523V40.3047Z" fill="currentColor"/>
<path fill-rule="evenodd" clip-rule="evenodd" d="M301.536 33.2344C311.575 33.2344 316.888 37.8829 316.888 46.5547V48.4688C316.888 55.0312 313.333 59.0937 306.927 59.9141V60.6562C311.184 61.8281 312.825 63.7814 314.153 70.2656L315.481 76.7891C316.81 83.2734 317.942 85.6953 319.7 87.0234L319.583 87.9219H309.739C308.528 85.7734 307.864 83 306.81 76.9844L305.716 70.9688C304.661 64.9532 303.216 63.3126 298.88 63.3125H294.153V87.9219H285.481V33.2344H301.536ZM294.153 56.7109H300.638C305.755 56.7109 308.177 54.4452 308.177 49.6406V47.1797C308.177 42.336 305.755 40.1094 300.638 40.1094H294.153V56.7109Z" fill="currentColor"/>
<path d="M366.275 44.375V148.781" stroke="currentColor" stroke-width="4"/>
<path d="M458.56 47.2901C458.705 47.292 459.389 47.8761 460.08 48.5883C460.771 49.2999 461.336 49.9708 461.337 50.08C461.336 50.1894 461.075 50.8718 460.755 51.5966C460.434 52.3226 459.391 54.3777 458.437 56.1639C457.482 57.9501 456.389 59.9884 456.007 60.6934C455.624 61.3984 454.393 63.6609 453.271 65.7209C452.148 67.781 450.393 71.019 449.37 72.9165C448.348 74.8138 446.981 77.3421 446.334 78.5349C445.687 79.7276 444.945 81.1029 444.686 81.5908C444.426 82.0794 442.559 85.5835 440.537 89.378C436.861 96.2772 436.861 96.2781 436.956 97.2635C437.07 98.4308 436.379 99.9907 438 100.853C439.622 101.713 445.343 91.7838 446.901 91.0111C449.27 89.8361 449.953 89.108 452.017 87.3506C452.923 86.5794 454.562 85.0887 455.659 84.0377C456.756 82.9865 458.59 81.0655 459.735 79.7689C460.879 78.4724 462.206 76.8223 462.682 76.1024C463.159 75.3825 463.628 74.7919 463.723 74.7898C464.438 74.7725 466.288 75.5517 466.794 76.1266C466.885 76.2313 466.772 76.7593 466.519 77.4097C466.282 78.0185 465.664 79.1183 465.147 79.8535C464.629 80.5891 463.66 82.1225 462.993 83.2609C462.326 84.3994 461.094 86.662 460.255 88.2884C459.415 89.9149 457.881 93.1182 456.845 95.4068C455.809 97.6955 454.602 100.534 454.163 101.715C453.723 102.896 453.176 104.484 452.947 105.243C452.717 106.002 452.418 107.044 452.283 107.559C452.147 108.074 452.103 108.495 452.184 108.495C452.267 108.494 452.738 107.909 453.233 107.194C453.728 106.478 454.604 105.036 455.18 103.99C455.753 102.949 456.237 102.075 456.26 102.04C456.278 102.014 456.982 102.256 457.824 102.58C458.665 102.903 459.384 103.202 459.421 103.244C459.456 103.289 459.289 103.92 459.047 104.649C458.805 105.381 458.322 106.514 457.973 107.167C457.624 107.82 456.778 109.206 456.093 110.248C455.408 111.29 454.406 112.612 453.867 113.186C453.329 113.76 452.613 114.362 452.275 114.522C451.697 114.797 451.568 114.779 450.062 114.212C449.17 113.876 448.33 113.428 448.159 113.199C447.957 112.925 447.855 112.453 447.856 111.775C447.856 111.218 447.971 110.141 448.11 109.382C448.25 108.623 448.631 107.16 448.957 106.13C449.728 103.687 450.536 101.265 451.43 98.8761C451.848 97.7603 452.74 95.554 453.412 93.9733C454.082 92.3984 454.596 91.0691 454.557 91.0111C454.514 90.9626 453.527 91.6482 452.363 92.5352C448.623 95.3858 440.786 107.571 436.956 106.135C435.562 105.612 434.316 104.474 434.1 102.58C431.22 102.607 425.296 119.794 424.521 122.399C423.988 124.191 416.226 147.168 415.75 148.903C415.274 150.638 414.618 153.255 414.29 154.719C413.963 156.183 413.599 158.09 413.481 158.957C413.363 159.825 413.252 160.553 413.233 160.575C413.212 160.597 412.434 160.486 411.503 160.327C410.571 160.168 409.746 160.081 409.666 160.136C409.588 160.19 408.969 159.651 408.291 158.937C407.262 157.854 407.059 157.536 407.06 157.017C407.061 156.675 407.174 155.918 407.31 155.335C407.446 154.753 407.888 153.378 408.292 152.28C411.464 143.654 413.481 137.683 418.193 125.928C419.96 121.52 422.094 117.205 423.537 112.641C423.845 111.665 424.825 108.737 425.715 106.135C426.605 103.533 427.638 100.561 428.01 99.5305C428.382 98.5003 429.313 96.0167 430.08 94.0111C430.847 92.0053 432.107 88.7718 432.88 86.8254C433.65 84.8849 434.281 83.2686 434.285 83.2269C434.285 83.1945 434.367 83.1679 434.467 83.1679C434.568 83.1684 435.348 83.4453 436.201 83.7838C437.658 84.3624 437.753 84.4339 437.754 84.9551C437.754 85.2603 437.826 85.5616 437.914 85.6239C438.004 85.682 438.772 84.424 439.621 82.8256C440.472 81.2247 441.739 78.8506 442.437 77.5495C443.135 76.2484 444.798 73.1873 446.131 70.7477C447.465 68.3084 448.861 65.7362 449.234 65.031C449.607 64.3263 450.377 62.9069 450.945 61.8768C451.513 60.8468 452.296 59.398 452.684 58.6577C453.072 57.9192 453.353 57.2727 453.31 57.2189C453.265 57.1678 453.121 57.2416 452.99 57.3821C452.858 57.5229 452.283 58.0806 451.712 58.6214C451.14 59.1623 450.587 59.6952 450.482 59.8048C450.376 59.9149 449.522 60.7583 448.584 61.6796C447.646 62.6013 446.132 64.0984 445.22 65.0068C444.308 65.915 443.289 66.9359 442.955 67.2754C442.621 67.6151 441.49 68.7348 440.441 69.7638C439.392 70.793 437.865 72.3005 437.048 73.1137C436.231 73.9268 434.904 75.2279 434.1 76.0049C433.296 76.7818 431.845 78.1571 430.876 79.0608C429.908 79.9645 428.348 81.3774 427.409 82.2007C426.47 83.0239 425.077 84.1891 424.314 84.7896C423.551 85.3902 422.454 86.1505 421.875 86.48C421.297 86.8094 420.547 87.1378 420.209 87.21C419.631 87.3331 419.511 87.2567 418.193 85.9276C417.255 84.9822 416.755 84.3258 416.681 83.9432C416.618 83.6152 416.694 82.8877 416.861 82.2347C417.021 81.6093 417.508 80.2107 417.945 79.1266C418.381 78.0424 419.243 76.0909 419.86 74.7898C420.477 73.4887 421.956 70.4723 423.147 68.087C424.338 65.7017 425.565 63.2616 425.873 62.665C426.181 62.0687 426.749 60.9592 427.134 60.1992C427.52 59.4391 428.085 58.2998 428.39 57.6677C428.826 56.7643 428.875 56.562 428.623 56.7216C428.447 56.8336 427.901 57.2632 427.41 57.676C426.919 58.0892 424.508 60.1563 422.053 62.2705C419.597 64.3849 417.384 66.2896 417.136 66.5023C416.886 66.7161 414.81 68.5253 412.521 70.524C410.233 72.5233 407.853 74.6163 407.233 75.1752C406.613 75.7339 404.358 77.7833 402.223 79.7289C400.087 81.6746 398.097 83.4844 397.8 83.7505C397.504 84.0168 396.636 84.8726 395.873 85.6526C394.485 87.0707 394.485 87.0709 393.229 85.7606C391.972 84.4497 391.972 84.4495 393.143 83.0697C393.786 82.3109 394.589 81.4163 394.927 81.0815C395.265 80.747 396.046 79.9925 396.663 79.4054C397.279 78.8183 398.174 77.983 398.65 77.5495C399.126 77.116 399.671 76.6152 399.862 76.4356C400.053 76.2562 400.833 75.5508 401.596 74.8684C402.359 74.1861 403.92 72.7845 405.065 71.7542C406.209 70.7239 407.575 69.5019 408.1 69.0383C408.624 68.5751 410.458 66.9702 412.175 65.4731C413.891 63.9763 415.5 62.5774 415.75 62.3635C416 62.15 418.214 60.2453 420.67 58.131C423.127 56.0166 426.2 53.3947 427.5 52.3047C428.8 51.2148 430.398 49.9063 431.053 49.3969C431.708 48.8875 432.414 48.4712 432.622 48.4712C432.844 48.4722 433.515 49.0078 434.257 49.7777C435.431 50.9953 435.509 51.1258 435.399 51.6994C435.335 52.0382 434.981 52.9975 434.613 53.8312C434.245 54.6654 432.41 58.3912 430.535 62.1111C428.66 65.831 426.275 70.6048 425.234 72.7192C424.193 74.8336 422.874 77.6599 422.302 78.9996C421.73 80.3391 421.285 81.5147 421.314 81.612C421.344 81.7075 421.991 81.3217 422.754 80.7535C423.517 80.1842 425.117 78.8533 426.309 77.7966C427.501 76.74 428.877 75.4982 429.368 75.0369C429.858 74.5756 430.678 73.8109 431.188 73.3381C431.699 72.8654 432.507 72.0978 432.984 71.6318C433.461 71.1658 434.485 70.1678 435.258 69.4139C436.032 68.6601 436.819 67.8755 437.008 67.6706C437.196 67.4656 438.08 66.5882 438.972 65.7209C439.864 64.8536 440.718 64.0104 440.871 63.8476C441.023 63.685 441.457 63.2518 441.835 62.8849C442.213 62.5178 442.987 61.7641 443.556 61.2096C444.124 60.6549 445.334 59.447 446.243 58.5254C447.153 57.6039 448.356 56.4062 448.916 55.8639C449.476 55.3218 450.264 54.5674 450.668 54.1879C451.072 53.8084 452.526 52.4269 453.899 51.1183C455.272 49.8099 456.824 48.4132 457.347 48.014C457.87 47.6153 458.415 47.2894 458.56 47.2901Z" fill="currentColor"/>
<path d="M479.482 80.6863C481.086 79.1015 481.086 79.1019 482.43 79.7961C483.169 80.1781 483.881 80.6114 484.012 80.7588C484.213 80.9857 484.172 81.2036 483.742 82.178C483.463 82.8117 482.232 85.1484 481.007 87.371C479.782 89.5937 478.645 91.6787 478.48 92.004C478.316 92.3295 477.821 93.2547 477.382 94.0602C476.942 94.8656 476.616 95.5637 476.658 95.6116C476.704 95.6535 477.743 94.5117 478.969 93.0695C481.204 90.4413 481.204 90.4415 482.749 91.2438C483.954 91.8697 484.306 92.1439 484.351 92.4914C484.406 92.9091 484.466 92.9292 485.305 92.7997C485.798 92.724 487.126 92.5869 488.255 92.4952C490.028 92.3513 490.4 92.2589 490.982 91.8211C491.353 91.5423 491.726 91.3142 491.812 91.3141C491.899 91.3146 492.403 91.5402 492.933 91.8158C493.721 92.2261 493.955 92.2749 494.211 92.0818C494.384 91.9519 495.316 90.8609 496.281 89.6576C497.247 88.4545 498.818 86.402 499.773 85.0972C500.727 83.7929 501.636 82.6063 501.791 82.4591C502.033 82.231 502.276 82.2975 503.501 82.9284C504.287 83.3324 505.038 83.7803 505.17 83.9236C505.373 84.1448 505.297 84.5416 504.672 86.5171C504.267 87.7999 503.593 89.9588 503.177 91.3141C502.76 92.6693 502.418 93.8916 502.417 94.03C502.416 94.2197 502.545 94.2047 502.948 93.968C503.458 93.6682 503.536 93.6809 504.757 94.2589C505.599 94.6576 506.327 94.8627 506.897 94.8627C507.373 94.8625 508.997 94.5881 510.507 94.2529C512.017 93.9176 513.956 93.5971 514.814 93.5403C516.361 93.4382 516.389 93.4443 517.932 94.2567C518.789 94.7073 519.667 95.2655 519.883 95.4967C520.099 95.7279 520.276 96.0568 520.275 96.2275C520.274 96.3989 520.087 96.9936 519.859 97.5491C519.632 98.1051 519.364 98.6173 519.264 98.6872C519.164 98.7562 518.496 98.483 517.778 98.0796C516.473 97.3453 516.472 97.3454 515.21 97.5703C514.516 97.6941 513.089 97.9817 512.04 98.2096C510.991 98.4373 509.508 98.6386 508.745 98.6577C507.563 98.6871 507.207 98.6131 506.339 98.1575C505.782 97.8646 505.293 97.6244 505.25 97.6224C505.211 97.6224 504.395 98.4651 503.438 99.495C502.482 100.524 501.52 101.418 501.299 101.482C501.027 101.56 500.403 101.312 499.339 100.704C498.481 100.214 497.73 99.6676 497.669 99.4897C497.609 99.3124 497.561 98.8863 497.562 98.5429C497.563 98.1994 497.786 96.9646 498.058 95.799C498.329 94.637 498.521 93.6861 498.486 93.6801C498.444 93.6858 497.598 94.5608 496.6 95.6297C495.6 96.7023 494.494 97.7348 494.144 97.924C493.507 98.2675 493.506 98.2672 491.761 97.2922C490.016 96.3171 490.016 96.3171 488.022 96.5607C486.926 96.6947 485.638 96.8105 485.161 96.8177C484.581 96.8263 483.986 96.6671 483.366 96.3393C482.857 96.0698 482.339 95.8487 482.215 95.8481C482.092 95.8481 480.407 97.7777 478.471 100.136C476.535 102.494 474.126 105.381 473.119 106.551C472.112 107.72 470.99 108.911 470.627 109.197C469.967 109.718 469.966 109.718 468.416 108.854C467.121 108.132 466.866 107.914 466.866 107.527C466.866 107.272 467.178 106.374 467.56 105.531C467.94 104.69 468.252 103.94 468.253 103.862C468.254 103.785 468.617 102.994 469.06 102.103C469.503 101.211 470.231 99.7715 470.678 98.9041C471.124 98.0367 471.944 96.4397 472.501 95.3554C473.057 94.2714 473.7 93.0436 473.93 92.6267C474.16 92.211 474.308 91.8256 474.261 91.7698C474.213 91.7154 473.095 92.641 471.777 93.8259C470.459 95.0112 468.473 96.7517 467.364 97.6942C465.623 99.1742 465.307 99.5305 465.047 100.304C464.882 100.797 464.641 101.246 464.511 101.303C464.382 101.359 463.454 100.959 462.45 100.413C461.447 99.8683 460.626 99.3354 460.623 99.2282C460.623 99.1222 460.771 98.6506 460.951 98.1809C461.132 97.7113 461.424 97.1918 461.602 97.0262C461.779 96.8608 463.407 95.4478 465.219 93.8864C467.031 92.3251 469.294 90.3366 470.247 89.468C471.201 88.5993 473.308 86.6252 474.929 85.0805C476.551 83.5357 478.599 81.5581 479.482 80.6863Z" fill="currentColor"/>
<path d="M514.75 82.6253C514.977 82.5596 515.51 82.6589 515.941 82.8483C516.37 83.0365 517.061 83.3465 517.477 83.5367C518.201 83.8679 518.229 83.9103 518.136 84.5629C518.082 84.9373 517.916 85.4564 517.767 85.716C517.585 86.0303 517.329 86.1883 517.001 86.1883C516.73 86.1881 515.933 85.9181 515.23 85.5883C514.526 85.2588 513.888 84.9177 513.811 84.8304C513.734 84.7435 513.821 84.2385 514.005 83.7082C514.241 83.025 514.458 82.7097 514.75 82.6253Z" fill="currentColor"/>
<path d="M490.469 81.6543C490.647 81.6547 491.462 82.0312 492.281 82.4916C493.704 83.2926 493.765 83.354 493.672 83.8881C493.618 84.1955 493.412 84.7062 493.214 85.0223C493.016 85.3382 492.696 85.5962 492.503 85.5966C492.309 85.5966 491.495 85.1903 490.694 84.6936C489.893 84.1974 489.238 83.7053 489.236 83.5994C489.236 83.4943 489.363 83.1248 489.518 82.778C489.673 82.4313 489.877 82.0366 489.972 81.9007C490.067 81.7652 490.291 81.6543 490.469 81.6543Z" fill="currentColor"/>
<path d="M457.782 32.5786C457.879 32.6102 458.606 32.8942 459.399 33.2096C460.807 33.7699 460.84 33.7971 460.744 34.3416C460.69 34.6483 460.525 35.1805 460.375 35.5242C460.202 35.9212 459.144 36.9768 457.477 38.4162C456.033 39.6631 453.949 41.5318 452.848 42.5686C451.747 43.6054 450.481 44.9155 450.037 45.4795C449.228 46.5041 449.227 46.5039 447.724 45.8853C446.22 45.2666 446.22 45.2662 446.336 44.5523C446.4 44.1594 446.655 43.4153 446.901 42.8988C447.182 42.3089 447.926 41.3926 448.903 40.4346C449.758 39.5958 452.067 37.472 454.034 35.7154C456 33.9592 457.686 32.5479 457.782 32.5786Z" fill="currentColor"/>
<defs>
<clipPath id="clip0_140_30425">
<rect width="32" height="32" transform="matrix(-1 0 0 1 552.375 0.375)" fill="white"/>
</clipPath>
<clipPath id="clip1_140_30425">
<rect width="32" height="32" transform="matrix(-1 0 0 1 552.375 160.375)" fill="white"/>
</clipPath>
<clipPath id="clip2_140_30425">
<rect width="24" height="32" transform="matrix(-1 0 0 1 392.375 0.375)" fill="white"/>
</clipPath>
<clipPath id="clip3_140_30425">
<rect width="24" height="32" transform="matrix(-1 0 0 1 392.375 160.375)" fill="white"/>
</clipPath>
<clipPath id="clip4_140_30425">
<rect width="32" height="32" transform="matrix(-1 0 0 1 32.375 0.375)" fill="white"/>
</clipPath>
<clipPath id="clip5_140_30425">
<rect width="32" height="32" transform="matrix(-1 0 0 1 32.375 160.375)" fill="white"/>
</clipPath>
</defs>
</svg>
