<svg width="553" height="193" viewBox="0 0 553 193" fill="none" xmlns="http://www.w3.org/2000/svg">
<path d="M32.375 192.375H0.375V160.375H32.375V192.375Z" fill="currentColor" fill-opacity="0.1"/>
<path d="M392.375 192.375H368.375V160.375H392.375V192.375Z" fill="currentColor" fill-opacity="0.1"/>
<path d="M552.375 192.375H520.375V160.375H552.375V192.375Z" fill="currentColor" fill-opacity="0.1"/>
<path d="M32.375 32.375H0.375V0.375H32.375V32.375Z" fill="currentColor" fill-opacity="0.1"/>
<path d="M392.375 32.375H368.375V0.375H392.375V32.375Z" fill="currentColor" fill-opacity="0.1"/>
<path d="M552.375 32.375H520.375V0.375H552.375V32.375Z" fill="currentColor" fill-opacity="0.1"/>
<path d="M0.75 192H2.375V192.75H0V190H0.75V192Z" fill="currentColor"/>
<path d="M10.375 192.75H6.375V192H10.375V192.75Z" fill="currentColor"/>
<path d="M18.375 192.75H14.375V192H18.375V192.75Z" fill="currentColor"/>
<path d="M26.375 192.75H22.375V192H26.375V192.75Z" fill="currentColor"/>
<path d="M32.75 192H34.375V192.75H30.375V192H32V190H32.75V192Z" fill="currentColor"/>
<path d="M42.375 192.75H38.375V192H42.375V192.75Z" fill="currentColor"/>
<path d="M50.375 192.75H46.375V192H50.375V192.75Z" fill="currentColor"/>
<path d="M58.375 192.75H54.375V192H58.375V192.75Z" fill="currentColor"/>
<path d="M66.375 192.75H62.375V192H66.375V192.75Z" fill="currentColor"/>
<path d="M74.375 192.75H70.375V192H74.375V192.75Z" fill="currentColor"/>
<path d="M82.375 192.75H78.375V192H82.375V192.75Z" fill="currentColor"/>
<path d="M90.375 192.75H86.375V192H90.375V192.75Z" fill="currentColor"/>
<path d="M98.375 192.75H94.375V192H98.375V192.75Z" fill="currentColor"/>
<path d="M106.375 192.75H102.375V192H106.375V192.75Z" fill="currentColor"/>
<path d="M114.375 192.75H110.375V192H114.375V192.75Z" fill="currentColor"/>
<path d="M122.375 192.75H118.375V192H122.375V192.75Z" fill="currentColor"/>
<path d="M130.375 192.75H126.375V192H130.375V192.75Z" fill="currentColor"/>
<path d="M138.375 192.75H134.375V192H138.375V192.75Z" fill="currentColor"/>
<path d="M146.375 192.75H142.375V192H146.375V192.75Z" fill="currentColor"/>
<path d="M154.375 192.75H150.375V192H154.375V192.75Z" fill="currentColor"/>
<path d="M162.375 192.75H158.375V192H162.375V192.75Z" fill="currentColor"/>
<path d="M170.375 192.75H166.375V192H170.375V192.75Z" fill="currentColor"/>
<path d="M178.375 192.75H174.375V192H178.375V192.75Z" fill="currentColor"/>
<path d="M186.375 192.75H182.375V192H186.375V192.75Z" fill="currentColor"/>
<path d="M194.375 192.75H190.375V192H194.375V192.75Z" fill="currentColor"/>
<path d="M202.375 192.75H198.375V192H202.375V192.75Z" fill="currentColor"/>
<path d="M210.375 192.75H206.375V192H210.375V192.75Z" fill="currentColor"/>
<path d="M218.375 192.75H214.375V192H218.375V192.75Z" fill="currentColor"/>
<path d="M226.375 192.75H222.375V192H226.375V192.75Z" fill="currentColor"/>
<path d="M234.375 192.75H230.375V192H234.375V192.75Z" fill="currentColor"/>
<path d="M242.375 192.75H238.375V192H242.375V192.75Z" fill="currentColor"/>
<path d="M250.375 192.75H246.375V192H250.375V192.75Z" fill="currentColor"/>
<path d="M258.375 192.75H254.375V192H258.375V192.75Z" fill="currentColor"/>
<path d="M266.375 192.75H262.375V192H266.375V192.75Z" fill="currentColor"/>
<path d="M274.375 192.75H270.375V192H274.375V192.75Z" fill="currentColor"/>
<path d="M282.375 192.75H278.375V192H282.375V192.75Z" fill="currentColor"/>
<path d="M290.375 192.75H286.375V192H290.375V192.75Z" fill="currentColor"/>
<path d="M298.375 192.75H294.375V192H298.375V192.75Z" fill="currentColor"/>
<path d="M306.375 192.75H302.375V192H306.375V192.75Z" fill="currentColor"/>
<path d="M314.375 192.75H310.375V192H314.375V192.75Z" fill="currentColor"/>
<path d="M322.375 192.75H318.375V192H322.375V192.75Z" fill="currentColor"/>
<path d="M330.375 192.75H326.375V192H330.375V192.75Z" fill="currentColor"/>
<path d="M338.375 192.75H334.375V192H338.375V192.75Z" fill="currentColor"/>
<path d="M346.375 192.75H342.375V192H346.375V192.75Z" fill="currentColor"/>
<path d="M354.375 192.75H350.375V192H354.375V192.75Z" fill="currentColor"/>
<path d="M362.375 192.75H358.375V192H362.375V192.75Z" fill="currentColor"/>
<path d="M368.75 192H370.375V192.75H366.375V192H368V190H368.75V192Z" fill="currentColor"/>
<path d="M378.375 192.75H374.375V192H378.375V192.75Z" fill="currentColor"/>
<path d="M386.375 192.75H382.375V192H386.375V192.75Z" fill="currentColor"/>
<path d="M392.75 192H394.375V192.75H390.375V192H392V190H392.75V192Z" fill="currentColor"/>
<path d="M402.375 192.75H398.375V192H402.375V192.75Z" fill="currentColor"/>
<path d="M410.375 192.75H406.375V192H410.375V192.75Z" fill="currentColor"/>
<path d="M418.375 192.75H414.375V192H418.375V192.75Z" fill="currentColor"/>
<path d="M426.375 192.75H422.375V192H426.375V192.75Z" fill="currentColor"/>
<path d="M434.375 192.75H430.375V192H434.375V192.75Z" fill="currentColor"/>
<path d="M442.375 192.75H438.375V192H442.375V192.75Z" fill="currentColor"/>
<path d="M450.375 192.75H446.375V192H450.375V192.75Z" fill="currentColor"/>
<path d="M458.375 192.75H454.375V192H458.375V192.75Z" fill="currentColor"/>
<path d="M466.375 192.75H462.375V192H466.375V192.75Z" fill="currentColor"/>
<path d="M474.375 192.75H470.375V192H474.375V192.75Z" fill="currentColor"/>
<path d="M482.375 192.75H478.375V192H482.375V192.75Z" fill="currentColor"/>
<path d="M490.375 192.75H486.375V192H490.375V192.75Z" fill="currentColor"/>
<path d="M498.375 192.75H494.375V192H498.375V192.75Z" fill="currentColor"/>
<path d="M506.375 192.75H502.375V192H506.375V192.75Z" fill="currentColor"/>
<path d="M514.375 192.75H510.375V192H514.375V192.75Z" fill="currentColor"/>
<path d="M520.75 192H522.375V192.75H518.375V192H520V190H520.75V192Z" fill="currentColor"/>
<path d="M530.375 192.75H526.375V192H530.375V192.75Z" fill="currentColor"/>
<path d="M538.375 192.75H534.375V192H538.375V192.75Z" fill="currentColor"/>
<path d="M546.375 192.75H542.375V192H546.375V192.75Z" fill="currentColor"/>
<path d="M552.75 192.75H550.375V192H552V190H552.75V192.75Z" fill="currentColor"/>
<path d="M0.75 186.75H0V182H0.75V186.75Z" fill="currentColor"/>
<path d="M32.75 186.75H32V182H32.75V186.75Z" fill="currentColor"/>
<path d="M368.75 186.75H368V182H368.75V186.75Z" fill="currentColor"/>
<path d="M392.75 186.75H392V182H392.75V186.75Z" fill="currentColor"/>
<path d="M520.75 186.75H520V182H520.75V186.75Z" fill="currentColor"/>
<path d="M552.75 186.75H552V182H552.75V186.75Z" fill="currentColor"/>
<path d="M0.75 178.75H0V174H0.75V178.75Z" fill="currentColor"/>
<path d="M32.75 178.75H32V174H32.75V178.75Z" fill="currentColor"/>
<path d="M368.75 178.75H368V174H368.75V178.75Z" fill="currentColor"/>
<path d="M392.75 178.75H392V174H392.75V178.75Z" fill="currentColor"/>
<path d="M520.75 178.75H520V174H520.75V178.75Z" fill="currentColor"/>
<path d="M552.75 178.75H552V174H552.75V178.75Z" fill="currentColor"/>
<path d="M0.75 170.75H0V166H0.75V170.75Z" fill="currentColor"/>
<path d="M32.75 170.75H32V166H32.75V170.75Z" fill="currentColor"/>
<path d="M368.75 170.75H368V166H368.75V170.75Z" fill="currentColor"/>
<path d="M392.75 170.75H392V166H392.75V170.75Z" fill="currentColor"/>
<path d="M520.75 170.75H520V166H520.75V170.75Z" fill="currentColor"/>
<path d="M552.75 170.75H552V166H552.75V170.75Z" fill="currentColor"/>
<path d="M0.75 160H2.375V160.75H0.75V162.75H0V158H0.75V160Z" fill="currentColor"/>
<path d="M32.75 160H34.375V160.75H32.75V162.75H32V160.75H30.375V160H32V158H32.75V160Z" fill="currentColor"/>
<path d="M368.75 160H370.375V160.75H368.75V162.75H368V160.75H366.375V160H368V158H368.75V160Z" fill="currentColor"/>
<path d="M392.75 160H394.375V160.75H392.75V162.75H392V160.75H390.375V160H392V158H392.75V160Z" fill="currentColor"/>
<path d="M520.75 160H522.375V160.75H520.75V162.75H520V160.75H518.375V160H520V158H520.75V160Z" fill="currentColor"/>
<path d="M552.75 162.75H552V160.75H550.375V160H552V158H552.75V162.75Z" fill="currentColor"/>
<path d="M10.375 160.75H6.375V160H10.375V160.75Z" fill="currentColor"/>
<path d="M18.375 160.75H14.375V160H18.375V160.75Z" fill="currentColor"/>
<path d="M26.375 160.75H22.375V160H26.375V160.75Z" fill="currentColor"/>
<path d="M42.375 160.75H38.375V160H42.375V160.75Z" fill="currentColor"/>
<path d="M50.375 160.75H46.375V160H50.375V160.75Z" fill="currentColor"/>
<path d="M58.375 160.75H54.375V160H58.375V160.75Z" fill="currentColor"/>
<path d="M66.375 160.75H62.375V160H66.375V160.75Z" fill="currentColor"/>
<path d="M74.375 160.75H70.375V160H74.375V160.75Z" fill="currentColor"/>
<path d="M82.375 160.75H78.375V160H82.375V160.75Z" fill="currentColor"/>
<path d="M90.375 160.75H86.375V160H90.375V160.75Z" fill="currentColor"/>
<path d="M98.375 160.75H94.375V160H98.375V160.75Z" fill="currentColor"/>
<path d="M106.375 160.75H102.375V160H106.375V160.75Z" fill="currentColor"/>
<path d="M114.375 160.75H110.375V160H114.375V160.75Z" fill="currentColor"/>
<path d="M122.375 160.75H118.375V160H122.375V160.75Z" fill="currentColor"/>
<path d="M130.375 160.75H126.375V160H130.375V160.75Z" fill="currentColor"/>
<path d="M138.375 160.75H134.375V160H138.375V160.75Z" fill="currentColor"/>
<path d="M146.375 160.75H142.375V160H146.375V160.75Z" fill="currentColor"/>
<path d="M154.375 160.75H150.375V160H154.375V160.75Z" fill="currentColor"/>
<path d="M162.375 160.75H158.375V160H162.375V160.75Z" fill="currentColor"/>
<path d="M170.375 160.75H166.375V160H170.375V160.75Z" fill="currentColor"/>
<path d="M178.375 160.75H174.375V160H178.375V160.75Z" fill="currentColor"/>
<path d="M186.375 160.75H182.375V160H186.375V160.75Z" fill="currentColor"/>
<path d="M194.375 160.75H190.375V160H194.375V160.75Z" fill="currentColor"/>
<path d="M202.375 160.75H198.375V160H202.375V160.75Z" fill="currentColor"/>
<path d="M210.375 160.75H206.375V160H210.375V160.75Z" fill="currentColor"/>
<path d="M218.375 160.75H214.375V160H218.375V160.75Z" fill="currentColor"/>
<path d="M226.375 160.75H222.375V160H226.375V160.75Z" fill="currentColor"/>
<path d="M234.375 160.75H230.375V160H234.375V160.75Z" fill="currentColor"/>
<path d="M242.375 160.75H238.375V160H242.375V160.75Z" fill="currentColor"/>
<path d="M250.375 160.75H246.375V160H250.375V160.75Z" fill="currentColor"/>
<path d="M258.375 160.75H254.375V160H258.375V160.75Z" fill="currentColor"/>
<path d="M266.375 160.75H262.375V160H266.375V160.75Z" fill="currentColor"/>
<path d="M274.375 160.75H270.375V160H274.375V160.75Z" fill="currentColor"/>
<path d="M282.375 160.75H278.375V160H282.375V160.75Z" fill="currentColor"/>
<path d="M290.375 160.75H286.375V160H290.375V160.75Z" fill="currentColor"/>
<path d="M298.375 160.75H294.375V160H298.375V160.75Z" fill="currentColor"/>
<path d="M306.375 160.75H302.375V160H306.375V160.75Z" fill="currentColor"/>
<path d="M314.375 160.75H310.375V160H314.375V160.75Z" fill="currentColor"/>
<path d="M322.375 160.75H318.375V160H322.375V160.75Z" fill="currentColor"/>
<path d="M330.375 160.75H326.375V160H330.375V160.75Z" fill="currentColor"/>
<path d="M338.375 160.75H334.375V160H338.375V160.75Z" fill="currentColor"/>
<path d="M346.375 160.75H342.375V160H346.375V160.75Z" fill="currentColor"/>
<path d="M354.375 160.75H350.375V160H354.375V160.75Z" fill="currentColor"/>
<path d="M362.375 160.75H358.375V160H362.375V160.75Z" fill="currentColor"/>
<path d="M378.375 160.75H374.375V160H378.375V160.75Z" fill="currentColor"/>
<path d="M386.375 160.75H382.375V160H386.375V160.75Z" fill="currentColor"/>
<path d="M402.375 160.75H398.375V160H402.375V160.75Z" fill="currentColor"/>
<path d="M410.375 160.75H406.375V160H410.375V160.75Z" fill="currentColor"/>
<path d="M418.375 160.75H414.375V160H418.375V160.75Z" fill="currentColor"/>
<path d="M426.375 160.75H422.375V160H426.375V160.75Z" fill="currentColor"/>
<path d="M434.375 160.75H430.375V160H434.375V160.75Z" fill="currentColor"/>
<path d="M442.375 160.75H438.375V160H442.375V160.75Z" fill="currentColor"/>
<path d="M450.375 160.75H446.375V160H450.375V160.75Z" fill="currentColor"/>
<path d="M458.375 160.75H454.375V160H458.375V160.75Z" fill="currentColor"/>
<path d="M466.375 160.75H462.375V160H466.375V160.75Z" fill="currentColor"/>
<path d="M474.375 160.75H470.375V160H474.375V160.75Z" fill="currentColor"/>
<path d="M482.375 160.75H478.375V160H482.375V160.75Z" fill="currentColor"/>
<path d="M490.375 160.75H486.375V160H490.375V160.75Z" fill="currentColor"/>
<path d="M498.375 160.75H494.375V160H498.375V160.75Z" fill="currentColor"/>
<path d="M506.375 160.75H502.375V160H506.375V160.75Z" fill="currentColor"/>
<path d="M514.375 160.75H510.375V160H514.375V160.75Z" fill="currentColor"/>
<path d="M530.375 160.75H526.375V160H530.375V160.75Z" fill="currentColor"/>
<path d="M538.375 160.75H534.375V160H538.375V160.75Z" fill="currentColor"/>
<path d="M546.375 160.75H542.375V160H546.375V160.75Z" fill="currentColor"/>
<path d="M0.75 154.75H0V150H0.75V154.75Z" fill="currentColor"/>
<path d="M32.75 154.75H32V150H32.75V154.75Z" fill="currentColor"/>
<path d="M368.75 154.75H368V150H368.75V154.75Z" fill="currentColor"/>
<path d="M392.75 154.75H392V150H392.75V154.75Z" fill="currentColor"/>
<path d="M520.75 154.75H520V150H520.75V154.75Z" fill="currentColor"/>
<path d="M552.75 154.75H552V150H552.75V154.75Z" fill="currentColor"/>
<path d="M0.75 146.75H0V142H0.75V146.75Z" fill="currentColor"/>
<path d="M32.75 146.75H32V142H32.75V146.75Z" fill="currentColor"/>
<path d="M368.75 146.75H368V142H368.75V146.75Z" fill="currentColor"/>
<path d="M392.75 146.75H392V142H392.75V146.75Z" fill="currentColor"/>
<path d="M520.75 146.75H520V142H520.75V146.75Z" fill="currentColor"/>
<path d="M552.75 146.75H552V142H552.75V146.75Z" fill="currentColor"/>
<path d="M2.75 140.75H0V140H2.75V140.75Z" fill="currentColor"/>
<path d="M10.75 140.75H6V140H10.75V140.75Z" fill="currentColor"/>
<path d="M18.75 140.75H14V140H18.75V140.75Z" fill="currentColor"/>
<path d="M26.75 140.75H22V140H26.75V140.75Z" fill="currentColor"/>
<path d="M34.75 140.75H30V140H34.75V140.75Z" fill="currentColor"/>
<path d="M42.75 140.75H38V140H42.75V140.75Z" fill="currentColor"/>
<path d="M50.75 140.75H46V140H50.75V140.75Z" fill="currentColor"/>
<path d="M58.75 140.75H54V140H58.75V140.75Z" fill="currentColor"/>
<path d="M66.75 140.75H62V140H66.75V140.75Z" fill="currentColor"/>
<path d="M74.75 140.75H70V140H74.75V140.75Z" fill="currentColor"/>
<path d="M82.75 140.75H78V140H82.75V140.75Z" fill="currentColor"/>
<path d="M90.75 140.75H86V140H90.75V140.75Z" fill="currentColor"/>
<path d="M98.75 140.75H94V140H98.75V140.75Z" fill="currentColor"/>
<path d="M106.75 140.75H102V140H106.75V140.75Z" fill="currentColor"/>
<path d="M114.75 140.75H110V140H114.75V140.75Z" fill="currentColor"/>
<path d="M122.75 140.75H118V140H122.75V140.75Z" fill="currentColor"/>
<path d="M130.75 140.75H126V140H130.75V140.75Z" fill="currentColor"/>
<path d="M138.75 140.75H134V140H138.75V140.75Z" fill="currentColor"/>
<path d="M146.75 140.75H142V140H146.75V140.75Z" fill="currentColor"/>
<path d="M154.75 140.75H150V140H154.75V140.75Z" fill="currentColor"/>
<path d="M162.75 140.75H158V140H162.75V140.75Z" fill="currentColor"/>
<path d="M170.75 140.75H166V140H170.75V140.75Z" fill="currentColor"/>
<path d="M178.75 140.75H174V140H178.75V140.75Z" fill="currentColor"/>
<path d="M186.75 140.75H182V140H186.75V140.75Z" fill="currentColor"/>
<path d="M194.75 140.75H190V140H194.75V140.75Z" fill="currentColor"/>
<path d="M202.75 140.75H198V140H202.75V140.75Z" fill="currentColor"/>
<path d="M210.75 140.75H206V140H210.75V140.75Z" fill="currentColor"/>
<path d="M218.75 140.75H214V140H218.75V140.75Z" fill="currentColor"/>
<path d="M226.75 140.75H222V140H226.75V140.75Z" fill="currentColor"/>
<path d="M234.75 140.75H230V140H234.75V140.75Z" fill="currentColor"/>
<path d="M242.75 140.75H238V140H242.75V140.75Z" fill="currentColor"/>
<path d="M250.75 140.75H246V140H250.75V140.75Z" fill="currentColor"/>
<path d="M258.75 140.75H254V140H258.75V140.75Z" fill="currentColor"/>
<path d="M266.75 140.75H262V140H266.75V140.75Z" fill="currentColor"/>
<path d="M274.75 140.75H270V140H274.75V140.75Z" fill="currentColor"/>
<path d="M282.75 140.75H278V140H282.75V140.75Z" fill="currentColor"/>
<path d="M290.75 140.75H286V140H290.75V140.75Z" fill="currentColor"/>
<path d="M298.75 140.75H294V140H298.75V140.75Z" fill="currentColor"/>
<path d="M306.75 140.75H302V140H306.75V140.75Z" fill="currentColor"/>
<path d="M314.75 140.75H310V140H314.75V140.75Z" fill="currentColor"/>
<path d="M322.75 140.75H318V140H322.75V140.75Z" fill="currentColor"/>
<path d="M330.75 140.75H326V140H330.75V140.75Z" fill="currentColor"/>
<path d="M338.75 140.75H334V140H338.75V140.75Z" fill="currentColor"/>
<path d="M346.75 140.75H342V140H346.75V140.75Z" fill="currentColor"/>
<path d="M354.75 140.75H350V140H354.75V140.75Z" fill="currentColor"/>
<path d="M362.75 140.75H358V140H362.75V140.75Z" fill="currentColor"/>
<path d="M370.75 140.75H366V140H370.75V140.75Z" fill="currentColor"/>
<path d="M378.75 140.75H374V140H378.75V140.75Z" fill="currentColor"/>
<path d="M386.75 140.75H382V140H386.75V140.75Z" fill="currentColor"/>
<path d="M394.75 140.75H390V140H394.75V140.75Z" fill="currentColor"/>
<path d="M402.75 140.75H398V140H402.75V140.75Z" fill="currentColor"/>
<path d="M410.75 140.75H406V140H410.75V140.75Z" fill="currentColor"/>
<path d="M418.75 140.75H414V140H418.75V140.75Z" fill="currentColor"/>
<path d="M426.75 140.75H422V140H426.75V140.75Z" fill="currentColor"/>
<path d="M434.75 140.75H430V140H434.75V140.75Z" fill="currentColor"/>
<path d="M442.75 140.75H438V140H442.75V140.75Z" fill="currentColor"/>
<path d="M450.75 140.75H446V140H450.75V140.75Z" fill="currentColor"/>
<path d="M458.75 140.75H454V140H458.75V140.75Z" fill="currentColor"/>
<path d="M466.75 140.75H462V140H466.75V140.75Z" fill="currentColor"/>
<path d="M474.75 140.75H470V140H474.75V140.75Z" fill="currentColor"/>
<path d="M482.75 140.75H478V140H482.75V140.75Z" fill="currentColor"/>
<path d="M490.75 140.75H486V140H490.75V140.75Z" fill="currentColor"/>
<path d="M498.75 140.75H494V140H498.75V140.75Z" fill="currentColor"/>
<path d="M506.75 140.75H502V140H506.75V140.75Z" fill="currentColor"/>
<path d="M514.75 140.75H510V140H514.75V140.75Z" fill="currentColor"/>
<path d="M522.75 140.75H518V140H522.75V140.75Z" fill="currentColor"/>
<path d="M530.75 140.75H526V140H530.75V140.75Z" fill="currentColor"/>
<path d="M538.75 140.75H534V140H538.75V140.75Z" fill="currentColor"/>
<path d="M546.75 140.75H542V140H546.75V140.75Z" fill="currentColor"/>
<path d="M552.75 140.75H550V140H552.75V140.75Z" fill="currentColor"/>
<path d="M0.75 138.75H0V134H0.75V138.75Z" fill="currentColor"/>
<path d="M32.75 138.75H32V134H32.75V138.75Z" fill="currentColor"/>
<path d="M368.75 138.75H368V134H368.75V138.75Z" fill="currentColor"/>
<path d="M392.75 138.75H392V134H392.75V138.75Z" fill="currentColor"/>
<path d="M520.75 138.75H520V134H520.75V138.75Z" fill="currentColor"/>
<path d="M552.75 138.75H552V134H552.75V138.75Z" fill="currentColor"/>
<path d="M0.75 130.75H0V126H0.75V130.75Z" fill="currentColor"/>
<path d="M32.75 130.75H32V126H32.75V130.75Z" fill="currentColor"/>
<path d="M368.75 130.75H368V126H368.75V130.75Z" fill="currentColor"/>
<path d="M392.75 130.75H392V126H392.75V130.75Z" fill="currentColor"/>
<path d="M520.75 130.75H520V126H520.75V130.75Z" fill="currentColor"/>
<path d="M552.75 130.75H552V126H552.75V130.75Z" fill="currentColor"/>
<path d="M0.75 122.75H0V118H0.75V122.75Z" fill="currentColor"/>
<path d="M32.75 122.75H32V118H32.75V122.75Z" fill="currentColor"/>
<path d="M368.75 122.75H368V118H368.75V122.75Z" fill="currentColor"/>
<path d="M392.75 122.75H392V118H392.75V122.75Z" fill="currentColor"/>
<path d="M520.75 122.75H520V118H520.75V122.75Z" fill="currentColor"/>
<path d="M552.75 122.75H552V118H552.75V122.75Z" fill="currentColor"/>
<path d="M0.75 114.75H0V110H0.75V114.75Z" fill="currentColor"/>
<path d="M32.75 114.75H32V110H32.75V114.75Z" fill="currentColor"/>
<path d="M368.75 114.75H368V110H368.75V114.75Z" fill="currentColor"/>
<path d="M392.75 114.75H392V110H392.75V114.75Z" fill="currentColor"/>
<path d="M520.75 114.75H520V110H520.75V114.75Z" fill="currentColor"/>
<path d="M552.75 114.75H552V110H552.75V114.75Z" fill="currentColor"/>
<path d="M0.75 106.75H0V102H0.75V106.75Z" fill="currentColor"/>
<path d="M32.75 106.75H32V102H32.75V106.75Z" fill="currentColor"/>
<path d="M368.75 106.75H368V102H368.75V106.75Z" fill="currentColor"/>
<path d="M392.75 106.75H392V102H392.75V106.75Z" fill="currentColor"/>
<path d="M520.75 106.75H520V102H520.75V106.75Z" fill="currentColor"/>
<path d="M552.75 106.75H552V102H552.75V106.75Z" fill="currentColor"/>
<path d="M0.75 96H2.75V96.75H0.75V98.75H0V94H0.75V96Z" fill="currentColor"/>
<path d="M32.75 96H34.75V96.75H32.75V98.75H32V96.75H30V96H32V94H32.75V96Z" fill="currentColor"/>
<path d="M368.75 96H370.75V96.75H368.75V98.75H368V96.75H366V96H368V94H368.75V96Z" fill="currentColor"/>
<path d="M392.75 96H394.75V96.75H392.75V98.75H392V96.75H390V96H392V94H392.75V96Z" fill="currentColor"/>
<path d="M520.75 96H522.75V96.75H520.75V98.75H520V96.75H518V96H520V94H520.75V96Z" fill="currentColor"/>
<path d="M552.75 98.75H552V96.75H550V96H552V94H552.75V98.75Z" fill="currentColor"/>
<path d="M10.75 96.75H6V96H10.75V96.75Z" fill="currentColor"/>
<path d="M18.75 96.75H14V96H18.75V96.75Z" fill="currentColor"/>
<path d="M26.75 96.75H22V96H26.75V96.75Z" fill="currentColor"/>
<path d="M42.75 96.75H38V96H42.75V96.75Z" fill="currentColor"/>
<path d="M50.75 96.75H46V96H50.75V96.75Z" fill="currentColor"/>
<path d="M58.75 96.75H54V96H58.75V96.75Z" fill="currentColor"/>
<path d="M66.75 96.75H62V96H66.75V96.75Z" fill="currentColor"/>
<path d="M74.75 96.75H70V96H74.75V96.75Z" fill="currentColor"/>
<path d="M82.75 96.75H78V96H82.75V96.75Z" fill="currentColor"/>
<path d="M90.75 96.75H86V96H90.75V96.75Z" fill="currentColor"/>
<path d="M98.75 96.75H94V96H98.75V96.75Z" fill="currentColor"/>
<path d="M106.75 96.75H102V96H106.75V96.75Z" fill="currentColor"/>
<path d="M114.75 96.75H110V96H114.75V96.75Z" fill="currentColor"/>
<path d="M122.75 96.75H118V96H122.75V96.75Z" fill="currentColor"/>
<path d="M130.75 96.75H126V96H130.75V96.75Z" fill="currentColor"/>
<path d="M138.75 96.75H134V96H138.75V96.75Z" fill="currentColor"/>
<path d="M146.75 96.75H142V96H146.75V96.75Z" fill="currentColor"/>
<path d="M154.75 96.75H150V96H154.75V96.75Z" fill="currentColor"/>
<path d="M162.75 96.75H158V96H162.75V96.75Z" fill="currentColor"/>
<path d="M170.75 96.75H166V96H170.75V96.75Z" fill="currentColor"/>
<path d="M178.75 96.75H174V96H178.75V96.75Z" fill="currentColor"/>
<path d="M186.75 96.75H182V96H186.75V96.75Z" fill="currentColor"/>
<path d="M194.75 96.75H190V96H194.75V96.75Z" fill="currentColor"/>
<path d="M202.75 96.75H198V96H202.75V96.75Z" fill="currentColor"/>
<path d="M210.75 96.75H206V96H210.75V96.75Z" fill="currentColor"/>
<path d="M218.75 96.75H214V96H218.75V96.75Z" fill="currentColor"/>
<path d="M226.75 96.75H222V96H226.75V96.75Z" fill="currentColor"/>
<path d="M234.75 96.75H230V96H234.75V96.75Z" fill="currentColor"/>
<path d="M242.75 96.75H238V96H242.75V96.75Z" fill="currentColor"/>
<path d="M250.75 96.75H246V96H250.75V96.75Z" fill="currentColor"/>
<path d="M258.75 96.75H254V96H258.75V96.75Z" fill="currentColor"/>
<path d="M266.75 96.75H262V96H266.75V96.75Z" fill="currentColor"/>
<path d="M274.75 96.75H270V96H274.75V96.75Z" fill="currentColor"/>
<path d="M282.75 96.75H278V96H282.75V96.75Z" fill="currentColor"/>
<path d="M290.75 96.75H286V96H290.75V96.75Z" fill="currentColor"/>
<path d="M298.75 96.75H294V96H298.75V96.75Z" fill="currentColor"/>
<path d="M306.75 96.75H302V96H306.75V96.75Z" fill="currentColor"/>
<path d="M314.75 96.75H310V96H314.75V96.75Z" fill="currentColor"/>
<path d="M322.75 96.75H318V96H322.75V96.75Z" fill="currentColor"/>
<path d="M330.75 96.75H326V96H330.75V96.75Z" fill="currentColor"/>
<path d="M338.75 96.75H334V96H338.75V96.75Z" fill="currentColor"/>
<path d="M346.75 96.75H342V96H346.75V96.75Z" fill="currentColor"/>
<path d="M354.75 96.75H350V96H354.75V96.75Z" fill="currentColor"/>
<path d="M362.75 96.75H358V96H362.75V96.75Z" fill="currentColor"/>
<path d="M378.75 96.75H374V96H378.75V96.75Z" fill="currentColor"/>
<path d="M386.75 96.75H382V96H386.75V96.75Z" fill="currentColor"/>
<path d="M402.75 96.75H398V96H402.75V96.75Z" fill="currentColor"/>
<path d="M410.75 96.75H406V96H410.75V96.75Z" fill="currentColor"/>
<path d="M418.75 96.75H414V96H418.75V96.75Z" fill="currentColor"/>
<path d="M426.75 96.75H422V96H426.75V96.75Z" fill="currentColor"/>
<path d="M434.75 96.75H430V96H434.75V96.75Z" fill="currentColor"/>
<path d="M442.75 96.75H438V96H442.75V96.75Z" fill="currentColor"/>
<path d="M450.75 96.75H446V96H450.75V96.75Z" fill="currentColor"/>
<path d="M458.75 96.75H454V96H458.75V96.75Z" fill="currentColor"/>
<path d="M466.75 96.75H462V96H466.75V96.75Z" fill="currentColor"/>
<path d="M474.75 96.75H470V96H474.75V96.75Z" fill="currentColor"/>
<path d="M482.75 96.75H478V96H482.75V96.75Z" fill="currentColor"/>
<path d="M490.75 96.75H486V96H490.75V96.75Z" fill="currentColor"/>
<path d="M498.75 96.75H494V96H498.75V96.75Z" fill="currentColor"/>
<path d="M506.75 96.75H502V96H506.75V96.75Z" fill="currentColor"/>
<path d="M514.75 96.75H510V96H514.75V96.75Z" fill="currentColor"/>
<path d="M530.75 96.75H526V96H530.75V96.75Z" fill="currentColor"/>
<path d="M538.75 96.75H534V96H538.75V96.75Z" fill="currentColor"/>
<path d="M546.75 96.75H542V96H546.75V96.75Z" fill="currentColor"/>
<path d="M0.75 90.75H0V86H0.75V90.75Z" fill="currentColor"/>
<path d="M32.75 90.75H32V86H32.75V90.75Z" fill="currentColor"/>
<path d="M368.75 90.75H368V86H368.75V90.75Z" fill="currentColor"/>
<path d="M392.75 90.75H392V86H392.75V90.75Z" fill="currentColor"/>
<path d="M520.75 90.75H520V86H520.75V90.75Z" fill="currentColor"/>
<path d="M552.75 90.75H552V86H552.75V90.75Z" fill="currentColor"/>
<path d="M0.75 82.75H0V78H0.75V82.75Z" fill="currentColor"/>
<path d="M32.75 82.75H32V78H32.75V82.75Z" fill="currentColor"/>
<path d="M368.75 82.75H368V78H368.75V82.75Z" fill="currentColor"/>
<path d="M392.75 82.75H392V78H392.75V82.75Z" fill="currentColor"/>
<path d="M520.75 82.75H520V78H520.75V82.75Z" fill="currentColor"/>
<path d="M552.75 82.75H552V78H552.75V82.75Z" fill="currentColor"/>
<path d="M0.75 74.75H0V70H0.75V74.75Z" fill="currentColor"/>
<path d="M32.75 74.75H32V70H32.75V74.75Z" fill="currentColor"/>
<path d="M368.75 74.75H368V70H368.75V74.75Z" fill="currentColor"/>
<path d="M392.75 74.75H392V70H392.75V74.75Z" fill="currentColor"/>
<path d="M520.75 74.75H520V70H520.75V74.75Z" fill="currentColor"/>
<path d="M552.75 74.75H552V70H552.75V74.75Z" fill="currentColor"/>
<path d="M0.75 66.75H0V62H0.75V66.75Z" fill="currentColor"/>
<path d="M32.75 66.75H32V62H32.75V66.75Z" fill="currentColor"/>
<path d="M368.75 66.75H368V62H368.75V66.75Z" fill="currentColor"/>
<path d="M392.75 66.75H392V62H392.75V66.75Z" fill="currentColor"/>
<path d="M520.75 66.75H520V62H520.75V66.75Z" fill="currentColor"/>
<path d="M552.75 66.75H552V62H552.75V66.75Z" fill="currentColor"/>
<path d="M0.75 58.75H0V54H0.75V58.75Z" fill="currentColor"/>
<path d="M32.75 58.75H32V54H32.75V58.75Z" fill="currentColor"/>
<path d="M368.75 58.75H368V54H368.75V58.75Z" fill="currentColor"/>
<path d="M392.75 58.75H392V54H392.75V58.75Z" fill="currentColor"/>
<path d="M520.75 58.75H520V54H520.75V58.75Z" fill="currentColor"/>
<path d="M552.75 58.75H552V54H552.75V58.75Z" fill="currentColor"/>
<path d="M2.375 52.75H0V52H2.375V52.75Z" fill="currentColor"/>
<path d="M10.375 52.75H6.375V52H10.375V52.75Z" fill="currentColor"/>
<path d="M18.375 52.75H14.375V52H18.375V52.75Z" fill="currentColor"/>
<path d="M26.375 52.75H22.375V52H26.375V52.75Z" fill="currentColor"/>
<path d="M34.375 52.75H30.375V52H34.375V52.75Z" fill="currentColor"/>
<path d="M42.375 52.75H38.375V52H42.375V52.75Z" fill="currentColor"/>
<path d="M50.375 52.75H46.375V52H50.375V52.75Z" fill="currentColor"/>
<path d="M58.375 52.75H54.375V52H58.375V52.75Z" fill="currentColor"/>
<path d="M66.375 52.75H62.375V52H66.375V52.75Z" fill="currentColor"/>
<path d="M74.375 52.75H70.375V52H74.375V52.75Z" fill="currentColor"/>
<path d="M82.375 52.75H78.375V52H82.375V52.75Z" fill="currentColor"/>
<path d="M90.375 52.75H86.375V52H90.375V52.75Z" fill="currentColor"/>
<path d="M98.375 52.75H94.375V52H98.375V52.75Z" fill="currentColor"/>
<path d="M106.375 52.75H102.375V52H106.375V52.75Z" fill="currentColor"/>
<path d="M114.375 52.75H110.375V52H114.375V52.75Z" fill="currentColor"/>
<path d="M122.375 52.75H118.375V52H122.375V52.75Z" fill="currentColor"/>
<path d="M130.375 52.75H126.375V52H130.375V52.75Z" fill="currentColor"/>
<path d="M138.375 52.75H134.375V52H138.375V52.75Z" fill="currentColor"/>
<path d="M146.375 52.75H142.375V52H146.375V52.75Z" fill="currentColor"/>
<path d="M154.375 52.75H150.375V52H154.375V52.75Z" fill="currentColor"/>
<path d="M162.375 52.75H158.375V52H162.375V52.75Z" fill="currentColor"/>
<path d="M170.375 52.75H166.375V52H170.375V52.75Z" fill="currentColor"/>
<path d="M178.375 52.75H174.375V52H178.375V52.75Z" fill="currentColor"/>
<path d="M186.375 52.75H182.375V52H186.375V52.75Z" fill="currentColor"/>
<path d="M194.375 52.75H190.375V52H194.375V52.75Z" fill="currentColor"/>
<path d="M202.375 52.75H198.375V52H202.375V52.75Z" fill="currentColor"/>
<path d="M210.375 52.75H206.375V52H210.375V52.75Z" fill="currentColor"/>
<path d="M218.375 52.75H214.375V52H218.375V52.75Z" fill="currentColor"/>
<path d="M226.375 52.75H222.375V52H226.375V52.75Z" fill="currentColor"/>
<path d="M234.375 52.75H230.375V52H234.375V52.75Z" fill="currentColor"/>
<path d="M242.375 52.75H238.375V52H242.375V52.75Z" fill="currentColor"/>
<path d="M250.375 52.75H246.375V52H250.375V52.75Z" fill="currentColor"/>
<path d="M258.375 52.75H254.375V52H258.375V52.75Z" fill="currentColor"/>
<path d="M266.375 52.75H262.375V52H266.375V52.75Z" fill="currentColor"/>
<path d="M274.375 52.75H270.375V52H274.375V52.75Z" fill="currentColor"/>
<path d="M282.375 52.75H278.375V52H282.375V52.75Z" fill="currentColor"/>
<path d="M290.375 52.75H286.375V52H290.375V52.75Z" fill="currentColor"/>
<path d="M298.375 52.75H294.375V52H298.375V52.75Z" fill="currentColor"/>
<path d="M306.375 52.75H302.375V52H306.375V52.75Z" fill="currentColor"/>
<path d="M314.375 52.75H310.375V52H314.375V52.75Z" fill="currentColor"/>
<path d="M322.375 52.75H318.375V52H322.375V52.75Z" fill="currentColor"/>
<path d="M330.375 52.75H326.375V52H330.375V52.75Z" fill="currentColor"/>
<path d="M338.375 52.75H334.375V52H338.375V52.75Z" fill="currentColor"/>
<path d="M346.375 52.75H342.375V52H346.375V52.75Z" fill="currentColor"/>
<path d="M354.375 52.75H350.375V52H354.375V52.75Z" fill="currentColor"/>
<path d="M362.375 52.75H358.375V52H362.375V52.75Z" fill="currentColor"/>
<path d="M370.375 52.75H366.375V52H370.375V52.75Z" fill="currentColor"/>
<path d="M378.375 52.75H374.375V52H378.375V52.75Z" fill="currentColor"/>
<path d="M386.375 52.75H382.375V52H386.375V52.75Z" fill="currentColor"/>
<path d="M394.375 52.75H390.375V52H394.375V52.75Z" fill="currentColor"/>
<path d="M402.375 52.75H398.375V52H402.375V52.75Z" fill="currentColor"/>
<path d="M410.375 52.75H406.375V52H410.375V52.75Z" fill="currentColor"/>
<path d="M418.375 52.75H414.375V52H418.375V52.75Z" fill="currentColor"/>
<path d="M426.375 52.75H422.375V52H426.375V52.75Z" fill="currentColor"/>
<path d="M434.375 52.75H430.375V52H434.375V52.75Z" fill="currentColor"/>
<path d="M442.375 52.75H438.375V52H442.375V52.75Z" fill="currentColor"/>
<path d="M450.375 52.75H446.375V52H450.375V52.75Z" fill="currentColor"/>
<path d="M458.375 52.75H454.375V52H458.375V52.75Z" fill="currentColor"/>
<path d="M466.375 52.75H462.375V52H466.375V52.75Z" fill="currentColor"/>
<path d="M474.375 52.75H470.375V52H474.375V52.75Z" fill="currentColor"/>
<path d="M482.375 52.75H478.375V52H482.375V52.75Z" fill="currentColor"/>
<path d="M490.375 52.75H486.375V52H490.375V52.75Z" fill="currentColor"/>
<path d="M498.375 52.75H494.375V52H498.375V52.75Z" fill="currentColor"/>
<path d="M506.375 52.75H502.375V52H506.375V52.75Z" fill="currentColor"/>
<path d="M514.375 52.75H510.375V52H514.375V52.75Z" fill="currentColor"/>
<path d="M522.375 52.75H518.375V52H522.375V52.75Z" fill="currentColor"/>
<path d="M530.375 52.75H526.375V52H530.375V52.75Z" fill="currentColor"/>
<path d="M538.375 52.75H534.375V52H538.375V52.75Z" fill="currentColor"/>
<path d="M546.375 52.75H542.375V52H546.375V52.75Z" fill="currentColor"/>
<path d="M552.75 52.75H550.375V52H552.75V52.75Z" fill="currentColor"/>
<path d="M0.75 50.75H0V46H0.75V50.75Z" fill="currentColor"/>
<path d="M32.75 50.75H32V46H32.75V50.75Z" fill="currentColor"/>
<path d="M368.75 50.75H368V46H368.75V50.75Z" fill="currentColor"/>
<path d="M392.75 50.75H392V46H392.75V50.75Z" fill="currentColor"/>
<path d="M520.75 50.75H520V46H520.75V50.75Z" fill="currentColor"/>
<path d="M552.75 50.75H552V46H552.75V50.75Z" fill="currentColor"/>
<path d="M0.75 42.75H0V38H0.75V42.75Z" fill="currentColor"/>
<path d="M32.75 42.75H32V38H32.75V42.75Z" fill="currentColor"/>
<path d="M368.75 42.75H368V38H368.75V42.75Z" fill="currentColor"/>
<path d="M392.75 42.75H392V38H392.75V42.75Z" fill="currentColor"/>
<path d="M520.75 42.75H520V38H520.75V42.75Z" fill="currentColor"/>
<path d="M552.75 42.75H552V38H552.75V42.75Z" fill="currentColor"/>
<path d="M0.75 32H2.375V32.75H0.75V34.75H0V30H0.75V32Z" fill="currentColor"/>
<path d="M32.75 32H34.375V32.75H32.75V34.75H32V32.75H30.375V32H32V30H32.75V32Z" fill="currentColor"/>
<path d="M368.75 32H370.375V32.75H368.75V34.75H368V32.75H366.375V32H368V30H368.75V32Z" fill="currentColor"/>
<path d="M392.75 32H394.375V32.75H392.75V34.75H392V32.75H390.375V32H392V30H392.75V32Z" fill="currentColor"/>
<path d="M520.75 32H522.375V32.75H520.75V34.75H520V32.75H518.375V32H520V30H520.75V32Z" fill="currentColor"/>
<path d="M552.75 34.75H552V32.75H550.375V32H552V30H552.75V34.75Z" fill="currentColor"/>
<path d="M10.375 32.75H6.375V32H10.375V32.75Z" fill="currentColor"/>
<path d="M18.375 32.75H14.375V32H18.375V32.75Z" fill="currentColor"/>
<path d="M26.375 32.75H22.375V32H26.375V32.75Z" fill="currentColor"/>
<path d="M42.375 32.75H38.375V32H42.375V32.75Z" fill="currentColor"/>
<path d="M50.375 32.75H46.375V32H50.375V32.75Z" fill="currentColor"/>
<path d="M58.375 32.75H54.375V32H58.375V32.75Z" fill="currentColor"/>
<path d="M66.375 32.75H62.375V32H66.375V32.75Z" fill="currentColor"/>
<path d="M74.375 32.75H70.375V32H74.375V32.75Z" fill="currentColor"/>
<path d="M82.375 32.75H78.375V32H82.375V32.75Z" fill="currentColor"/>
<path d="M90.375 32.75H86.375V32H90.375V32.75Z" fill="currentColor"/>
<path d="M98.375 32.75H94.375V32H98.375V32.75Z" fill="currentColor"/>
<path d="M106.375 32.75H102.375V32H106.375V32.75Z" fill="currentColor"/>
<path d="M114.375 32.75H110.375V32H114.375V32.75Z" fill="currentColor"/>
<path d="M122.375 32.75H118.375V32H122.375V32.75Z" fill="currentColor"/>
<path d="M130.375 32.75H126.375V32H130.375V32.75Z" fill="currentColor"/>
<path d="M138.375 32.75H134.375V32H138.375V32.75Z" fill="currentColor"/>
<path d="M146.375 32.75H142.375V32H146.375V32.75Z" fill="currentColor"/>
<path d="M154.375 32.75H150.375V32H154.375V32.75Z" fill="currentColor"/>
<path d="M162.375 32.75H158.375V32H162.375V32.75Z" fill="currentColor"/>
<path d="M170.375 32.75H166.375V32H170.375V32.75Z" fill="currentColor"/>
<path d="M178.375 32.75H174.375V32H178.375V32.75Z" fill="currentColor"/>
<path d="M186.375 32.75H182.375V32H186.375V32.75Z" fill="currentColor"/>
<path d="M194.375 32.75H190.375V32H194.375V32.75Z" fill="currentColor"/>
<path d="M202.375 32.75H198.375V32H202.375V32.75Z" fill="currentColor"/>
<path d="M210.375 32.75H206.375V32H210.375V32.75Z" fill="currentColor"/>
<path d="M218.375 32.75H214.375V32H218.375V32.75Z" fill="currentColor"/>
<path d="M226.375 32.75H222.375V32H226.375V32.75Z" fill="currentColor"/>
<path d="M234.375 32.75H230.375V32H234.375V32.75Z" fill="currentColor"/>
<path d="M242.375 32.75H238.375V32H242.375V32.75Z" fill="currentColor"/>
<path d="M250.375 32.75H246.375V32H250.375V32.75Z" fill="currentColor"/>
<path d="M258.375 32.75H254.375V32H258.375V32.75Z" fill="currentColor"/>
<path d="M266.375 32.75H262.375V32H266.375V32.75Z" fill="currentColor"/>
<path d="M274.375 32.75H270.375V32H274.375V32.75Z" fill="currentColor"/>
<path d="M282.375 32.75H278.375V32H282.375V32.75Z" fill="currentColor"/>
<path d="M290.375 32.75H286.375V32H290.375V32.75Z" fill="currentColor"/>
<path d="M298.375 32.75H294.375V32H298.375V32.75Z" fill="currentColor"/>
<path d="M306.375 32.75H302.375V32H306.375V32.75Z" fill="currentColor"/>
<path d="M314.375 32.75H310.375V32H314.375V32.75Z" fill="currentColor"/>
<path d="M322.375 32.75H318.375V32H322.375V32.75Z" fill="currentColor"/>
<path d="M330.375 32.75H326.375V32H330.375V32.75Z" fill="currentColor"/>
<path d="M338.375 32.75H334.375V32H338.375V32.75Z" fill="currentColor"/>
<path d="M346.375 32.75H342.375V32H346.375V32.75Z" fill="currentColor"/>
<path d="M354.375 32.75H350.375V32H354.375V32.75Z" fill="currentColor"/>
<path d="M362.375 32.75H358.375V32H362.375V32.75Z" fill="currentColor"/>
<path d="M378.375 32.75H374.375V32H378.375V32.75Z" fill="currentColor"/>
<path d="M386.375 32.75H382.375V32H386.375V32.75Z" fill="currentColor"/>
<path d="M402.375 32.75H398.375V32H402.375V32.75Z" fill="currentColor"/>
<path d="M410.375 32.75H406.375V32H410.375V32.75Z" fill="currentColor"/>
<path d="M418.375 32.75H414.375V32H418.375V32.75Z" fill="currentColor"/>
<path d="M426.375 32.75H422.375V32H426.375V32.75Z" fill="currentColor"/>
<path d="M434.375 32.75H430.375V32H434.375V32.75Z" fill="currentColor"/>
<path d="M442.375 32.75H438.375V32H442.375V32.75Z" fill="currentColor"/>
<path d="M450.375 32.75H446.375V32H450.375V32.75Z" fill="currentColor"/>
<path d="M458.375 32.75H454.375V32H458.375V32.75Z" fill="currentColor"/>
<path d="M466.375 32.75H462.375V32H466.375V32.75Z" fill="currentColor"/>
<path d="M474.375 32.75H470.375V32H474.375V32.75Z" fill="currentColor"/>
<path d="M482.375 32.75H478.375V32H482.375V32.75Z" fill="currentColor"/>
<path d="M490.375 32.75H486.375V32H490.375V32.75Z" fill="currentColor"/>
<path d="M498.375 32.75H494.375V32H498.375V32.75Z" fill="currentColor"/>
<path d="M506.375 32.75H502.375V32H506.375V32.75Z" fill="currentColor"/>
<path d="M514.375 32.75H510.375V32H514.375V32.75Z" fill="currentColor"/>
<path d="M530.375 32.75H526.375V32H530.375V32.75Z" fill="currentColor"/>
<path d="M538.375 32.75H534.375V32H538.375V32.75Z" fill="currentColor"/>
<path d="M546.375 32.75H542.375V32H546.375V32.75Z" fill="currentColor"/>
<path d="M0.75 26.75H0V22H0.75V26.75Z" fill="currentColor"/>
<path d="M32.75 26.75H32V22H32.75V26.75Z" fill="currentColor"/>
<path d="M368.75 26.75H368V22H368.75V26.75Z" fill="currentColor"/>
<path d="M392.75 26.75H392V22H392.75V26.75Z" fill="currentColor"/>
<path d="M520.75 26.75H520V22H520.75V26.75Z" fill="currentColor"/>
<path d="M552.75 26.75H552V22H552.75V26.75Z" fill="currentColor"/>
<path d="M0.75 18.75H0V14H0.75V18.75Z" fill="currentColor"/>
<path d="M32.75 18.75H32V14H32.75V18.75Z" fill="currentColor"/>
<path d="M368.75 18.75H368V14H368.75V18.75Z" fill="currentColor"/>
<path d="M392.75 18.75H392V14H392.75V18.75Z" fill="currentColor"/>
<path d="M520.75 18.75H520V14H520.75V18.75Z" fill="currentColor"/>
<path d="M552.75 18.75H552V14H552.75V18.75Z" fill="currentColor"/>
<path d="M0.75 10.75H0V6H0.75V10.75Z" fill="currentColor"/>
<path d="M32.75 10.75H32V6H32.75V10.75Z" fill="currentColor"/>
<path d="M368.75 10.75H368V6H368.75V10.75Z" fill="currentColor"/>
<path d="M392.75 10.75H392V6H392.75V10.75Z" fill="currentColor"/>
<path d="M520.75 10.75H520V6H520.75V10.75Z" fill="currentColor"/>
<path d="M552.75 10.75H552V6H552.75V10.75Z" fill="currentColor"/>
<path d="M2.375 0.75H0.75V2.75H0V0H2.375V0.75Z" fill="currentColor"/>
<path d="M34.375 0.75H32.75V2.75H32V0.75H30.375V0H34.375V0.75Z" fill="currentColor"/>
<path d="M370.375 0.75H368.75V2.75H368V0.75H366.375V0H370.375V0.75Z" fill="currentColor"/>
<path d="M394.375 0.75H392.75V2.75H392V0.75H390.375V0H394.375V0.75Z" fill="currentColor"/>
<path d="M522.375 0.75H520.75V2.75H520V0.75H518.375V0H522.375V0.75Z" fill="currentColor"/>
<path d="M552.75 2.75H552V0.75H550.375V0H552.75V2.75Z" fill="currentColor"/>
<path d="M10.375 0.75H6.375V0H10.375V0.75Z" fill="currentColor"/>
<path d="M18.375 0.75H14.375V0H18.375V0.75Z" fill="currentColor"/>
<path d="M26.375 0.75H22.375V0H26.375V0.75Z" fill="currentColor"/>
<path d="M42.375 0.75H38.375V0H42.375V0.75Z" fill="currentColor"/>
<path d="M50.375 0.75H46.375V0H50.375V0.75Z" fill="currentColor"/>
<path d="M58.375 0.75H54.375V0H58.375V0.75Z" fill="currentColor"/>
<path d="M66.375 0.75H62.375V0H66.375V0.75Z" fill="currentColor"/>
<path d="M74.375 0.75H70.375V0H74.375V0.75Z" fill="currentColor"/>
<path d="M82.375 0.75H78.375V0H82.375V0.75Z" fill="currentColor"/>
<path d="M90.375 0.75H86.375V0H90.375V0.75Z" fill="currentColor"/>
<path d="M98.375 0.75H94.375V0H98.375V0.75Z" fill="currentColor"/>
<path d="M106.375 0.75H102.375V0H106.375V0.75Z" fill="currentColor"/>
<path d="M114.375 0.75H110.375V0H114.375V0.75Z" fill="currentColor"/>
<path d="M122.375 0.75H118.375V0H122.375V0.75Z" fill="currentColor"/>
<path d="M130.375 0.75H126.375V0H130.375V0.75Z" fill="currentColor"/>
<path d="M138.375 0.75H134.375V0H138.375V0.75Z" fill="currentColor"/>
<path d="M146.375 0.75H142.375V0H146.375V0.75Z" fill="currentColor"/>
<path d="M154.375 0.75H150.375V0H154.375V0.75Z" fill="currentColor"/>
<path d="M162.375 0.75H158.375V0H162.375V0.75Z" fill="currentColor"/>
<path d="M170.375 0.75H166.375V0H170.375V0.75Z" fill="currentColor"/>
<path d="M178.375 0.75H174.375V0H178.375V0.75Z" fill="currentColor"/>
<path d="M186.375 0.75H182.375V0H186.375V0.75Z" fill="currentColor"/>
<path d="M194.375 0.75H190.375V0H194.375V0.75Z" fill="currentColor"/>
<path d="M202.375 0.75H198.375V0H202.375V0.75Z" fill="currentColor"/>
<path d="M210.375 0.75H206.375V0H210.375V0.75Z" fill="currentColor"/>
<path d="M218.375 0.75H214.375V0H218.375V0.75Z" fill="currentColor"/>
<path d="M226.375 0.75H222.375V0H226.375V0.75Z" fill="currentColor"/>
<path d="M234.375 0.75H230.375V0H234.375V0.75Z" fill="currentColor"/>
<path d="M242.375 0.75H238.375V0H242.375V0.75Z" fill="currentColor"/>
<path d="M250.375 0.75H246.375V0H250.375V0.75Z" fill="currentColor"/>
<path d="M258.375 0.75H254.375V0H258.375V0.75Z" fill="currentColor"/>
<path d="M266.375 0.75H262.375V0H266.375V0.75Z" fill="currentColor"/>
<path d="M274.375 0.75H270.375V0H274.375V0.75Z" fill="currentColor"/>
<path d="M282.375 0.75H278.375V0H282.375V0.75Z" fill="currentColor"/>
<path d="M290.375 0.75H286.375V0H290.375V0.75Z" fill="currentColor"/>
<path d="M298.375 0.75H294.375V0H298.375V0.75Z" fill="currentColor"/>
<path d="M306.375 0.75H302.375V0H306.375V0.75Z" fill="currentColor"/>
<path d="M314.375 0.75H310.375V0H314.375V0.75Z" fill="currentColor"/>
<path d="M322.375 0.75H318.375V0H322.375V0.75Z" fill="currentColor"/>
<path d="M330.375 0.75H326.375V0H330.375V0.75Z" fill="currentColor"/>
<path d="M338.375 0.75H334.375V0H338.375V0.75Z" fill="currentColor"/>
<path d="M346.375 0.75H342.375V0H346.375V0.75Z" fill="currentColor"/>
<path d="M354.375 0.75H350.375V0H354.375V0.75Z" fill="currentColor"/>
<path d="M362.375 0.75H358.375V0H362.375V0.75Z" fill="currentColor"/>
<path d="M378.375 0.75H374.375V0H378.375V0.75Z" fill="currentColor"/>
<path d="M386.375 0.75H382.375V0H386.375V0.75Z" fill="currentColor"/>
<path d="M402.375 0.75H398.375V0H402.375V0.75Z" fill="currentColor"/>
<path d="M410.375 0.75H406.375V0H410.375V0.75Z" fill="currentColor"/>
<path d="M418.375 0.75H414.375V0H418.375V0.75Z" fill="currentColor"/>
<path d="M426.375 0.75H422.375V0H426.375V0.75Z" fill="currentColor"/>
<path d="M434.375 0.75H430.375V0H434.375V0.75Z" fill="currentColor"/>
<path d="M442.375 0.75H438.375V0H442.375V0.75Z" fill="currentColor"/>
<path d="M450.375 0.75H446.375V0H450.375V0.75Z" fill="currentColor"/>
<path d="M458.375 0.75H454.375V0H458.375V0.75Z" fill="currentColor"/>
<path d="M466.375 0.75H462.375V0H466.375V0.75Z" fill="currentColor"/>
<path d="M474.375 0.75H470.375V0H474.375V0.75Z" fill="currentColor"/>
<path d="M482.375 0.75H478.375V0H482.375V0.75Z" fill="currentColor"/>
<path d="M490.375 0.75H486.375V0H490.375V0.75Z" fill="currentColor"/>
<path d="M498.375 0.75H494.375V0H498.375V0.75Z" fill="currentColor"/>
<path d="M506.375 0.75H502.375V0H506.375V0.75Z" fill="currentColor"/>
<path d="M514.375 0.75H510.375V0H514.375V0.75Z" fill="currentColor"/>
<path d="M530.375 0.75H526.375V0H530.375V0.75Z" fill="currentColor"/>
<path d="M538.375 0.75H534.375V0H538.375V0.75Z" fill="currentColor"/>
<path d="M546.375 0.75H542.375V0H546.375V0.75Z" fill="currentColor"/>
</svg>
