<svg width="24" height="24" viewBox="0 0 24 24" fill="none" xmlns="http://www.w3.org/2000/svg">
<path d="M20.25 3.75V20.25" stroke="currentColor" stroke-width="1.5" stroke-linecap="round" stroke-linejoin="round"></path>
<path d="M7.5 10.125L15.75 10.125C16.1642 10.125 16.5 9.78921 16.5 9.375V6C16.5 5.58579 16.1642 5.25 15.75 5.25L7.5 5.25C7.08579 5.25 6.75 5.58579 6.75 6V9.375C6.75 9.78921 7.08579 10.125 7.5 10.125Z" stroke="currentColor" stroke-width="1.5" stroke-linecap="round" stroke-linejoin="round"></path>
<path d="M15.75 13.875H3.75C3.33579 13.875 3 14.2108 3 14.625V18C3 18.4142 3.33579 18.75 3.75 18.75H15.75C16.1642 18.75 16.5 18.4142 16.5 18V14.625C16.5 14.2108 16.1642 13.875 15.75 13.875Z" stroke="currentColor" stroke-width="1.5" stroke-linecap="round" stroke-linejoin="round"></path>
</svg>
