<svg width="24" height="24" viewBox="0 0 24 24" fill="none" xmlns="http://www.w3.org/2000/svg">
<path d="M9 5H7C5.89543 5 5 5.89543 5 7V9C5 10.1046 5.89543 11 7 11H9C10.1046 11 11 10.1046 11 9V7C11 5.89543 10.1046 5 9 5Z" stroke="currentColor" stroke-linecap="round" stroke-linejoin="round"></path>
<path d="M17 5H15C13.8954 5 13 5.89543 13 7V9C13 10.1046 13.8954 11 15 11H17C18.1046 11 19 10.1046 19 9V7C19 5.89543 18.1046 5 17 5Z" stroke="currentColor" stroke-linecap="round" stroke-linejoin="round"></path>
<path d="M9 13H7C5.89543 13 5 13.8954 5 15V17C5 18.1046 5.89543 19 7 19H9C10.1046 19 11 18.1046 11 17V15C11 13.8954 10.1046 13 9 13Z" stroke="currentColor" stroke-linecap="round" stroke-linejoin="round"></path>
<path d="M17 13H15C13.8954 13 13 13.8954 13 15V17C13 18.1046 13.8954 19 15 19H17C18.1046 19 19 18.1046 19 17V15C19 13.8954 18.1046 13 17 13Z" stroke="currentColor" stroke-linecap="round" stroke-linejoin="round"></path>
</svg>
