<svg width="24" height="24" viewBox="0 0 24 24" fill="none" xmlns="http://www.w3.org/2000/svg">
<path d="M17.6016 15.2V7.6C17.6016 6.72 16.8816 6 16.0016 6H11.6016" stroke="currentColor" stroke-linecap="round" stroke-linejoin="round"></path>
<path d="M13.5992 4L11.1992 6L13.5992 8" stroke="currentColor" stroke-linecap="round" stroke-linejoin="round"></path>
<path d="M17.5992 20.0002C18.9247 20.0002 19.9992 18.9257 19.9992 17.6002C19.9992 16.2747 18.9247 15.2002 17.5992 15.2002C16.2737 15.2002 15.1992 16.2747 15.1992 17.6002C15.1992 18.9257 16.2737 20.0002 17.5992 20.0002Z" stroke="currentColor" stroke-linecap="round" stroke-linejoin="round"></path>
<path d="M6.39844 8.7998V16.3998C6.39844 17.2798 7.11844 17.9998 7.99844 17.9998H12.3984" stroke="currentColor" stroke-linecap="round" stroke-linejoin="round"></path>
<path d="M10.3984 20L12.7984 18L10.3984 16" stroke="currentColor" stroke-linecap="round" stroke-linejoin="round"></path>
<path d="M6.4 8.8C7.72548 8.8 8.8 7.72548 8.8 6.4C8.8 5.07452 7.72548 4 6.4 4C5.07452 4 4 5.07452 4 6.4C4 7.72548 5.07452 8.8 6.4 8.8Z" stroke="currentColor" stroke-linecap="round" stroke-linejoin="round"></path>
</svg>
