<svg width="24" height="24" viewBox="0 0 24 24" fill="none" xmlns="http://www.w3.org/2000/svg">
<path d="M2 9.76023L11 7.31023V10.0002H7C6.46957 10.0002 5.96086 10.2109 5.58579 10.586C5.21071 10.9611 5 11.4698 5 12.0002V20.0002C5 20.5307 5.21071 21.0394 5.58579 21.4144C5.96086 21.7895 6.46957 22.0002 7 22.0002H17C17.5304 22.0002 18.0391 21.7895 18.4142 21.4144C18.7893 21.0394 19 20.5307 19 20.0002V12.0002C19 11.4698 18.7893 10.9611 18.4142 10.586C18.0391 10.2109 17.5304 10.0002 17 10.0002H13V6.76023L22 4.31023V2.24023L2 7.69023V9.76023ZM11 12.0002V15.0002H7V12.0002H11ZM17 12.0002V20.0002H7V17.0002H17V15.0002H13V12.0002H17Z" fill="currentColor"></path>
</svg>
