<svg xmlns="http://www.w3.org/2000/svg" viewBox="0 0 24 24" width="24" height="24" fill="none" stroke="currentColor" stroke-width="1.5" stroke-linecap="round" stroke-linejoin="round"><path d="M12 3C12.5334 3.00002 13.0556 3.04869 13.5635 3.1377L14.29 6.35352L17.0947 4.58203C17.9837 5.19376 18.7562 5.96109 19.375 6.84473L17.5977 9.66113L20.8535 10.3965C20.9472 10.917 21 11.4525 21 12C21 12.5472 20.9471 13.0823 20.8535 13.6025L17.5977 14.3389L19.375 17.1543C18.7562 18.0381 17.9837 18.8052 17.0947 19.417L14.29 17.6465L13.5635 20.8613C13.0555 20.9504 12.5335 21 12 21C11.4307 21 10.8739 20.9448 10.334 20.8438L9.6123 17.6465L6.8584 19.3848C5.96432 18.7611 5.18873 17.9805 4.57227 17.0811L6.30469 14.3389L3.14844 13.626C3.05216 13.0985 3 12.5553 3 12C3 11.4444 3.05205 10.9009 3.14844 10.373L6.30469 9.66113L4.57227 6.91797C5.18876 6.01868 5.96434 5.23778 6.8584 4.61426L9.6123 6.35352L10.334 3.15527C10.8739 3.05423 11.4308 3 12 3Z" /><circle cx="12" cy="12" r="3" /></svg>
