<svg width="24" height="24" viewBox="0 0 24 24" fill="none" xmlns="http://www.w3.org/2000/svg">
<g clip-path="url(#clip0_1_7288)">
<path d="M9.87031 5.6701L6.45031 7.75012L4.89031 5.19012C4.32031 4.25012 4.62031 3.01012 5.56031 2.44012C6.50031 1.87012 7.74031 2.1701 8.31031 3.1101L9.87031 5.6701Z" stroke="currentColor" stroke-width="1.5" stroke-linecap="round" stroke-linejoin="round"></path>
<path d="M11.8191 9.1596L8.65914 11.0796C6.81914 12.1996 6.25913 14.4596 7.14913 16.2596L9.19913 20.4396C9.85913 21.7896 11.4591 22.2596 12.7391 21.4696L19.1691 17.5596C20.4591 16.7796 20.7691 15.1496 19.8791 13.9396L17.1091 10.1996C15.9091 8.57964 13.6591 8.0396 11.8191 9.1596Z" stroke="currentColor" stroke-width="1.5" stroke-linecap="round" stroke-linejoin="round"></path>
<path d="M10.7574 5.09815L5.63281 8.21875L7.71321 11.6351L12.8378 8.51455L10.7574 5.09815Z" stroke="currentColor" stroke-width="1.5" stroke-linecap="round" stroke-linejoin="round"></path>
<path d="M14.3086 16.8096L15.9586 19.5196" stroke="currentColor" stroke-width="1.5" stroke-linecap="round" stroke-linejoin="round"></path>
<path d="M11.75 18.37L13.4 21.08" stroke="currentColor" stroke-width="1.5" stroke-linecap="round" stroke-linejoin="round"></path>
<path d="M16.8711 15.25L18.5211 17.96" stroke="currentColor" stroke-width="1.5" stroke-linecap="round" stroke-linejoin="round"></path>
</g>
<defs>
<clipPath id="clip0_1_7288">
<rect width="24" height="24" fill="currentColor"></rect>
</clipPath>
</defs>
</svg>
