<svg width="24" height="24" viewBox="0 0 24 24" fill="none" xmlns="http://www.w3.org/2000/svg">
<path d="M15.9997 7H8V10.9999H15.9997V7Z" stroke="currentColor" stroke-width="1.12497" stroke-linecap="round" stroke-linejoin="round"></path>
<path d="M19.0039 19.3333V4.66667C19.0039 4.29848 18.6905 4 18.3039 4H5.70391C5.31731 4 5.00391 4.29848 5.00391 4.66667V19.3333C5.00391 19.7015 5.31731 20 5.70391 20H18.3039C18.6905 20 19.0039 19.7015 19.0039 19.3333Z" stroke="currentColor" stroke-linecap="round" stroke-linejoin="round"></path>
<path d="M8.66534 14.4996C9.12556 14.4996 9.49864 14.1265 9.49864 13.6663C9.49864 13.2061 9.12556 12.833 8.66534 12.833C8.20511 12.833 7.83203 13.2061 7.83203 13.6663C7.83203 14.1265 8.20511 14.4996 8.66534 14.4996Z" fill="currentColor"></path>
<path d="M12.0013 14.4996C12.4615 14.4996 12.8346 14.1265 12.8346 13.6663C12.8346 13.2061 12.4615 12.833 12.0013 12.833C11.5411 12.833 11.168 13.2061 11.168 13.6663C11.168 14.1265 11.5411 14.4996 12.0013 14.4996Z" fill="currentColor"></path>
<path d="M15.3333 14.4996C15.7935 14.4996 16.1666 14.1265 16.1666 13.6663C16.1666 13.2061 15.7935 12.833 15.3333 12.833C14.8731 12.833 14.5 13.2061 14.5 13.6663C14.5 14.1265 14.8731 14.4996 15.3333 14.4996Z" fill="currentColor"></path>
<path d="M8.66534 17.8326C9.12556 17.8326 9.49864 17.4595 9.49864 16.9993C9.49864 16.5391 9.12556 16.166 8.66534 16.166C8.20511 16.166 7.83203 16.5391 7.83203 16.9993C7.83203 17.4595 8.20511 17.8326 8.66534 17.8326Z" fill="currentColor"></path>
<path d="M12.0013 17.8326C12.4615 17.8326 12.8346 17.4595 12.8346 16.9993C12.8346 16.5391 12.4615 16.166 12.0013 16.166C11.5411 16.166 11.168 16.5391 11.168 16.9993C11.168 17.4595 11.5411 17.8326 12.0013 17.8326Z" fill="currentColor"></path>
<path d="M15.3333 17.8326C15.7935 17.8326 16.1666 17.4595 16.1666 16.9993C16.1666 16.5391 15.7935 16.166 15.3333 16.166C14.8731 16.166 14.5 16.5391 14.5 16.9993C14.5 17.4595 14.8731 17.8326 15.3333 17.8326Z" fill="currentColor"></path>
</svg>
