<svg width="24" height="24" viewBox="0 0 24 24" fill="none" xmlns="http://www.w3.org/2000/svg">
<path d="M3.43916 16.2225L5.70665 3.36291C5.74119 3.16703 5.85213 2.99289 6.01506 2.8788C6.178 2.76471 6.37958 2.72002 6.57546 2.75456L11.7455 3.66619C11.9414 3.70073 12.1156 3.81167 12.2297 3.9746C12.3438 4.13754 12.3884 4.33912 12.3539 4.535L10.0748 17.4602C9.92138 18.3305 9.43272 19.1058 8.71383 19.6197C7.99494 20.1336 7.10317 20.345 6.23008 20.2086C4.36051 19.9157 3.11055 18.0861 3.43916 16.2225Z" stroke="currentColor" stroke-linecap="round" stroke-linejoin="round"></path>
<path d="M11.0868 11.7038L17.9269 9.21417C18.1138 9.14614 18.3201 9.15515 18.5003 9.23921C18.6806 9.32327 18.8201 9.4755 18.8881 9.66242L20.6837 14.5957C20.7174 14.6882 20.7325 14.7865 20.7282 14.8849C20.7239 14.9833 20.7003 15.0799 20.6586 15.1691C20.617 15.2584 20.5582 15.3386 20.4856 15.4051C20.413 15.4716 20.328 15.5232 20.2354 15.5569L7.90234 20.0458" stroke="currentColor" stroke-linecap="round" stroke-linejoin="round"></path>
<path d="M20.6246 15.2373V19.4997C20.6246 19.6986 20.5456 19.8894 20.4049 20.03C20.2643 20.1707 20.0735 20.2497 19.8746 20.2497H6.75" stroke="currentColor" stroke-linecap="round" stroke-linejoin="round"></path>
<path d="M6.74997 17.8124C7.26772 17.8124 7.68744 17.3927 7.68744 16.875C7.68744 16.3572 7.26772 15.9375 6.74997 15.9375C6.23222 15.9375 5.8125 16.3572 5.8125 16.875C5.8125 17.3927 6.23222 17.8124 6.74997 17.8124Z" fill="currentColor"></path>
</svg>
