<svg width="24" height="24" viewBox="0 0 24 24" fill="none" xmlns="http://www.w3.org/2000/svg">
<g clip-path="url(#clip0_1_7255)">
<path d="M16.8539 10.8563L17.312 11.3145C17.4513 11.4537 17.5618 11.6191 17.6372 11.8011C17.7126 11.9831 17.7514 12.1781 17.7514 12.3751C17.7514 12.5721 17.7126 12.7671 17.6372 12.9491C17.5618 13.1311 17.4513 13.2964 17.312 13.4357L16.6531 14.0947C16.5124 14.2353 16.3216 14.3144 16.1227 14.3144C15.9238 14.3144 15.7331 14.2353 15.5924 14.0947L9.90326 8.40553C9.76261 8.26488 9.68359 8.07412 9.68359 7.87522C9.68359 7.67631 9.76261 7.48555 9.90326 7.3449L10.5622 6.68591C10.7015 6.54663 10.8669 6.43614 11.0489 6.36076C11.2309 6.28538 11.4259 6.24658 11.6229 6.24658C11.8199 6.24658 12.0149 6.28538 12.1969 6.36076C12.3789 6.43614 12.5442 6.54663 12.6835 6.68591L13.1417 7.14408L15.728 4.55777C16.7393 3.54641 18.3872 3.48445 19.4259 4.46771C19.6809 4.70878 19.885 4.99854 20.0261 5.31984C20.1672 5.64115 20.2424 5.98748 20.2474 6.33837C20.2523 6.68925 20.1868 7.03756 20.0548 7.36271C19.9228 7.68785 19.7269 7.98322 19.4788 8.23136L16.8539 10.8563Z" stroke="currentColor" stroke-width="1.12497" stroke-linecap="round" stroke-linejoin="round"></path>
<path d="M14.8727 13.3714L9.62282 18.6213C9.25057 18.9938 8.78675 19.2618 8.27803 19.3982C7.76932 19.5346 7.23366 19.5346 6.72495 19.3982L4.53106 20.3559C4.3929 20.4162 4.23977 20.4335 4.09165 20.4055C3.94352 20.3775 3.80728 20.3055 3.70068 20.1989V20.1989C3.62415 20.1224 3.57246 20.0245 3.55235 19.9182C3.53224 19.8118 3.54464 19.7019 3.58795 19.6027L4.60341 17.2766C4.46702 16.7679 4.46701 16.2323 4.60339 15.7235C4.73978 15.2148 5.00774 14.751 5.38031 14.3787L10.6302 9.12891" stroke="currentColor" stroke-width="1.12497" stroke-linecap="round" stroke-linejoin="round"></path>
</g>
<defs>
<clipPath id="clip0_1_7255">
<rect width="23.9993" height="23.9993" fill="currentColor"></rect>
</clipPath>
</defs>
</svg>
