<svg width="24" height="24" viewBox="0 0 24 24" fill="none" xmlns="http://www.w3.org/2000/svg">
<g clip-path="url(#clip0_1_7362)">
<path d="M11.9997 20.9993C16.9701 20.9993 20.9995 16.97 20.9995 11.9996C20.9995 7.02919 16.9701 2.99988 11.9997 2.99988C7.02932 2.99988 3 7.02919 3 11.9996C3 16.97 7.02932 20.9993 11.9997 20.9993Z" stroke="currentColor" stroke-width="1.12497" stroke-linecap="round" stroke-linejoin="round"></path>
<path d="M9.75 13.4998V8.99993L14.2499 6.75V13.4998" stroke="currentColor" stroke-width="1.12497" stroke-linecap="round" stroke-linejoin="round"></path>
<path d="M15.7498 20.184V14.25C15.7498 14.0511 15.6708 13.8603 15.5301 13.7197C15.3895 13.579 15.1987 13.5 14.9998 13.5H8.99998C8.80107 13.5 8.61031 13.579 8.46966 13.7197C8.32902 13.8603 8.25 14.0511 8.25 14.25V20.184" stroke="currentColor" stroke-width="1.12497" stroke-linecap="round" stroke-linejoin="round"></path>
</g>
<defs>
<clipPath id="clip0_1_7362">
<rect width="23.9993" height="23.9993" fill="currentColor"></rect>
</clipPath>
</defs>
</svg>
