<svg width="24" height="24" viewBox="0 0 24 24" fill="none" xmlns="http://www.w3.org/2000/svg">
<g clip-path="url(#clip0_1_7234)">
<path d="M8.9998 15.7495C12.7276 15.7495 15.7496 12.7275 15.7496 8.99968C15.7496 5.27187 12.7276 2.24988 8.9998 2.24988C5.27199 2.24988 2.25 5.27187 2.25 8.99968C2.25 12.7275 5.27199 15.7495 8.9998 15.7495Z" stroke="currentColor" stroke-width="1.12497" stroke-linecap="round" stroke-linejoin="round"></path>
<path d="M14.9998 21.7496C18.7276 21.7496 21.7496 18.7276 21.7496 14.9998C21.7496 11.272 18.7276 8.25 14.9998 8.25C11.272 8.25 8.25 11.272 8.25 14.9998C8.25 18.7276 11.272 21.7496 14.9998 21.7496Z" stroke="currentColor" stroke-width="1.12497" stroke-linecap="round" stroke-linejoin="round"></path>
<path d="M11.4883 9.23535L14.7664 12.5135" stroke="currentColor" stroke-width="1.12497" stroke-linecap="round" stroke-linejoin="round"></path>
<path d="M9.23438 11.4854L12.5125 14.7635" stroke="currentColor" stroke-width="1.12497" stroke-linecap="round" stroke-linejoin="round"></path>
</g>
<defs>
<clipPath id="clip0_1_7234">
<rect width="23.9993" height="23.9993" fill="currentColor"></rect>
</clipPath>
</defs>
</svg>
