<svg width="24" height="24" viewBox="0 0 24 24" fill="none" xmlns="http://www.w3.org/2000/svg">
<g clip-path="url(#clip0_1_7347)">
<path d="M11.9997 20.9993C16.9701 20.9993 20.9995 16.97 20.9995 11.9996C20.9995 7.02919 16.9701 2.99988 11.9997 2.99988C7.02932 2.99988 3 7.02919 3 11.9996C3 16.97 7.02932 20.9993 11.9997 20.9993Z" stroke="currentColor" stroke-width="1.12497" stroke-linecap="round" stroke-linejoin="round"></path>
<path d="M16.4997 19.7957V16.4995L11.9999 6.74976L7.5 16.4995V19.796" stroke="currentColor" stroke-width="1.12497" stroke-linecap="round" stroke-linejoin="round"></path>
<path d="M12 17.9999C12 17.4032 12.237 16.8309 12.659 16.409C13.0809 15.987 13.6532 15.75 14.2499 15.75C14.8467 15.75 15.4189 15.987 15.8409 16.409C16.2628 16.8309 16.4999 17.4032 16.4999 17.9999" stroke="currentColor" stroke-width="1.12497" stroke-linecap="round" stroke-linejoin="round"></path>
<path d="M11.9999 20.9998V17.9999C11.9999 17.4032 11.7628 16.8309 11.3409 16.409C10.9189 15.987 10.3467 15.75 9.74993 15.75C9.15321 15.75 8.58093 15.987 8.15899 16.409C7.73705 16.8309 7.5 17.4032 7.5 17.9999" stroke="currentColor" stroke-width="1.12497" stroke-linecap="round" stroke-linejoin="round"></path>
<path d="M9.57812 12H14.4241" stroke="currentColor" stroke-width="1.12497" stroke-linecap="round" stroke-linejoin="round"></path>
</g>
<defs>
<clipPath id="clip0_1_7347">
<rect width="23.9993" height="23.9993" fill="currentColor"></rect>
</clipPath>
</defs>
</svg>
