<svg width="24" height="24" viewBox="0 0 24 24" fill="none" xmlns="http://www.w3.org/2000/svg">
<g clip-path="url(#clip0_1_7387)">
<path d="M10.8749 14.9999C11.9104 14.9999 12.7499 14.1604 12.7499 13.1249C12.7499 12.0894 11.9104 11.25 10.8749 11.25C9.83944 11.25 9 12.0894 9 13.1249C9 14.1604 9.83944 14.9999 10.8749 14.9999Z" stroke="currentColor" stroke-width="1.12497" stroke-linecap="round" stroke-linejoin="round"></path>
<path d="M3 20.9997L9.54843 14.4504" stroke="currentColor" stroke-width="1.12497" stroke-linecap="round" stroke-linejoin="round"></path>
<path d="M3 20.9998L16.0726 18.821C16.2025 18.7994 16.3243 18.7439 16.4259 18.6603C16.5275 18.5767 16.6054 18.4678 16.6516 18.3446L18.7495 12.75L11.2498 5.25024L5.65521 7.3482C5.53199 7.39441 5.42309 7.47223 5.33946 7.57386C5.25583 7.67548 5.20041 7.79731 5.17878 7.92713L3 20.9998Z" stroke="currentColor" stroke-width="1.12497" stroke-linecap="round" stroke-linejoin="round"></path>
<path d="M18.7498 12.7496L21.2194 10.28C21.289 10.2103 21.3443 10.1277 21.3819 10.0367C21.4196 9.94568 21.439 9.84816 21.439 9.74967C21.439 9.65118 21.4196 9.55366 21.3819 9.46267C21.3443 9.37168 21.289 9.289 21.2194 9.21936L14.7802 2.78021C14.6396 2.63956 14.4488 2.56055 14.2499 2.56055C14.051 2.56055 13.8602 2.63956 13.7196 2.78021L11.25 5.24981" stroke="currentColor" stroke-width="1.12497" stroke-linecap="round" stroke-linejoin="round"></path>
</g>
<defs>
<clipPath id="clip0_1_7387">
<rect width="23.9993" height="23.9993" fill="currentColor"></rect>
</clipPath>
</defs>
</svg>
