<svg width="24" height="24" viewBox="0 0 24 24" fill="none" xmlns="http://www.w3.org/2000/svg">
<path d="M14.8288 9.1712C16.3904 10.7328 16.3904 13.2672 14.8288 14.8288C13.2672 16.3904 10.7328 16.3904 9.1712 14.8288C7.6096 13.2672 7.6096 10.7328 9.1712 9.1712C10.7328 7.6096 13.2672 7.6096 14.8288 9.1712Z" stroke="currentColor" stroke-linecap="round" stroke-linejoin="round"></path>
<path d="M9.00517 19.4084C7.40676 18.769 6.00816 17.6102 5.08108 16.0038C4.16999 14.4294 3.8663 12.6791 4.08208 11.0088" stroke="currentColor" stroke-linecap="round" stroke-linejoin="round"></path>
<path d="M7.08594 5.6943C8.44458 4.63137 10.1469 4 12.001 4C13.8152 4 15.4855 4.61538 16.8282 5.63835" stroke="currentColor" stroke-linecap="round" stroke-linejoin="round"></path>
<path d="M15 19.4084C16.5984 18.769 17.997 17.6102 18.9241 16.0038C19.8352 14.4294 20.1389 12.6791 19.9231 11.0088" stroke="currentColor" stroke-linecap="round" stroke-linejoin="round"></path>
</svg>
