<svg width="24" height="24" viewBox="0 0 24 24" fill="none" xmlns="http://www.w3.org/2000/svg">
<path d="M4.20156 3.59961C3.87019 3.59961 3.60156 3.86824 3.60156 4.19961V19.7996C3.60156 19.9653 3.66872 20.1153 3.7773 20.2239L10.8016 13.1996V4.19961C10.8016 3.86824 10.5329 3.59961 10.2016 3.59961H4.20156Z" stroke="currentColor" stroke-linecap="round" stroke-linejoin="round"></path>
<path d="M20.4016 19.8002C20.4016 20.1316 20.133 20.4002 19.8016 20.4002L4.20161 20.4002C4.03592 20.4002 3.88592 20.333 3.77734 20.2245L10.8016 13.2002L19.8016 13.2002C20.133 13.2002 20.4016 13.4688 20.4016 13.8002V19.8002Z" stroke="currentColor" stroke-linecap="round" stroke-linejoin="round"></path>
<path d="M8.39844 6L10.7984 6" stroke="currentColor" stroke-linecap="round" stroke-linejoin="round"></path>
<path d="M8.39844 8.7002L10.7984 8.7002" stroke="currentColor" stroke-linecap="round" stroke-linejoin="round"></path>
<path d="M8.39844 11.4004L10.7984 11.4004" stroke="currentColor" stroke-linecap="round" stroke-linejoin="round"></path>
<path d="M12.6016 15.5996L12.6016 13.1996" stroke="currentColor" stroke-linecap="round" stroke-linejoin="round"></path>
<path d="M15.3008 15.5996L15.3008 13.1996" stroke="currentColor" stroke-linecap="round" stroke-linejoin="round"></path>
<path d="M18 15.5996L18 13.1996" stroke="currentColor" stroke-linecap="round" stroke-linejoin="round"></path>
</svg>
