<svg width="24" height="24" viewBox="0 0 24 24" fill="none" xmlns="http://www.w3.org/2000/svg">
<path d="M16 12.2V15.8C16 18.8 14.8 20 11.8 20H8.2C5.2 20 4 18.8 4 15.8V12.2C4 9.2 5.2 8 8.2 8H11.8C14.8 8 16 9.2 16 12.2Z" stroke="currentColor" stroke-linecap="round" stroke-linejoin="round"></path>
<path d="M19.9992 7.08V9.72C19.9992 11.92 19.1192 12.8 16.9192 12.8H15.9992V12.2C15.9992 9.2 14.7992 8 11.7992 8H11.1992V7.08C11.1992 4.88 12.0792 4 14.2792 4H16.9192C19.1192 4 19.9992 4.88 19.9992 7.08Z" stroke="currentColor" stroke-linecap="round" stroke-linejoin="round"></path>
</svg>
