<svg width="24" height="24" viewBox="0 0 24 24" fill="none" xmlns="http://www.w3.org/2000/svg">
<path d="M14.625 9.56244C15.1427 9.56244 15.5624 9.14272 15.5624 8.62497C15.5624 8.10722 15.1427 7.6875 14.625 7.6875C14.1072 7.6875 13.6875 8.10722 13.6875 8.62497C13.6875 9.14272 14.1072 9.56244 14.625 9.56244Z" fill="currentColor"></path>
<path d="M9.37497 9.56244C9.89272 9.56244 10.3124 9.14272 10.3124 8.62497C10.3124 8.10722 9.89272 7.6875 9.37497 7.6875C8.85722 7.6875 8.4375 8.10722 8.4375 8.62497C8.4375 9.14272 8.85722 9.56244 9.37497 9.56244Z" fill="currentColor"></path>
<path d="M12 12V20.2498" stroke="currentColor" stroke-width="1.12497" stroke-linecap="round" stroke-linejoin="round"></path>
<path d="M22.8743 12L1.125 12" stroke="currentColor" stroke-width="1.12497" stroke-linecap="round" stroke-linejoin="round"></path>
<path d="M19.4996 13.4996C19.4996 15.4887 18.7094 17.3963 17.3029 18.8028C15.8964 20.2092 13.9888 20.9994 11.9998 20.9994C10.0107 20.9994 8.10311 20.2092 6.69663 18.8028C5.29015 17.3963 4.5 15.4887 4.5 13.4996V10.4997C4.5 8.51065 5.29015 6.60305 6.69663 5.19657C8.10311 3.79009 10.0107 2.99994 11.9998 2.99994C13.9888 2.99994 15.8964 3.79009 17.3029 5.19657C18.7094 6.60305 19.4996 8.51065 19.4996 10.4997V13.4996Z" stroke="currentColor" stroke-width="1.12497" stroke-linecap="round" stroke-linejoin="round"></path>
<path d="M21.7413 17.6249L19.0469 16.0693" stroke="currentColor" stroke-width="1.12497" stroke-linecap="round" stroke-linejoin="round"></path>
<path d="M21.7413 6.375L19.0469 7.93061" stroke="currentColor" stroke-width="1.12497" stroke-linecap="round" stroke-linejoin="round"></path>
<path d="M2.25391 6.375L4.94831 7.93062" stroke="currentColor" stroke-width="1.12497" stroke-linecap="round" stroke-linejoin="round"></path>
<path d="M2.25391 17.6249L4.94829 16.0693" stroke="currentColor" stroke-width="1.12497" stroke-linecap="round" stroke-linejoin="round"></path>
</svg>
