<svg width="24" height="24" viewBox="0 0 24 24" fill="none" xmlns="http://www.w3.org/2000/svg">
<path d="M19.2039 11.5H20.0039M4.00391 11.5H4.80391M12.0039 3.5V4.3M6.34708 5.84316L6.97561 6.4717M17.6607 5.84316L17.0322 6.4717" stroke="currentColor" stroke-linecap="round" stroke-linejoin="round"></path>
<path d="M13.8044 16.8621C13.8044 16.2765 14.0097 15.5394 14.4987 15.2144C15.708 14.4108 16.5046 13.0394 16.5046 11.4828C16.5046 9.007 14.4897 7 12.0042 7C9.51877 7 7.50391 9.007 7.50391 11.4828C7.50391 13.0394 8.30048 14.4108 9.50975 15.2144C9.99874 15.5394 10.2041 16.2765 10.2041 16.8621V18.2069C10.2041 19.1972 11.01 20 12.0042 20C12.9984 20 13.8044 19.1972 13.8044 18.2069V16.8621Z" stroke="currentColor" stroke-linejoin="round"></path>
<path d="M12.2796 18.8397L10.207 18.2865M13.8011 16.5832L11.5647 15.9863M13.8011 17.9145L10.2072 16.9552" stroke="currentColor" stroke-linecap="round" stroke-linejoin="round"></path>
</svg>
