<svg width="24" height="24" viewBox="0 0 24 24" fill="none" xmlns="http://www.w3.org/2000/svg">
<path d="M12.2695 12C16.5389 12.0002 19.9998 15.4611 20 19.7305C20 20.4314 19.4314 21 18.7305 21H5.26953C4.56855 21 4 20.4314 4 19.7305C4.00016 15.4611 7.46112 12.0002 11.7305 12H12.2695ZM11.7305 14C8.81323 14.0001 6.40684 16.1803 6.04785 19H17.9521C17.5932 16.1803 15.1868 14.0001 12.2695 14H11.7305ZM12 3C14.2091 3 16 4.79086 16 7C16 9.20914 14.2091 11 12 11C9.79086 11 8 9.20914 8 7C8 4.79086 9.79086 3 12 3ZM12 5C10.8954 5 10 5.89543 10 7C10 8.10457 10.8954 9 12 9C13.1046 9 14 8.10457 14 7C14 5.89543 13.1046 5 12 5Z" fill="currentColor"></path>
</svg>
