<svg width="24" height="24" viewBox="0 0 24 24" fill="none" xmlns="http://www.w3.org/2000/svg">
<path d="M12.2695 11.5C16.2627 11.5002 19.4998 14.7373 19.5 18.7305C19.5 19.1553 19.1553 19.5 18.7305 19.5H5.26953C4.8447 19.5 4.5 19.1553 4.5 18.7305C4.50016 14.7373 7.73726 11.5002 11.7305 11.5H12.2695ZM11.7305 12.5C8.36673 12.5002 5.62728 15.1659 5.50586 18.5H18.4941C18.3727 15.1659 15.6333 12.5002 12.2695 12.5H11.7305ZM12 3.5C13.933 3.5 15.5 5.067 15.5 7C15.5 8.933 13.933 10.5 12 10.5C10.067 10.5 8.5 8.933 8.5 7C8.5 5.067 10.067 3.5 12 3.5ZM12 4.5C10.6193 4.5 9.5 5.61929 9.5 7C9.5 8.38071 10.6193 9.5 12 9.5C13.3807 9.5 14.5 8.38071 14.5 7C14.5 5.61929 13.3807 4.5 12 4.5Z" fill="currentColor"></path>
</svg>
