<svg width="24" height="24" viewBox="0 0 24 24" fill="none" xmlns="http://www.w3.org/2000/svg">
<path d="M4 9.5V7A1.5 1.5 0 0 1 5.5 5.5H9.5L11.5 7.5H18.5A1.5 1.5 0 0 1 20 9V10.5" stroke="currentColor" stroke-width="1.5" stroke-linecap="round" stroke-linejoin="round"/>
<path d="M2.6 11.4A1 1 0 0 1 3.58 10.2H20.42A1 1 0 0 1 21.4 11.4L20.1 17.9A1.5 1.5 0 0 1 18.63 19H5.37A1.5 1.5 0 0 1 3.9 17.9L2.6 11.4Z" stroke="currentColor" stroke-width="1.5" stroke-linecap="round" stroke-linejoin="round"/>
</svg>
