<svg width="24" height="24" viewBox="0 0 24 24" fill="none" xmlns="http://www.w3.org/2000/svg">
<path d="M18 11.5V18.4444C18 18.5918 17.9376 18.7331 17.8264 18.8373C17.7153 18.9415 17.5646 19 17.4074 19H4.66667C4.48986 19 4.32029 18.9342 4.19526 18.8169C4.07024 18.6997 4 18.5408 4 18.375V9.625C4 9.45924 4.07024 9.30027 4.19526 9.18306C4.32029 9.06585 4.48986 9 4.66667 9H8.44444C8.58869 9 8.72905 9.04386 8.84444 9.125L11.1556 10.75C11.271 10.8311 11.4113 10.875 11.5556 10.875H17.3333C17.5101 10.875 17.6797 10.9408 17.8047 11.0581C17.9298 11.1753 18 11.3342 18 11.5Z" stroke="currentColor" stroke-linecap="round" stroke-linejoin="round"></path>
<path d="M6 8.5V5.625C6 5.45924 6.07024 5.30027 6.19526 5.18306C6.32029 5.06585 6.48986 5 6.66667 5H10.4444C10.5887 5 10.729 5.04386 10.8444 5.125L13.1556 6.75C13.271 6.83114 13.4113 6.875 13.5556 6.875H19.3333C19.5101 6.875 19.6797 6.94085 19.8047 7.05806C19.9298 7.17527 20 7.33424 20 7.5V14.4444C20 14.5174 19.9847 14.5896 19.9549 14.657C19.9251 14.7245 19.8815 14.7857 19.8264 14.8373C19.7714 14.8889 19.7061 14.9298 19.6342 14.9577C19.5623 14.9856 19.4852 15 19.4074 15H18.3333" stroke="currentColor" stroke-linecap="round" stroke-linejoin="round"></path>
</svg>
