<svg width="24" height="24" viewBox="0 0 24 24" fill="none" xmlns="http://www.w3.org/2000/svg">
<path d="M21.781 13.875L19.781 11.375C19.6872 11.2579 19.5684 11.1634 19.4332 11.0985C19.298 11.0336 19.1499 10.9999 19 11H13V9H19C20.103 9 21 8.103 21 7V4C21 2.897 20.103 2 19 2H4.99997C4.85 1.99994 4.70194 2.03362 4.56675 2.09853C4.43156 2.16344 4.3127 2.25793 4.21897 2.375L2.21897 4.875C2.07714 5.05244 1.99988 5.27284 1.99988 5.5C1.99988 5.72716 2.07714 5.94756 2.21897 6.125L4.21897 8.625C4.3127 8.74207 4.43156 8.83656 4.56675 8.90147C4.70194 8.96638 4.85 9.00006 4.99997 9H11V11H4.99997C3.89697 11 2.99997 11.897 2.99997 13V16C2.99997 17.103 3.89697 18 4.99997 18H11V22H13V18H19C19.1499 18.0001 19.298 17.9664 19.4332 17.9015C19.5684 17.8366 19.6872 17.7421 19.781 17.625L21.781 15.125C21.9228 14.9476 22.0001 14.7272 22.0001 14.5C22.0001 14.2728 21.9228 14.0524 21.781 13.875ZM4.28097 5.5L5.47997 4H19L19.002 7H5.47997L4.28097 5.5ZM18.52 16H4.99997V13H18.52L19.72 14.5L18.52 16Z" fill="currentColor"></path>
</svg>
