<svg xmlns="http://www.w3.org/2000/svg" viewBox="0 0 24 24" width="24" height="24" fill="none" stroke="currentColor" stroke-width="1.5" stroke-linecap="round" stroke-linejoin="round"><circle cx="12" cy="12" r="1.2" fill="currentColor" /><circle cx="17" cy="12" r="1" fill="currentColor" /><circle cx="15.536" cy="15.536" r="1" fill="currentColor" /><circle cx="12" cy="17" r="1" fill="currentColor" /><circle cx="8.464" cy="15.536" r="1" fill="currentColor" /><circle cx="7" cy="12" r="1" fill="currentColor" /><circle cx="8.464" cy="8.464" r="1" fill="currentColor" /><circle cx="12" cy="7" r="1" fill="currentColor" /><circle cx="15.536" cy="8.464" r="1" fill="currentColor" /><circle cx="21" cy="12" r="0.8" fill="currentColor" /><circle cx="19.794" cy="16.5" r="0.8" fill="currentColor" /><circle cx="16.5" cy="19.794" r="0.8" fill="currentColor" /><circle cx="12" cy="21" r="0.8" fill="currentColor" /><circle cx="7.5" cy="19.794" r="0.8" fill="currentColor" /><circle cx="4.206" cy="16.5" r="0.8" fill="currentColor" /><circle cx="3" cy="12" r="0.8" fill="currentColor" /><circle cx="4.206" cy="7.5" r="0.8" fill="currentColor" /><circle cx="7.5" cy="4.206" r="0.8" fill="currentColor" /><circle cx="12" cy="3" r="0.8" fill="currentColor" /><circle cx="16.5" cy="4.206" r="0.8" fill="currentColor" /><circle cx="19.794" cy="7.5" r="0.8" fill="currentColor" /></svg>
