<svg xmlns="http://www.w3.org/2000/svg" viewBox="0 0 24 24" width="24" height="24" fill="none" stroke="currentColor" stroke-width="1.5" stroke-linecap="round" stroke-linejoin="round"><path d="M12 10 L13.3 10.75 V12.25 L12 13 L10.7 12.25 V10.75 Z" /><path d="M19 10.7 L20.1 11.35 L20.1 12.65 L19 13.3 L17.9 12.65 L17.9 11.35 Z" /><path d="M15.5 16.76217782649107 L16.6 17.41217782649107 L16.6 18.712177826491068 L15.5 19.36217782649107 L14.4 18.712177826491068 L14.4 17.41217782649107 Z" /><path d="M8.500000000000002 16.762177826491072 L9.600000000000001 17.412177826491074 L9.600000000000001 18.71217782649107 L8.500000000000002 19.362177826491074 L7.400000000000002 18.71217782649107 L7.400000000000002 17.412177826491074 Z" /><path d="M5 10.7 L6.1 11.35 L6.1 12.65 L5 13.3 L3.9 12.65 L3.9 11.35 Z" /><path d="M8.499999999999996 4.637822173508931 L9.599999999999996 5.28782217350893 L9.599999999999996 6.587822173508931 L8.499999999999996 7.23782217350893 L7.399999999999997 6.587822173508931 L7.399999999999997 5.28782217350893 Z" /><path d="M15.5 4.63782217350893 L16.6 5.287822173508929 L16.6 6.58782217350893 L15.5 7.237822173508929 L14.4 6.58782217350893 L14.4 5.287822173508929 Z" /></svg>
